<svg width="600" height="273" viewBox="0 0 600 273" fill="none" xmlns="http://www.w3.org/2000/svg">
<path d="M321.388 228.27C318.89 228.27 315.658 227.828 311.691 226.945C307.871 226.062 303.83 224.589 299.57 222.528C295.456 220.467 291.709 217.67 288.33 214.137L229.486 153.849C228.605 161.21 227.87 168.498 227.283 175.712C226.695 182.926 226.181 189.33 225.74 194.924C225.593 196.249 225.079 197.133 224.197 197.574C223.316 198.016 222.214 198.237 220.891 198.237C218.541 198.237 215.822 197.869 212.737 197.132C209.799 196.396 206.933 194.998 204.142 192.937C201.35 190.728 199.146 187.637 197.53 183.662C195.914 179.54 195.326 174.092 195.767 167.32C196.355 159.517 197.016 150.39 197.751 139.937C198.485 129.484 199.146 118.369 199.734 106.591C200.322 94.8135 200.836 83.0357 201.277 71.258C201.718 59.4803 201.938 48.3651 201.938 37.9123C202.232 36.7345 203.113 35.9248 204.583 35.4832C206.052 34.8943 207.742 34.5998 209.652 34.5998C213.178 34.5998 216.777 35.4832 220.451 37.2498C224.271 38.8693 227.429 41.7401 229.927 45.8623C232.572 49.8373 233.894 55.4317 233.894 62.6456C233.894 68.9761 233.6 75.8955 233.013 83.4038C232.425 90.7649 231.911 98.7148 231.47 107.254C238.816 99.1565 245.722 90.6913 252.186 81.858C258.651 73.0247 264.381 64.4858 269.377 56.2414C274.519 47.997 278.633 40.7095 281.718 34.379C289.799 34.379 295.382 36.3665 298.468 40.3415C301.7 44.3165 303.316 49.7637 303.316 56.6831C303.316 60.3636 301.774 65.0011 298.688 70.5955C295.603 76.0427 291.415 82.0052 286.126 88.4829C280.984 94.9607 275.18 101.659 268.715 108.579C262.251 115.498 255.639 122.27 248.881 128.895L323.812 220.982C324.841 222.16 325.355 223.412 325.355 224.737C325.355 227.092 324.033 228.27 321.388 228.27Z" fill="#E2DBD5"/>
<path d="M340.042 198.458C336.222 198.458 332.181 197.721 327.92 196.249C323.807 194.777 320.28 192.642 317.342 189.845C314.55 187.048 313.154 183.662 313.154 179.687C313.154 177.331 313.301 173.135 313.595 167.099C313.889 161.063 314.256 154.07 314.697 146.12C315.138 138.023 315.652 129.705 316.24 121.166C316.828 112.48 317.489 104.236 318.223 96.4329C318.958 88.6302 319.619 82.0052 320.207 76.558C320.354 75.3802 321.088 74.6441 322.411 74.3497C323.733 73.908 324.835 73.6872 325.717 73.6872C329.096 73.6872 332.842 74.6441 336.956 76.558C341.07 78.4719 344.596 80.901 347.535 83.8455C350.62 86.7899 352.163 89.8816 352.163 93.1204C352.163 95.0343 351.869 98.8621 351.282 104.604C350.694 110.198 349.959 116.897 349.078 124.699C348.343 132.502 347.535 140.673 346.653 149.212C345.919 157.751 345.258 166.069 344.67 174.166C344.082 182.116 343.788 189.035 343.788 194.924C343.788 195.66 343.494 196.396 342.907 197.132C342.319 198.016 341.364 198.458 340.042 198.458ZM343.127 51.8248C338.279 51.8248 333.797 51.3095 329.684 50.2789C325.717 49.1012 322.558 47.0401 320.207 44.0956C318.003 41.1512 317.048 36.9554 317.342 31.5082C317.636 28.711 318.003 25.6929 318.444 22.454C319.031 19.0679 320.941 17.0068 324.174 16.2707C325.937 15.9763 328.067 15.7555 330.565 15.6082C333.063 15.461 335.267 15.3874 337.177 15.3874C341.291 15.3874 345.845 16.0499 350.841 17.3749C353.338 17.9638 354.587 18.9207 354.587 20.2457C354.587 23.6318 354.073 27.6068 353.045 32.1707C352.016 36.7346 350.914 42.9915 349.739 50.9414C347.388 51.5303 345.184 51.8248 343.127 51.8248Z" fill="#E2DBD5"/>
<path d="M401.699 199.782C397.438 199.782 393.103 198.605 388.696 196.249C384.288 193.894 380.468 190.728 377.236 186.753C374.15 182.631 372.387 177.994 371.946 172.841C371.506 168.13 371.138 162.462 370.844 155.837C370.55 149.212 370.404 142.072 370.404 134.416C370.404 123.669 370.771 112.48 371.506 100.85C372.387 89.2191 373.93 78.251 376.134 67.9455C376.868 64.8539 378.117 63.308 379.88 63.308C383.553 63.308 387.447 64.265 391.561 66.1789C395.822 68.0927 399.421 70.5219 402.36 73.4663C405.298 76.2635 406.767 79.1344 406.767 82.0788C406.767 83.6982 406.621 85.9802 406.327 88.9246C406.033 91.7218 405.812 95.9176 405.666 101.512H406.106C406.988 96.801 408.678 91.7954 411.175 86.4955C413.82 81.0483 417.126 76.4108 421.093 72.583C425.06 68.608 429.541 66.6205 434.536 66.6205C438.063 70.7427 440.854 76.1163 442.911 82.7413C444.968 89.3663 446.07 95.9912 446.217 102.616C438.577 104.383 431.818 107.106 425.941 110.787C420.211 114.32 414.408 119.179 408.531 125.362C406.621 133.017 405.151 141.188 404.123 149.874C403.241 158.413 402.58 166.51 402.139 174.166C401.846 181.674 401.699 187.858 401.699 192.716C401.699 197.427 401.699 199.782 401.699 199.782Z" fill="#E2DBD5"/>
<path d="M482.56 198.016C478.446 198.016 474.259 196.764 469.998 194.262C465.884 191.612 461.991 188.152 458.317 183.883C454.791 179.466 451.926 174.608 449.722 169.308C447.519 164.008 446.417 158.708 446.417 153.408C446.417 142.955 447.886 132.576 450.824 122.27C453.91 111.965 458.097 102.616 463.386 94.2246C468.823 85.8329 475.214 79.1344 482.56 74.1288C489.906 69.1233 497.84 66.6205 506.362 66.6205C510.182 66.6205 514.369 67.7983 518.924 70.1539C523.479 72.3622 526.785 75.6747 528.841 80.0913C534.425 82.7413 538.539 86.7163 541.183 92.0163C543.828 97.3162 544.856 102.175 544.269 106.591C543.828 110.125 542.285 114.173 539.64 118.737C536.996 123.154 533.617 127.718 529.503 132.429C525.389 136.992 520.834 141.262 515.839 145.237C510.843 149.065 505.701 152.23 500.412 154.733C495.269 157.088 490.274 158.266 485.425 158.266C483.662 158.266 481.752 157.677 479.695 156.499C480.136 161.21 481.458 164.597 483.662 166.658C486.013 168.572 489.098 169.528 492.918 169.528C498.501 169.528 504.672 167.541 511.431 163.566C518.189 159.591 525.389 154.291 533.029 147.666C536.408 149.285 538.979 151.42 540.742 154.07C542.506 156.573 543.167 159.738 542.726 163.566C542.138 167.983 539.787 172.252 535.673 176.374C531.707 180.349 526.638 184.03 520.467 187.416C514.443 190.655 508.052 193.231 501.293 195.145C494.681 197.059 488.437 198.016 482.56 198.016ZM515.398 90.9121C509.668 91.2065 504.452 93.8565 499.75 98.8621C495.049 103.868 491.082 110.051 487.849 117.412C484.617 124.626 482.266 131.84 480.797 139.054C485.646 138.023 490.2 135.52 494.461 131.545C498.869 127.423 502.689 122.786 505.921 117.633C509.3 112.333 511.872 107.254 513.635 102.395C515.398 97.3899 515.986 93.5621 515.398 90.9121Z" fill="#E2DBD5"/>
<path d="M585.18 198.458C581.36 198.458 577.319 197.721 573.058 196.249C568.945 194.777 565.418 192.642 562.48 189.845C559.688 187.048 558.292 183.662 558.292 179.687C558.292 177.331 558.439 173.135 558.733 167.099C559.027 161.063 559.394 154.07 559.835 146.12C560.276 138.023 560.79 129.705 561.378 121.166C561.966 112.48 562.627 104.236 563.361 96.4329C564.096 88.6302 564.757 82.0052 565.345 76.558C565.492 75.3802 566.226 74.6441 567.549 74.3497C568.871 73.908 569.973 73.6872 570.855 73.6872C574.234 73.6872 577.98 74.6441 582.094 76.558C586.208 78.4719 589.734 80.901 592.673 83.8455C595.758 86.7899 597.301 89.8816 597.301 93.1204C597.301 95.0343 597.007 98.8621 596.42 104.604C595.832 110.198 595.097 116.897 594.216 124.699C593.481 132.502 592.673 140.673 591.791 149.212C591.057 157.751 590.396 166.069 589.808 174.166C589.22 182.116 588.926 189.035 588.926 194.924C588.926 195.66 588.632 196.396 588.045 197.132C587.457 198.016 586.502 198.458 585.18 198.458ZM588.265 51.8248C583.417 51.8248 578.935 51.3095 574.822 50.2789C570.855 49.1012 567.696 47.0401 565.345 44.0956C563.141 41.1512 562.186 36.9554 562.48 31.5082C562.774 28.711 563.141 25.6929 563.582 22.454C564.169 19.0679 566.079 17.0068 569.312 16.2707C571.075 15.9763 573.205 15.7555 575.703 15.6082C578.201 15.461 580.405 15.3874 582.315 15.3874C586.429 15.3874 590.983 16.0499 595.979 17.3749C598.476 17.9638 599.725 18.9207 599.725 20.2457C599.725 23.6318 599.211 27.6068 598.183 32.1707C597.154 36.7346 596.052 42.9915 594.877 50.9414C592.526 51.5303 590.322 51.8248 588.265 51.8248Z" fill="#E2DBD5"/>
<path d="M326.108 258.825L325.818 254.204L347.704 251.197C347.511 248.507 346.593 246.307 344.95 244.595C343.308 242.835 341.037 241.955 338.138 241.955C335.143 241.955 332.655 243.055 330.674 245.255C328.741 247.407 327.775 250.512 327.775 254.571V256.184C328.113 260.096 329.369 263.079 331.544 265.133C333.766 267.138 336.785 268.14 340.602 268.14C342.631 268.14 344.467 267.798 346.11 267.113C347.753 266.429 349.057 265.695 350.023 264.913C350.555 265.255 350.965 265.671 351.255 266.16C351.593 266.6 351.762 267.113 351.762 267.7C351.762 268.629 351.231 269.51 350.168 270.341C349.154 271.123 347.777 271.759 346.037 272.248C344.346 272.737 342.438 272.981 340.312 272.981C336.592 272.981 333.355 272.297 330.601 270.928C327.896 269.558 325.794 267.529 324.297 264.84C322.847 262.101 322.123 258.776 322.123 254.864C322.123 252.077 322.509 249.607 323.282 247.456C324.103 245.255 325.215 243.397 326.616 241.881C328.065 240.365 329.78 239.216 331.761 238.434C333.742 237.603 335.892 237.187 338.211 237.187C341.158 237.187 343.743 237.823 345.965 239.094C348.236 240.365 349.999 242.15 351.255 244.449C352.56 246.698 353.212 249.29 353.212 252.224C353.212 253.299 352.97 254.082 352.487 254.571C352.004 255.011 351.328 255.28 350.458 255.378L326.108 258.825Z" fill="#E2DBD5"/>
<path d="M385.636 263.006C385.636 266.135 384.5 268.58 382.23 270.341C379.959 272.101 376.674 272.981 372.374 272.981C368.702 272.981 365.707 272.419 363.388 271.294C361.069 270.121 359.909 268.849 359.909 267.48C359.909 266.893 360.054 266.331 360.344 265.793C360.682 265.206 361.165 264.742 361.793 264.4C363.098 265.329 364.62 266.184 366.359 266.967C368.098 267.749 370.079 268.14 372.301 268.14C377.326 268.14 379.838 266.429 379.838 263.006C379.838 261.588 379.403 260.439 378.534 259.558C377.712 258.629 376.48 257.969 374.838 257.578L368.823 255.964C365.876 255.231 363.726 254.106 362.373 252.59C361.02 251.026 360.344 249.094 360.344 246.796C360.344 244.204 361.383 241.955 363.46 240.048C365.537 238.141 368.702 237.187 372.953 237.187C375.224 237.187 377.205 237.431 378.896 237.92C380.587 238.361 381.891 238.972 382.809 239.754C383.776 240.488 384.259 241.295 384.259 242.175C384.259 242.81 384.09 243.373 383.751 243.862C383.462 244.351 383.051 244.718 382.519 244.962C381.94 244.571 381.191 244.155 380.273 243.715C379.403 243.226 378.365 242.835 377.157 242.541C375.949 242.199 374.62 242.028 373.171 242.028C371.045 242.028 369.33 242.444 368.026 243.275C366.721 244.106 366.069 245.28 366.069 246.796C366.069 247.872 366.431 248.825 367.156 249.656C367.929 250.439 369.137 251.026 370.779 251.417L375.78 252.664C379.065 253.446 381.529 254.693 383.172 256.404C384.814 258.067 385.636 260.268 385.636 263.006Z" fill="#E2DBD5"/>
<path d="M418.049 263.006C418.049 266.135 416.913 268.58 414.643 270.341C412.372 272.101 409.087 272.981 404.787 272.981C401.115 272.981 398.12 272.419 395.801 271.294C393.482 270.121 392.322 268.849 392.322 267.48C392.322 266.893 392.467 266.331 392.757 265.793C393.095 265.206 393.578 264.742 394.206 264.4C395.511 265.329 397.033 266.184 398.772 266.967C400.511 267.749 402.492 268.14 404.714 268.14C409.739 268.14 412.251 266.429 412.251 263.006C412.251 261.588 411.816 260.439 410.947 259.558C410.125 258.629 408.893 257.969 407.251 257.578L401.236 255.964C398.289 255.231 396.139 254.106 394.786 252.59C393.433 251.026 392.757 249.094 392.757 246.796C392.757 244.204 393.796 241.955 395.873 240.048C397.95 238.141 401.115 237.187 405.366 237.187C407.637 237.187 409.618 237.431 411.309 237.92C413 238.361 414.304 238.972 415.222 239.754C416.189 240.488 416.672 241.295 416.672 242.175C416.672 242.81 416.503 243.373 416.164 243.862C415.875 244.351 415.464 244.718 414.932 244.962C414.353 244.571 413.604 244.155 412.686 243.715C411.816 243.226 410.778 242.835 409.57 242.541C408.362 242.199 407.033 242.028 405.584 242.028C403.458 242.028 401.743 242.444 400.439 243.275C399.134 244.106 398.482 245.28 398.482 246.796C398.482 247.872 398.844 248.825 399.569 249.656C400.342 250.439 401.55 251.026 403.192 251.417L408.193 252.664C411.478 253.446 413.942 254.693 415.585 256.404C417.227 258.067 418.049 260.268 418.049 263.006Z" fill="#E2DBD5"/>
<path d="M429.292 258.825L429.002 254.204L450.888 251.197C450.695 248.507 449.777 246.307 448.134 244.595C446.491 242.835 444.221 241.955 441.322 241.955C438.327 241.955 435.838 243.055 433.858 245.255C431.925 247.407 430.959 250.512 430.959 254.571V256.184C431.297 260.096 432.553 263.079 434.727 265.133C436.95 267.138 439.969 268.14 443.786 268.14C445.815 268.14 447.651 267.798 449.294 267.113C450.936 266.429 452.241 265.695 453.207 264.913C453.738 265.255 454.149 265.671 454.439 266.16C454.777 266.6 454.946 267.113 454.946 267.7C454.946 268.629 454.415 269.51 453.352 270.341C452.337 271.123 450.96 271.759 449.221 272.248C447.53 272.737 445.622 272.981 443.496 272.981C439.776 272.981 436.539 272.297 433.785 270.928C431.08 269.558 428.978 267.529 427.48 264.84C426.031 262.101 425.306 258.776 425.306 254.864C425.306 252.077 425.693 249.607 426.466 247.456C427.287 245.255 428.398 243.397 429.799 241.881C431.249 240.365 432.964 239.216 434.945 238.434C436.926 237.603 439.075 237.187 441.394 237.187C444.342 237.187 446.926 237.823 449.149 239.094C451.419 240.365 453.183 242.15 454.439 244.449C455.743 246.698 456.396 249.29 456.396 252.224C456.396 253.299 456.154 254.082 455.671 254.571C455.188 255.011 454.511 255.28 453.642 255.378L429.292 258.825Z" fill="#E2DBD5"/>
<path d="M493.757 249.656V257.138H487.96V249.95C487.96 247.211 487.187 245.207 485.641 243.935C484.143 242.664 482.114 242.028 479.553 242.028C477.621 242.028 475.906 242.273 474.408 242.762C472.91 243.251 471.63 243.813 470.567 244.449V257.138H464.77V244.742C464.77 243.715 464.963 242.884 465.349 242.248C465.784 241.563 466.509 240.903 467.524 240.268C468.78 239.534 470.446 238.85 472.524 238.214C474.601 237.529 476.945 237.187 479.553 237.187C483.95 237.187 487.404 238.214 489.917 240.268C492.477 242.273 493.757 245.402 493.757 249.656ZM464.77 253.104H470.567V271.881C470.326 271.979 469.963 272.077 469.48 272.175C468.997 272.321 468.466 272.395 467.886 272.395C466.871 272.395 466.098 272.199 465.567 271.808C465.035 271.368 464.77 270.683 464.77 269.754V253.104ZM487.96 253.104H493.757V271.881C493.516 271.979 493.129 272.077 492.598 272.175C492.115 272.321 491.608 272.395 491.076 272.395C490.013 272.395 489.216 272.199 488.685 271.808C488.201 271.368 487.96 270.683 487.96 269.754V253.104Z" fill="#E2DBD5"/>
<path d="M520.122 242.101C516.837 242.101 514.107 243.226 511.933 245.475C509.759 247.725 508.672 250.952 508.672 255.158C508.672 259.314 509.711 262.517 511.788 264.766C513.914 267.016 516.692 268.14 520.122 268.14C522.151 268.14 523.842 267.871 525.195 267.333C526.548 266.747 527.755 266.087 528.818 265.353C529.35 265.646 529.785 266.013 530.123 266.453C530.461 266.893 530.63 267.431 530.63 268.067C530.63 269.436 529.616 270.61 527.586 271.588C525.606 272.517 523.117 272.981 520.122 272.981C516.788 272.981 513.793 272.346 511.136 271.074C508.527 269.754 506.474 267.774 504.976 265.133C503.478 262.492 502.729 259.167 502.729 255.158C502.729 251.197 503.502 247.896 505.048 245.255C506.594 242.566 508.672 240.561 511.281 239.241C513.938 237.872 516.837 237.187 519.977 237.187C522.973 237.187 525.436 237.7 527.369 238.727C529.35 239.754 530.34 240.928 530.34 242.248C530.34 242.835 530.171 243.348 529.833 243.788C529.495 244.229 529.06 244.571 528.529 244.815C527.466 244.082 526.282 243.446 524.978 242.908C523.721 242.37 522.103 242.101 520.122 242.101Z" fill="#E2DBD5"/>
<path d="M540.473 258.825L540.183 254.204L562.069 251.197C561.875 248.507 560.958 246.307 559.315 244.595C557.672 242.835 555.402 241.955 552.503 241.955C549.507 241.955 547.019 243.055 545.038 245.255C543.106 247.407 542.14 250.512 542.14 254.571V256.184C542.478 260.096 543.734 263.079 545.908 265.133C548.13 267.138 551.15 268.14 554.967 268.14C556.996 268.14 558.832 267.798 560.474 267.113C562.117 266.429 563.421 265.695 564.388 264.913C564.919 265.255 565.33 265.671 565.62 266.16C565.958 266.6 566.127 267.113 566.127 267.7C566.127 268.629 565.596 269.51 564.533 270.341C563.518 271.123 562.141 271.759 560.402 272.248C558.711 272.737 556.803 272.981 554.677 272.981C550.957 272.981 547.72 272.297 544.966 270.928C542.26 269.558 540.159 267.529 538.661 264.84C537.212 262.101 536.487 258.776 536.487 254.864C536.487 252.077 536.874 249.607 537.647 247.456C538.468 245.255 539.579 243.397 540.98 241.881C542.43 240.365 544.145 239.216 546.125 238.434C548.106 237.603 550.256 237.187 552.575 237.187C555.522 237.187 558.107 237.823 560.329 239.094C562.6 240.365 564.364 242.15 565.62 244.449C566.924 246.698 567.576 249.29 567.576 252.224C567.576 253.299 567.335 254.082 566.852 254.571C566.369 255.011 565.692 255.28 564.823 255.378L540.473 258.825Z" fill="#E2DBD5"/>
<path d="M600 263.006C600 266.135 598.865 268.58 596.594 270.341C594.323 272.101 591.038 272.981 586.738 272.981C583.066 272.981 580.071 272.419 577.752 271.294C575.433 270.121 574.274 268.849 574.274 267.48C574.274 266.893 574.418 266.331 574.708 265.793C575.047 265.206 575.53 264.742 576.158 264.4C577.462 265.329 578.984 266.184 580.723 266.967C582.463 267.749 584.443 268.14 586.666 268.14C591.69 268.14 594.203 266.429 594.203 263.006C594.203 261.588 593.768 260.439 592.898 259.558C592.077 258.629 590.845 257.969 589.202 257.578L583.187 255.964C580.24 255.231 578.09 254.106 576.738 252.59C575.385 251.026 574.708 249.094 574.708 246.796C574.708 244.204 575.747 241.955 577.825 240.048C579.902 238.141 583.067 237.187 587.318 237.187C589.589 237.187 591.57 237.431 593.261 237.92C594.951 238.361 596.256 238.972 597.174 239.754C598.14 240.488 598.623 241.295 598.623 242.175C598.623 242.81 598.454 243.373 598.116 243.862C597.826 244.351 597.415 244.718 596.884 244.962C596.304 244.571 595.555 244.155 594.637 243.715C593.768 243.226 592.729 242.835 591.521 242.541C590.313 242.199 588.985 242.028 587.535 242.028C585.41 242.028 583.695 242.444 582.39 243.275C581.086 244.106 580.433 245.28 580.433 246.796C580.433 247.872 580.796 248.825 581.52 249.656C582.294 250.439 583.501 251.026 585.144 251.417L590.144 252.664C593.43 253.446 595.894 254.693 597.536 256.404C599.179 258.067 600 260.268 600 263.006Z" fill="#E2DBD5"/>
<path d="M16.0372 194.064C18.9836 194.064 100.48 194.064 118.91 194.064C120.973 194.064 122.59 195.737 122.59 197.8C122.59 199.863 120.969 201.535 118.906 201.535C100.708 201.535 21.0907 201.535 16.0372 201.535C10.3291 201.535 12.7144 194.064 16.0372 194.064ZM11.5523 198.821C11.5523 196.194 13.6819 194.064 16.3091 194.064C18.9362 194.064 21.0659 196.194 21.0659 198.821V217.7C21.0659 221.775 20.8847 226.212 20.5222 231.011C20.1598 235.811 19.4803 240.701 18.4836 245.681C17.5775 250.571 16.2185 255.371 14.4063 260.08C13.0641 263.751 11.3914 267.175 9.38824 270.351C8.55569 271.671 6.5914 271.724 5.43635 270.675C4.5303 269.86 3.53363 269.09 2.44636 268.366C1.1705 267.438 0.790659 265.623 1.62747 264.286C4.25412 260.09 6.2486 255.609 7.6109 250.843C9.2418 245.047 10.2838 239.252 10.7368 233.456C11.2804 227.661 11.5523 222.363 11.5523 217.564V198.821ZM60.2076 190.603C60.2076 188.164 62.1852 186.186 64.6247 186.186C67.0641 186.186 69.0417 188.164 69.0417 190.603V193.858C69.0417 196.298 67.0641 198.275 64.6247 198.275C62.1852 198.275 60.2076 196.298 60.2076 193.858V190.603ZM43.7626 200.177C43.7626 192.298 53.0045 195.015 53.0045 200.177C53.0044 205.339 53.0045 228.43 53.0045 229.381C53.0045 230.332 43.7626 231.147 43.7626 229.381C43.7626 227.616 43.7626 208.055 43.7626 200.177ZM76.7885 200.177C76.7885 192.298 86.0303 193.657 86.0303 200.177C86.0303 206.697 86.0303 228.43 86.0303 229.381C86.0303 230.332 76.7885 230.332 76.7885 229.381C76.7885 228.43 76.7885 208.055 76.7885 200.177ZM35.744 245.613C35.744 243.625 37.3556 242.014 39.3436 242.014H64.8984C66.8865 242.014 68.4981 243.625 68.4981 245.613C68.4981 247.601 66.8865 249.213 64.8984 249.213H39.3436C37.3556 249.213 35.744 247.601 35.744 245.613ZM18.212 267.078C17.987 264.866 19.602 262.893 21.8149 262.683C27.484 262.146 34.0298 261.549 41.4522 260.895C49.3672 260.119 57.4483 259.311 65.6956 258.469C67.9217 258.241 69.8571 259.988 69.8571 262.225C69.8571 264.168 68.3831 265.793 66.4501 265.985C58.3649 266.789 50.3494 267.628 42.4036 268.502C35.1236 269.31 28.5299 270.029 22.6226 270.658C20.4141 270.894 18.4368 269.287 18.212 267.078ZM112.11 237.353C113.538 236.824 115.153 237.103 116.275 238.133C118.456 240.135 117.706 243.72 114.87 244.57C113 245.131 111.042 245.683 108.999 246.225C104.559 247.311 99.9836 248.308 95.2721 249.213C91.6959 249.914 85.5149 250.994 82.9028 251.447C82.1085 251.585 81.2557 251.491 80.686 250.92C80.3009 250.535 79.9785 250.026 80.1029 249.462C80.2481 248.804 80.4932 248.013 80.1849 247.414C79.6919 246.457 80.2695 245.321 81.3269 245.116C84.8571 244.43 88.4183 243.713 92.0103 242.965C96.45 241.969 100.618 240.927 104.514 239.841C107.403 238.987 109.935 238.158 112.11 237.353ZM74.478 232.234C74.478 225.17 83.9917 225.17 83.9917 232.234C83.9917 239.297 83.9917 259.129 83.9917 259.129C83.9917 260.85 84.3994 261.936 85.2149 262.389C86.1209 262.932 88.0689 263.204 91.0589 263.204C91.6932 263.204 92.9617 263.204 94.8644 263.204C96.8577 263.204 98.9869 263.204 101.252 263.204C103.608 263.204 105.782 263.204 107.776 263.204C109.769 263.204 111.219 263.204 112.125 263.204C113.756 263.204 114.979 262.887 115.794 262.253C116.7 261.619 117.289 260.397 117.561 258.586C117.763 257.576 117.937 256.27 118.083 254.669C118.264 252.682 120.473 251.442 122.318 252.201C124.752 253.147 126.547 255.51 126.177 258.094C125.819 260.592 125.348 262.657 124.764 264.291C123.949 266.826 122.635 268.547 120.823 269.452C119.011 270.449 116.474 270.947 113.212 270.947C112.668 270.947 111.626 270.947 110.086 270.947C108.546 270.947 106.734 270.947 104.65 270.947C102.656 270.947 100.618 270.947 98.5339 270.947C96.5406 270.947 94.7738 270.947 93.2335 270.947C91.6932 270.947 90.6512 270.947 90.1076 270.947C86.0303 270.947 82.8138 270.63 80.458 269.996C78.1929 269.362 76.6073 268.185 75.7012 266.464C74.8858 264.743 74.478 262.298 74.478 259.129C74.478 259.129 74.478 239.297 74.478 232.234ZM16.3091 212.538C16.3091 210.587 17.8903 209.006 19.8408 209.006H106.899C113.463 209.006 118.784 214.327 118.784 220.892C118.784 227.456 113.463 232.777 106.899 232.777H19.7728C17.8598 232.777 16.3091 231.226 16.3091 229.313C16.3091 227.4 17.8598 225.85 19.7728 225.85H104.381C107.081 225.85 109.271 223.66 109.271 220.96C109.271 218.259 107.081 216.07 104.381 216.07H19.8408C17.8903 216.07 16.3091 214.488 16.3091 212.538ZM30.5795 232.234C30.5795 225.17 40.0931 225.17 40.0931 232.234C40.0931 237.495 40.0931 253.157 40.0931 260.806C40.0931 263.25 38.2412 265.291 35.8094 265.534C33.0092 265.814 30.5795 263.617 30.5795 260.803C30.5795 252.641 30.5795 237.324 30.5795 232.234ZM6.79544 155.963C6.79544 153.975 8.40704 152.363 10.3951 152.363H57.5594C59.5474 152.363 61.159 153.975 61.159 155.963C61.159 157.951 59.5474 159.562 57.5594 159.562H10.3951C8.40704 159.562 6.79544 157.951 6.79544 155.963ZM67.9544 155.963C67.9544 153.975 69.566 152.363 71.554 152.363H119.262C121.25 152.363 122.862 153.975 122.862 155.963C122.862 157.951 121.25 159.562 119.262 159.562H71.554C69.566 159.562 67.9544 157.951 67.9544 155.963ZM11.2804 178.172C11.2804 171.345 16.8146 165.811 23.6414 165.811H46.0798C52.8315 165.811 58.3049 171.284 58.3049 178.036V185.708C58.3049 188.223 56.2665 190.261 53.7519 190.261C51.2374 190.261 49.199 188.223 49.199 185.708V181.228C49.199 176.239 45.1548 172.195 40.166 172.195H29.4192C24.3554 172.195 20.2504 176.3 20.2504 181.364V186.048C20.2504 188.525 18.2424 190.533 15.7654 190.533C13.2884 190.533 11.2804 188.525 11.2804 186.048V178.172ZM71.0803 178.172C71.0803 171.345 76.6145 165.811 83.4413 165.811H106.831C113.583 165.811 119.056 171.284 119.056 178.036V185.64C119.056 188.192 116.987 190.261 114.435 190.261C111.883 190.261 109.814 188.192 109.814 185.64V181.228C109.814 176.239 105.77 172.195 100.781 172.195H89.2191C84.1553 172.195 80.0503 176.3 80.0503 181.364V186.048C80.0503 188.525 78.0423 190.533 75.5653 190.533C73.0883 190.533 71.0803 188.525 71.0803 186.048V178.172ZM28.9545 180.962C27.4421 179.45 27.4715 176.931 29.1251 175.575C30.3724 174.552 32.1709 174.522 33.3792 175.591C34.7308 176.786 36.0627 178.099 37.3749 179.53C38.4839 180.638 39.4518 181.696 40.2785 182.701C41.4233 184.094 41.1135 186.104 39.7421 187.274C38.0628 188.707 35.4878 188.324 34.0882 186.617C33.4423 185.83 32.7258 185.007 31.9386 184.148C30.9439 183.019 29.9492 181.957 28.9545 180.962ZM89.0458 181.013C87.4227 179.558 87.346 176.965 89.0105 175.557C90.2111 174.542 91.9579 174.478 93.1758 175.472C94.6045 176.639 96.0734 177.946 97.5826 179.394C98.8519 180.561 99.9364 181.672 100.836 182.725C101.956 184.037 101.709 185.954 100.458 187.141C98.8207 188.693 96.155 188.388 94.6696 186.689C93.9548 185.872 93.159 185.025 92.2821 184.148C91.2033 183.025 90.1246 181.98 89.0458 181.013Z" fill="#E2DBD5"/>
<path d="M54.3635 17.0585C54.3635 14.6187 56.3413 12.6409 58.7811 12.6409H120.075C122.515 12.6409 124.493 14.6187 124.493 17.0585C124.493 19.4982 122.515 21.476 120.075 21.476H58.7811C56.3413 21.476 54.3635 19.4982 54.3635 17.0585ZM51.3735 57.224C51.3735 54.7467 53.3818 52.7385 55.859 52.7385H122.182C124.659 52.7385 126.667 54.7467 126.667 57.224C126.667 59.7013 124.659 61.7095 122.182 61.7095H55.859C53.3818 61.7095 51.3735 59.7013 51.3735 57.224ZM85.1959 4.84997C85.4079 2.14206 87.6288 0 90.345 0C93.297 0 95.6343 2.51335 95.316 5.44809C94.7744 10.4411 94.0349 15.0135 93.0976 19.1653C91.9197 24.6929 89.9717 29.5408 87.2535 33.7091C84.5353 37.8775 80.7299 41.4115 75.8371 44.3112C71.9214 46.6319 67.048 48.6334 61.217 50.3157C58.6343 51.0608 55.9135 49.6335 54.3635 47.4375C53.2693 45.7959 54.0267 43.1075 55.9268 42.5766C60.8746 41.1941 65.0198 39.5975 68.3622 37.7869C72.7112 35.3402 76.0637 32.3952 78.4194 28.9518C80.8658 25.4178 82.5873 21.2948 83.5839 16.5827C84.3177 13.1138 84.855 9.20288 85.1959 4.84997ZM87.1738 33.9873C84.3905 32.7417 83.562 29.0995 85.6504 26.8776C86.8625 25.5879 88.7446 25.17 90.372 25.8656C93.7611 27.3142 97.2066 28.932 100.708 30.7188C105.239 32.9842 109.588 35.2949 113.756 37.6509C115.985 38.911 118.006 40.1192 119.821 41.2755C122.17 42.7728 122.547 45.9809 120.74 48.1017C119.104 50.0228 116.262 50.3417 114.168 48.9336C112.175 47.5942 109.954 46.1893 107.504 44.719C103.427 42.2724 99.0775 39.871 94.4566 37.515C91.9887 36.2315 89.561 35.0556 87.1738 33.9873ZM107.096 61.0973C107.096 58.4326 109.256 56.2725 111.921 56.2725C114.586 56.2725 116.746 58.4326 116.746 61.0973V114.312C116.746 117.121 116.383 119.251 115.658 120.7C114.934 122.15 113.484 123.192 111.309 123.827C109.316 124.552 106.598 125.005 103.155 125.186C100.787 125.311 97.9902 125.392 94.7651 125.431C92.0928 125.464 89.8082 123.48 88.8844 120.972C88.1241 118.908 89.6557 116.573 91.855 116.603C92.7932 116.616 93.7057 116.623 94.5926 116.623C96.9483 116.623 98.9869 116.623 100.708 116.623C102.43 116.623 103.653 116.623 104.378 116.623C104.449 116.616 104.518 116.609 104.586 116.601C105.892 116.45 107.096 115.49 107.096 114.176V61.0973ZM62.6869 78.3256C59.0244 76.2906 60.4782 70.7147 64.6681 70.7272L85.3698 70.7886C90.543 70.804 94.7285 75.0019 94.7285 80.1751V88.0125C94.7285 96.6069 87.7613 103.574 79.1669 103.574H67.5471C65.3701 103.574 63.6053 101.809 63.6053 99.6323C63.6053 97.4553 65.3701 95.6905 67.5471 95.6905H77.603C82.2573 95.6905 86.0303 91.9174 86.0303 87.2632C86.0303 82.6089 82.2573 78.8359 77.603 78.8359H64.656C63.967 78.8359 63.2892 78.6603 62.6869 78.3256ZM59.7999 74.9621C59.7999 72.6618 61.645 70.7866 63.9451 70.7495C66.2983 70.7116 68.2262 72.6087 68.2262 74.9621V107.788C68.2262 110.115 66.3399 112.001 64.0131 112.001C61.6862 112.001 59.7999 110.115 59.7999 107.788V74.9621ZM21.4286 4.29451C22.3993 1.95128 25.0443 0.734845 27.4161 1.63337C29.9177 2.58104 31.0682 5.47357 29.8428 7.8515C28.8324 9.81237 27.7642 11.8166 26.6381 13.8642C24.7354 17.4889 22.7874 21.0229 20.7941 24.4663C19.5271 26.6989 18.3003 28.7506 17.1136 30.6216C16.1199 32.1884 14.1242 32.7557 12.4274 32.0051C10.2605 31.0466 9.47048 28.3719 10.6594 26.3224C11.623 24.6611 12.6002 22.8644 13.5909 20.9323C15.4936 17.3983 17.2604 13.7736 18.8913 10.0584C19.8317 8.02893 20.6774 6.10765 21.4286 4.29451ZM36.2881 19.4367C37.448 17.2623 40.1077 16.3437 42.3327 17.4033C44.7642 18.5614 45.6525 21.5751 44.2119 23.8507C41.8487 27.5835 39.298 31.5039 36.5595 35.6121C32.754 41.2303 28.9033 46.6672 25.0072 51.923C21.8893 56.2291 18.893 60.0791 16.0184 63.4728C14.933 64.7543 13.089 65.0602 11.627 64.2338C9.68394 63.1354 9.22143 60.5396 10.6191 58.7994C12.3229 56.678 14.0837 54.3859 15.9013 51.923C18.7101 48.0265 21.4736 43.9941 24.1918 39.8257C26.91 35.5668 29.4922 31.3531 31.9386 27.1848C33.5211 24.4883 34.9709 21.9056 36.2881 19.4367ZM4.28795 31.1784C2.73232 29.589 2.57335 27.0808 3.97566 25.3546C5.5123 23.4632 8.32146 23.2312 10.0693 24.9294C11.4244 26.246 12.7794 27.6321 14.1345 29.0877C16.6715 31.7156 18.9819 34.2981 21.0659 36.8354C23.1498 39.3726 24.0069 40.1089 25.9586 43.7675C27.9102 47.4262 21.4283 53.554 20.2504 51.3793C19.0725 49.2045 15.3577 44.0394 15.3577 44.0394C15.3577 44.0394 11.1445 38.6024 8.69817 35.8839C7.21136 34.2317 5.74129 32.6632 4.28795 31.1784ZM35.4709 50.7494C34.2667 48.5669 35.1664 45.7656 37.4808 44.8398C39.2379 44.1368 41.2551 44.7642 42.2315 46.3854C43.5101 48.5088 44.7454 50.7624 45.9372 53.1463C47.6587 56.5897 49.199 59.9425 50.5581 63.2046C51.3756 64.9931 52.0634 66.6663 52.6216 68.2243C53.3196 70.1723 52.3234 72.2669 50.4484 73.1421C47.9377 74.3138 44.9667 72.8345 44.0593 70.2166C43.658 69.0586 43.1967 67.854 42.6754 66.6027C41.4069 63.2499 39.9572 59.8519 38.3263 56.4084C37.4168 54.4376 36.4649 52.5512 35.4709 50.7494ZM0.932936 65.0006C0.577537 62.3546 2.56519 59.9725 5.23221 59.8505C9.97208 59.6336 15.2953 59.3924 21.2018 59.1269C27.9036 58.7546 34.7278 58.3822 41.6744 58.0098C44.1388 57.8777 46.209 59.8408 46.209 62.3087C46.209 64.573 44.4552 66.4505 42.1961 66.6048C35.5744 67.0572 28.984 67.5096 22.425 67.962C16.3591 68.3147 10.7874 68.6399 5.70982 68.9377C3.33266 69.0771 1.24992 67.3606 0.932936 65.0006ZM38.2803 83.5877C37.4879 81.3973 38.6552 78.9453 40.8918 78.2946C42.7688 77.7485 44.7679 78.6729 45.4906 80.4893C46.6893 83.5018 47.7895 86.7112 48.7913 90.1176C49.7267 93.236 50.4475 96.0754 50.9537 98.6357C51.3302 100.54 50.1645 102.376 48.3168 102.971C45.8537 103.765 43.2786 102.048 42.7913 99.507C42.3729 97.325 41.7906 94.9654 41.0445 92.4283C40.2029 89.3019 39.2815 86.3551 38.2803 83.5877ZM7.95941 82.1559C8.32137 79.7517 10.5546 78.0648 12.9558 78.446C15.2698 78.8133 16.8684 80.9684 16.4841 83.2797C15.6514 88.2878 14.5964 93.2402 13.3191 98.1371C12.0503 103.213 10.597 107.674 8.95933 111.52C8.41809 112.791 6.82991 113.253 5.57226 112.681C4.5756 112.137 3.57893 111.639 2.58227 111.186C1.23441 110.573 0.634215 108.938 1.26183 107.597C2.94826 103.994 4.33977 99.8888 5.43635 95.2827C6.4558 90.9326 7.29682 86.557 7.95941 82.1559ZM22.9686 68.6411C22.9686 66.1641 24.9766 64.1561 27.4536 64.1561C29.9306 64.1561 31.9386 66.1641 31.9386 68.6411V120.565C31.9386 123.042 29.9306 125.05 27.4536 125.05C24.9766 125.05 22.9686 123.042 22.9686 120.565V68.6411Z" fill="#E2DBD5"/>
</svg>
