<svg width="472" height="338" viewBox="0 0 472 338" fill="none" xmlns="http://www.w3.org/2000/svg">
<path d="M160.552 252.972C157.968 252.972 154.624 252.516 150.52 251.604C146.568 250.692 142.388 249.172 137.98 247.044C133.724 244.916 129.848 242.028 126.352 238.38L65.476 176.136C64.564 183.736 63.804 191.26 63.196 198.708C62.588 206.156 62.056 212.768 61.6 218.544C61.448 219.912 60.916 220.824 60.004 221.28C59.092 221.736 57.952 221.964 56.584 221.964C54.152 221.964 51.34 221.584 48.148 220.824C45.108 220.064 42.144 218.62 39.256 216.492C36.368 214.212 34.088 211.02 32.416 206.916C30.744 202.66 30.136 197.036 30.592 190.044C31.2 181.988 31.884 172.564 32.644 161.772C33.404 150.98 34.088 139.504 34.696 127.344C35.304 115.184 35.836 103.024 36.292 90.864C36.748 78.704 36.976 67.228 36.976 56.436C37.28 55.22 38.192 54.384 39.712 53.928C41.232 53.32 42.98 53.016 44.956 53.016C48.604 53.016 52.328 53.928 56.128 55.752C60.08 57.424 63.348 60.388 65.932 64.644C68.668 68.748 70.036 74.524 70.036 81.972C70.036 88.508 69.732 95.652 69.124 103.404C68.516 111.004 67.984 119.212 67.528 128.028C75.128 119.668 82.272 110.928 88.96 101.808C95.648 92.688 101.576 83.872 106.744 75.36C112.064 66.848 116.32 59.324 119.512 52.788C127.872 52.788 133.648 54.84 136.84 58.944C140.184 63.048 141.856 68.672 141.856 75.816C141.856 79.616 140.26 84.404 137.068 90.18C133.876 95.804 129.544 101.96 124.072 108.648C118.752 115.336 112.748 122.252 106.06 129.396C99.372 136.54 92.532 143.532 85.54 150.372L163.06 245.448C164.124 246.664 164.656 247.956 164.656 249.324C164.656 251.756 163.288 252.972 160.552 252.972ZM179.85 222.192C175.898 222.192 171.718 221.432 167.31 219.912C163.054 218.392 159.406 216.188 156.366 213.3C153.478 210.412 152.034 206.916 152.034 202.812C152.034 200.38 152.186 196.048 152.49 189.816C152.794 183.584 153.174 176.364 153.63 168.156C154.086 159.796 154.618 151.208 155.226 142.392C155.834 133.424 156.518 124.912 157.278 116.856C158.038 108.8 158.722 101.96 159.33 96.336C159.482 95.12 160.242 94.36 161.61 94.056C162.978 93.6 164.118 93.372 165.03 93.372C168.526 93.372 172.402 94.36 176.658 96.336C180.914 98.312 184.562 100.82 187.602 103.86C190.794 106.9 192.39 110.092 192.39 113.436C192.39 115.412 192.086 119.364 191.478 125.292C190.87 131.068 190.11 137.984 189.198 146.04C188.438 154.096 187.602 162.532 186.69 171.348C185.93 180.164 185.246 188.752 184.638 197.112C184.03 205.32 183.726 212.464 183.726 218.544C183.726 219.304 183.422 220.064 182.814 220.824C182.206 221.736 181.218 222.192 179.85 222.192ZM183.042 70.8C178.026 70.8 173.39 70.268 169.134 69.204C165.03 67.988 161.762 65.86 159.33 62.82C157.05 59.78 156.062 55.448 156.366 49.824C156.67 46.936 157.05 43.82 157.506 40.476C158.114 36.98 160.09 34.852 163.434 34.092C165.258 33.788 167.462 33.56 170.046 33.408C172.63 33.256 174.91 33.18 176.886 33.18C181.142 33.18 185.854 33.864 191.022 35.232C193.606 35.84 194.898 36.828 194.898 38.196C194.898 41.692 194.366 45.796 193.302 50.508C192.238 55.22 191.098 61.68 189.882 69.888C187.45 70.496 185.17 70.8 183.042 70.8ZM243.637 223.56C239.229 223.56 234.745 222.344 230.185 219.912C225.625 217.48 221.673 214.212 218.329 210.108C215.137 205.852 213.313 201.064 212.857 195.744C212.401 190.88 212.021 185.028 211.717 178.188C211.413 171.348 211.261 163.976 211.261 156.072C211.261 144.976 211.641 133.424 212.401 121.416C213.313 109.408 214.909 98.084 217.189 87.444C217.949 84.252 219.241 82.656 221.065 82.656C224.865 82.656 228.893 83.644 233.149 85.62C237.557 87.596 241.281 90.104 244.321 93.144C247.361 96.032 248.881 98.996 248.881 102.036C248.881 103.708 248.729 106.064 248.425 109.104C248.121 111.992 247.893 116.324 247.741 122.1H248.197C249.109 117.236 250.857 112.068 253.441 106.596C256.177 100.972 259.597 96.184 263.701 92.232C267.805 88.128 272.441 86.076 277.609 86.076C281.257 90.332 284.145 95.88 286.273 102.72C288.401 109.56 289.541 116.4 289.693 123.24C281.789 125.064 274.797 127.876 268.717 131.676C262.789 135.324 256.785 140.34 250.705 146.724C248.729 154.628 247.209 163.064 246.145 172.032C245.233 180.848 244.549 189.208 244.093 197.112C243.789 204.864 243.637 211.248 243.637 216.264C243.637 221.128 243.637 223.56 243.637 223.56ZM327.291 221.736C323.035 221.736 318.703 220.444 314.295 217.86C310.039 215.124 306.011 211.552 302.211 207.144C298.563 202.584 295.599 197.568 293.319 192.096C291.039 186.624 289.899 181.152 289.899 175.68C289.899 164.888 291.419 154.172 294.459 143.532C297.651 132.892 301.983 123.24 307.455 114.576C313.079 105.912 319.691 98.996 327.291 93.828C334.891 88.66 343.099 86.076 351.915 86.076C355.867 86.076 360.199 87.292 364.911 89.724C369.623 92.004 373.043 95.424 375.171 99.984C380.947 102.72 385.203 106.824 387.939 112.296C390.675 117.768 391.739 122.784 391.131 127.344C390.675 130.992 389.079 135.172 386.343 139.884C383.607 144.444 380.111 149.156 375.855 154.02C371.599 158.732 366.887 163.14 361.719 167.244C356.551 171.196 351.231 174.464 345.759 177.048C340.439 179.48 335.271 180.696 330.255 180.696C328.431 180.696 326.455 180.088 324.327 178.872C324.783 183.736 326.151 187.232 328.431 189.36C330.863 191.336 334.055 192.324 338.007 192.324C343.783 192.324 350.167 190.272 357.159 186.168C364.151 182.064 371.599 176.592 379.503 169.752C382.999 171.424 385.659 173.628 387.483 176.364C389.307 178.948 389.991 182.216 389.535 186.168C388.927 190.728 386.495 195.136 382.239 199.392C378.135 203.496 372.891 207.296 366.507 210.792C360.275 214.136 353.663 216.796 346.671 218.772C339.831 220.748 333.371 221.736 327.291 221.736ZM361.263 111.156C355.335 111.46 349.939 114.196 345.075 119.364C340.211 124.532 336.107 130.916 332.763 138.516C329.419 145.964 326.987 153.412 325.467 160.86C330.483 159.796 335.195 157.212 339.603 153.108C344.163 148.852 348.115 144.064 351.459 138.744C354.955 133.272 357.615 128.028 359.439 123.012C361.263 117.844 361.871 113.892 361.263 111.156ZM433.456 222.192C429.504 222.192 425.324 221.432 420.916 219.912C416.66 218.392 413.012 216.188 409.972 213.3C407.084 210.412 405.64 206.916 405.64 202.812C405.64 200.38 405.792 196.048 406.096 189.816C406.4 183.584 406.78 176.364 407.236 168.156C407.692 159.796 408.224 151.208 408.832 142.392C409.44 133.424 410.124 124.912 410.884 116.856C411.644 108.8 412.328 101.96 412.936 96.336C413.088 95.12 413.848 94.36 415.216 94.056C416.584 93.6 417.724 93.372 418.636 93.372C422.132 93.372 426.008 94.36 430.264 96.336C434.52 98.312 438.168 100.82 441.208 103.86C444.4 106.9 445.996 110.092 445.996 113.436C445.996 115.412 445.692 119.364 445.084 125.292C444.476 131.068 443.716 137.984 442.804 146.04C442.044 154.096 441.208 162.532 440.296 171.348C439.536 180.164 438.852 188.752 438.244 197.112C437.636 205.32 437.332 212.464 437.332 218.544C437.332 219.304 437.028 220.064 436.42 220.824C435.812 221.736 434.824 222.192 433.456 222.192ZM436.648 70.8C431.632 70.8 426.996 70.268 422.74 69.204C418.636 67.988 415.368 65.86 412.936 62.82C410.656 59.78 409.668 55.448 409.972 49.824C410.276 46.936 410.656 43.82 411.112 40.476C411.72 36.98 413.696 34.852 417.04 34.092C418.864 33.788 421.068 33.56 423.652 33.408C426.236 33.256 428.516 33.18 430.492 33.18C434.748 33.18 439.46 33.864 444.628 35.232C447.212 35.84 448.504 36.828 448.504 38.196C448.504 41.692 447.972 45.796 446.908 50.508C445.844 55.22 444.704 61.68 443.488 69.888C441.056 70.496 438.776 70.8 436.648 70.8Z" fill="#0D0D0D"/>
<path d="M165.248 284.32L164.944 279.532L187.896 276.416C187.693 273.629 186.73 271.349 185.008 269.576C183.285 267.752 180.904 266.84 177.864 266.84C174.722 266.84 172.113 267.98 170.036 270.26C168.009 272.489 166.996 275.707 166.996 279.912V281.584C167.35 285.637 168.668 288.728 170.948 290.856C173.278 292.933 176.445 293.972 180.448 293.972C182.576 293.972 184.501 293.617 186.224 292.908C187.946 292.199 189.314 291.439 190.328 290.628C190.885 290.983 191.316 291.413 191.62 291.92C191.974 292.376 192.152 292.908 192.152 293.516C192.152 294.479 191.594 295.391 190.48 296.252C189.416 297.063 187.972 297.721 186.148 298.228C184.374 298.735 182.373 298.988 180.144 298.988C176.242 298.988 172.848 298.279 169.96 296.86C167.122 295.441 164.918 293.339 163.348 290.552C161.828 287.715 161.068 284.269 161.068 280.216C161.068 277.328 161.473 274.769 162.284 272.54C163.145 270.26 164.31 268.335 165.78 266.764C167.3 265.193 169.098 264.003 171.176 263.192C173.253 262.331 175.508 261.9 177.94 261.9C181.03 261.9 183.741 262.559 186.072 263.876C188.453 265.193 190.302 267.043 191.62 269.424C192.988 271.755 193.672 274.44 193.672 277.48C193.672 278.595 193.418 279.405 192.912 279.912C192.405 280.368 191.696 280.647 190.784 280.748L165.248 284.32ZM227.675 288.652C227.675 291.895 226.485 294.428 224.103 296.252C221.722 298.076 218.277 298.988 213.767 298.988C209.917 298.988 206.775 298.405 204.343 297.24C201.911 296.024 200.695 294.707 200.695 293.288C200.695 292.68 200.847 292.097 201.151 291.54C201.506 290.932 202.013 290.451 202.671 290.096C204.039 291.059 205.635 291.945 207.459 292.756C209.283 293.567 211.361 293.972 213.691 293.972C218.961 293.972 221.595 292.199 221.595 288.652C221.595 287.183 221.139 285.992 220.227 285.08C219.366 284.117 218.074 283.433 216.351 283.028L210.043 281.356C206.953 280.596 204.698 279.431 203.279 277.86C201.861 276.239 201.151 274.237 201.151 271.856C201.151 269.171 202.241 266.84 204.419 264.864C206.598 262.888 209.917 261.9 214.375 261.9C216.757 261.9 218.834 262.153 220.607 262.66C222.381 263.116 223.749 263.749 224.711 264.56C225.725 265.32 226.231 266.156 226.231 267.068C226.231 267.727 226.054 268.309 225.699 268.816C225.395 269.323 224.965 269.703 224.407 269.956C223.799 269.551 223.014 269.12 222.051 268.664C221.139 268.157 220.05 267.752 218.783 267.448C217.517 267.093 216.123 266.916 214.603 266.916C212.374 266.916 210.575 267.347 209.207 268.208C207.839 269.069 207.155 270.285 207.155 271.856C207.155 272.971 207.535 273.959 208.295 274.82C209.106 275.631 210.373 276.239 212.095 276.644L217.339 277.936C220.785 278.747 223.369 280.039 225.091 281.812C226.814 283.535 227.675 285.815 227.675 288.652ZM261.667 288.652C261.667 291.895 260.477 294.428 258.095 296.252C255.714 298.076 252.269 298.988 247.759 298.988C243.909 298.988 240.767 298.405 238.335 297.24C235.903 296.024 234.687 294.707 234.687 293.288C234.687 292.68 234.839 292.097 235.143 291.54C235.498 290.932 236.005 290.451 236.663 290.096C238.031 291.059 239.627 291.945 241.451 292.756C243.275 293.567 245.353 293.972 247.683 293.972C252.953 293.972 255.587 292.199 255.587 288.652C255.587 287.183 255.131 285.992 254.219 285.08C253.358 284.117 252.066 283.433 250.343 283.028L244.035 281.356C240.945 280.596 238.69 279.431 237.271 277.86C235.853 276.239 235.143 274.237 235.143 271.856C235.143 269.171 236.233 266.84 238.411 264.864C240.59 262.888 243.909 261.9 248.367 261.9C250.749 261.9 252.826 262.153 254.599 262.66C256.373 263.116 257.741 263.749 258.703 264.56C259.717 265.32 260.223 266.156 260.223 267.068C260.223 267.727 260.046 268.309 259.691 268.816C259.387 269.323 258.957 269.703 258.399 269.956C257.791 269.551 257.006 269.12 256.043 268.664C255.131 268.157 254.042 267.752 252.775 267.448C251.509 267.093 250.115 266.916 248.595 266.916C246.366 266.916 244.567 267.347 243.199 268.208C241.831 269.069 241.147 270.285 241.147 271.856C241.147 272.971 241.527 273.959 242.287 274.82C243.098 275.631 244.365 276.239 246.087 276.644L251.331 277.936C254.777 278.747 257.361 280.039 259.083 281.812C260.806 283.535 261.667 285.815 261.667 288.652ZM273.459 284.32L273.155 279.532L296.107 276.416C295.904 273.629 294.941 271.349 293.219 269.576C291.496 267.752 289.115 266.84 286.075 266.84C282.933 266.84 280.324 267.98 278.247 270.26C276.22 272.489 275.207 275.707 275.207 279.912V281.584C275.561 285.637 276.879 288.728 279.159 290.856C281.489 292.933 284.656 293.972 288.659 293.972C290.787 293.972 292.712 293.617 294.435 292.908C296.157 292.199 297.525 291.439 298.539 290.628C299.096 290.983 299.527 291.413 299.831 291.92C300.185 292.376 300.363 292.908 300.363 293.516C300.363 294.479 299.805 295.391 298.691 296.252C297.627 297.063 296.183 297.721 294.359 298.228C292.585 298.735 290.584 298.988 288.355 298.988C284.453 298.988 281.059 298.279 278.171 296.86C275.333 295.441 273.129 293.339 271.559 290.552C270.039 287.715 269.279 284.269 269.279 280.216C269.279 277.328 269.684 274.769 270.495 272.54C271.356 270.26 272.521 268.335 273.991 266.764C275.511 265.193 277.309 264.003 279.387 263.192C281.464 262.331 283.719 261.9 286.151 261.9C289.241 261.9 291.952 262.559 294.283 263.876C296.664 265.193 298.513 267.043 299.831 269.424C301.199 271.755 301.883 274.44 301.883 277.48C301.883 278.595 301.629 279.405 301.123 279.912C300.616 280.368 299.907 280.647 298.995 280.748L273.459 284.32ZM341.065 274.82V282.572H334.985V275.124C334.985 272.287 334.174 270.209 332.553 268.892C330.982 267.575 328.854 266.916 326.169 266.916C324.142 266.916 322.344 267.169 320.773 267.676C319.202 268.183 317.86 268.765 316.745 269.424V282.572H310.665V269.728C310.665 268.664 310.868 267.803 311.273 267.144C311.729 266.435 312.489 265.751 313.553 265.092C314.87 264.332 316.618 263.623 318.797 262.964C320.976 262.255 323.433 261.9 326.169 261.9C330.78 261.9 334.402 262.964 337.037 265.092C339.722 267.169 341.065 270.412 341.065 274.82ZM310.665 278.392H316.745V297.848C316.492 297.949 316.112 298.051 315.605 298.152C315.098 298.304 314.541 298.38 313.933 298.38C312.869 298.38 312.058 298.177 311.501 297.772C310.944 297.316 310.665 296.607 310.665 295.644V278.392ZM334.985 278.392H341.065V297.848C340.812 297.949 340.406 298.051 339.849 298.152C339.342 298.304 338.81 298.38 338.253 298.38C337.138 298.38 336.302 298.177 335.745 297.772C335.238 297.316 334.985 296.607 334.985 295.644V278.392ZM368.714 266.992C365.269 266.992 362.406 268.157 360.126 270.488C357.846 272.819 356.706 276.163 356.706 280.52C356.706 284.827 357.795 288.145 359.974 290.476C362.203 292.807 365.117 293.972 368.714 293.972C370.842 293.972 372.615 293.693 374.034 293.136C375.453 292.528 376.719 291.844 377.834 291.084C378.391 291.388 378.847 291.768 379.202 292.224C379.557 292.68 379.734 293.237 379.734 293.896C379.734 295.315 378.67 296.531 376.542 297.544C374.465 298.507 371.855 298.988 368.714 298.988C365.218 298.988 362.077 298.329 359.29 297.012C356.554 295.644 354.401 293.592 352.83 290.856C351.259 288.12 350.474 284.675 350.474 280.52C350.474 276.416 351.285 272.996 352.906 270.26C354.527 267.473 356.706 265.396 359.442 264.028C362.229 262.609 365.269 261.9 368.562 261.9C371.703 261.9 374.287 262.432 376.314 263.496C378.391 264.56 379.43 265.776 379.43 267.144C379.43 267.752 379.253 268.284 378.898 268.74C378.543 269.196 378.087 269.551 377.53 269.804C376.415 269.044 375.174 268.385 373.806 267.828C372.489 267.271 370.791 266.992 368.714 266.992ZM390.056 284.32L389.752 279.532L412.704 276.416C412.502 273.629 411.539 271.349 409.816 269.576C408.094 267.752 405.712 266.84 402.672 266.84C399.531 266.84 396.922 267.98 394.844 270.26C392.818 272.489 391.804 275.707 391.804 279.912V281.584C392.159 285.637 393.476 288.728 395.756 290.856C398.087 292.933 401.254 293.972 405.256 293.972C407.384 293.972 409.31 293.617 411.032 292.908C412.755 292.199 414.123 291.439 415.136 290.628C415.694 290.983 416.124 291.413 416.428 291.92C416.783 292.376 416.96 292.908 416.96 293.516C416.96 294.479 416.403 295.391 415.288 296.252C414.224 297.063 412.78 297.721 410.956 298.228C409.183 298.735 407.182 298.988 404.952 298.988C401.051 298.988 397.656 298.279 394.768 296.86C391.931 295.441 389.727 293.339 388.156 290.552C386.636 287.715 385.876 284.269 385.876 280.216C385.876 277.328 386.282 274.769 387.092 272.54C387.954 270.26 389.119 268.335 390.588 266.764C392.108 265.193 393.907 264.003 395.984 263.192C398.062 262.331 400.316 261.9 402.748 261.9C405.839 261.9 408.55 262.559 410.88 263.876C413.262 265.193 415.111 267.043 416.428 269.424C417.796 271.755 418.48 274.44 418.48 277.48C418.48 278.595 418.227 279.405 417.72 279.912C417.214 280.368 416.504 280.647 415.592 280.748L390.056 284.32ZM452.484 288.652C452.484 291.895 451.293 294.428 448.912 296.252C446.53 298.076 443.085 298.988 438.576 298.988C434.725 298.988 431.584 298.405 429.152 297.24C426.72 296.024 425.504 294.707 425.504 293.288C425.504 292.68 425.656 292.097 425.96 291.54C426.314 290.932 426.821 290.451 427.48 290.096C428.848 291.059 430.444 291.945 432.268 292.756C434.092 293.567 436.169 293.972 438.5 293.972C443.769 293.972 446.404 292.199 446.404 288.652C446.404 287.183 445.948 285.992 445.036 285.08C444.174 284.117 442.882 283.433 441.16 283.028L434.852 281.356C431.761 280.596 429.506 279.431 428.088 277.86C426.669 276.239 425.96 274.237 425.96 271.856C425.96 269.171 427.049 266.84 429.228 264.864C431.406 262.888 434.725 261.9 439.184 261.9C441.565 261.9 443.642 262.153 445.416 262.66C447.189 263.116 448.557 263.749 449.52 264.56C450.533 265.32 451.04 266.156 451.04 267.068C451.04 267.727 450.862 268.309 450.508 268.816C450.204 269.323 449.773 269.703 449.216 269.956C448.608 269.551 447.822 269.12 446.86 268.664C445.948 268.157 444.858 267.752 443.592 267.448C442.325 267.093 440.932 266.916 439.412 266.916C437.182 266.916 435.384 267.347 434.016 268.208C432.648 269.069 431.964 270.285 431.964 271.856C431.964 272.971 432.344 273.959 433.104 274.82C433.914 275.631 435.181 276.239 436.904 276.644L442.148 277.936C445.593 278.747 448.177 280.039 449.9 281.812C451.622 283.535 452.484 285.815 452.484 288.652Z" fill="#0D0D0D"/>
</svg>
