<svg width="459" height="160" viewBox="0 0 459 160" fill="none" xmlns="http://www.w3.org/2000/svg">
<path d="M79.4 130.9C78.2667 130.9 76.8 130.7 75 130.3C73.2667 129.9 71.4333 129.233 69.5 128.3C67.6333 127.367 65.9333 126.1 64.4 124.5L37.7 97.2C37.3 100.533 36.9667 103.833 36.7 107.1C36.4333 110.367 36.2 113.267 36 115.8C35.9333 116.4 35.7 116.8 35.3 117C34.9 117.2 34.4 117.3 33.8 117.3C32.7333 117.3 31.5 117.133 30.1 116.8C28.7667 116.467 27.4667 115.833 26.2 114.9C24.9333 113.9 23.9333 112.5 23.2 110.7C22.4667 108.833 22.2 106.367 22.4 103.3C22.6667 99.7667 22.9667 95.6333 23.3 90.9C23.6333 86.1667 23.9333 81.1333 24.2 75.8C24.4667 70.4667 24.7 65.1333 24.9 59.8C25.1 54.4667 25.2 49.4333 25.2 44.7C25.3333 44.1667 25.7333 43.8 26.4 43.6C27.0667 43.3333 27.8333 43.2 28.7 43.2C30.3 43.2 31.9333 43.6 33.6 44.4C35.3333 45.1333 36.7667 46.4333 37.9 48.3C39.1 50.1 39.7 52.6333 39.7 55.9C39.7 58.7667 39.5667 61.9 39.3 65.3C39.0333 68.6333 38.8 72.2333 38.6 76.1C41.9333 72.4333 45.0667 68.6 48 64.6C50.9333 60.6 53.5333 56.7333 55.8 53C58.1333 49.2667 60 45.9667 61.4 43.1C65.0667 43.1 67.6 44 69 45.8C70.4667 47.6 71.2 50.0667 71.2 53.2C71.2 54.8667 70.5 56.9667 69.1 59.5C67.7 61.9667 65.8 64.6667 63.4 67.6C61.0667 70.5333 58.4333 73.5667 55.5 76.7C52.5667 79.8333 49.5667 82.9 46.5 85.9L80.5 127.6C80.9667 128.133 81.2 128.7 81.2 129.3C81.2 130.367 80.6 130.9 79.4 130.9ZM87.8641 117.4C86.1307 117.4 84.2974 117.067 82.3641 116.4C80.4974 115.733 78.8974 114.767 77.5641 113.5C76.2974 112.233 75.6641 110.7 75.6641 108.9C75.6641 107.833 75.7307 105.933 75.8641 103.2C75.9974 100.467 76.1641 97.3 76.3641 93.7C76.5641 90.0333 76.7974 86.2667 77.0641 82.4C77.3307 78.4667 77.6307 74.7333 77.9641 71.2C78.2974 67.6667 78.5974 64.6667 78.8641 62.2C78.9307 61.6667 79.2641 61.3333 79.8641 61.2C80.4641 61 80.9641 60.9 81.3641 60.9C82.8974 60.9 84.5974 61.3333 86.4641 62.2C88.3307 63.0667 89.9307 64.1667 91.2641 65.5C92.6641 66.8333 93.3641 68.2333 93.3641 69.7C93.3641 70.5667 93.2307 72.3 92.9641 74.9C92.6974 77.4333 92.3641 80.4667 91.9641 84C91.6307 87.5333 91.2641 91.2333 90.8641 95.1C90.5307 98.9667 90.2307 102.733 89.9641 106.4C89.6974 110 89.5641 113.133 89.5641 115.8C89.5641 116.133 89.4307 116.467 89.1641 116.8C88.8974 117.2 88.4641 117.4 87.8641 117.4ZM89.2641 51C87.0641 51 85.0307 50.7667 83.1641 50.3C81.3641 49.7667 79.9307 48.8333 78.8641 47.5C77.8641 46.1667 77.4307 44.2667 77.5641 41.8C77.6974 40.5333 77.8641 39.1667 78.0641 37.7C78.3307 36.1667 79.1974 35.2333 80.6641 34.9C81.4641 34.7667 82.4307 34.6667 83.5641 34.6C84.6974 34.5333 85.6974 34.5 86.5641 34.5C88.4307 34.5 90.4974 34.8 92.7641 35.4C93.8974 35.6667 94.4641 36.1 94.4641 36.7C94.4641 38.2333 94.2307 40.0333 93.7641 42.1C93.2974 44.1667 92.7974 47 92.2641 50.6C91.1974 50.8667 90.1974 51 89.2641 51ZM115.841 118C113.907 118 111.941 117.467 109.941 116.4C107.941 115.333 106.207 113.9 104.741 112.1C103.341 110.233 102.541 108.133 102.341 105.8C102.141 103.667 101.974 101.1 101.841 98.1C101.707 95.1 101.641 91.8667 101.641 88.4C101.641 83.5333 101.807 78.4667 102.141 73.2C102.541 67.9333 103.241 62.9667 104.241 58.3C104.574 56.9 105.141 56.2 105.941 56.2C107.607 56.2 109.374 56.6333 111.241 57.5C113.174 58.3667 114.807 59.4667 116.141 60.8C117.474 62.0667 118.141 63.3667 118.141 64.7C118.141 65.4333 118.074 66.4667 117.941 67.8C117.807 69.0667 117.707 70.9667 117.641 73.5H117.841C118.241 71.3667 119.007 69.1 120.141 66.7C121.341 64.2333 122.841 62.1333 124.641 60.4C126.441 58.6 128.474 57.7 130.741 57.7C132.341 59.5667 133.607 62 134.541 65C135.474 68 135.974 71 136.041 74C132.574 74.8 129.507 76.0333 126.841 77.7C124.241 79.3 121.607 81.5 118.941 84.3C118.074 87.7667 117.407 91.4667 116.941 95.4C116.541 99.2667 116.241 102.933 116.041 106.4C115.907 109.8 115.841 112.6 115.841 114.8C115.841 116.933 115.841 118 115.841 118ZM152.531 117.2C150.665 117.2 148.765 116.633 146.831 115.5C144.965 114.3 143.198 112.733 141.531 110.8C139.931 108.8 138.631 106.6 137.631 104.2C136.631 101.8 136.131 99.4 136.131 97C136.131 92.2667 136.798 87.5667 138.131 82.9C139.531 78.2333 141.431 74 143.831 70.2C146.298 66.4 149.198 63.3667 152.531 61.1C155.865 58.8333 159.465 57.7 163.331 57.7C165.065 57.7 166.965 58.2333 169.031 59.3C171.098 60.3 172.598 61.8 173.531 63.8C176.065 65 177.931 66.8 179.131 69.2C180.331 71.6 180.798 73.8 180.531 75.8C180.331 77.4 179.631 79.2333 178.431 81.3C177.231 83.3 175.698 85.3667 173.831 87.5C171.965 89.5667 169.898 91.5 167.631 93.3C165.365 95.0333 163.031 96.4667 160.631 97.6C158.298 98.6667 156.031 99.2 153.831 99.2C153.031 99.2 152.165 98.9333 151.231 98.4C151.431 100.533 152.031 102.067 153.031 103C154.098 103.867 155.498 104.3 157.231 104.3C159.765 104.3 162.565 103.4 165.631 101.6C168.698 99.8 171.965 97.4 175.431 94.4C176.965 95.1333 178.131 96.1 178.931 97.3C179.731 98.4333 180.031 99.8667 179.831 101.6C179.565 103.6 178.498 105.533 176.631 107.4C174.831 109.2 172.531 110.867 169.731 112.4C166.998 113.867 164.098 115.033 161.031 115.9C158.031 116.767 155.198 117.2 152.531 117.2ZM167.431 68.7C164.831 68.8333 162.465 70.0333 160.331 72.3C158.198 74.5667 156.398 77.3667 154.931 80.7C153.465 83.9667 152.398 87.2333 151.731 90.5C153.931 90.0333 155.998 88.9 157.931 87.1C159.931 85.2333 161.665 83.1333 163.131 80.8C164.665 78.4 165.831 76.1 166.631 73.9C167.431 71.6333 167.698 69.9 167.431 68.7ZM199.095 117.4C197.361 117.4 195.528 117.067 193.595 116.4C191.728 115.733 190.128 114.767 188.795 113.5C187.528 112.233 186.895 110.7 186.895 108.9C186.895 107.833 186.961 105.933 187.095 103.2C187.228 100.467 187.395 97.3 187.595 93.7C187.795 90.0333 188.028 86.2667 188.295 82.4C188.561 78.4667 188.861 74.7333 189.195 71.2C189.528 67.6667 189.828 64.6667 190.095 62.2C190.161 61.6667 190.495 61.3333 191.095 61.2C191.695 61 192.195 60.9 192.595 60.9C194.128 60.9 195.828 61.3333 197.695 62.2C199.561 63.0667 201.161 64.1667 202.495 65.5C203.895 66.8333 204.595 68.2333 204.595 69.7C204.595 70.5667 204.461 72.3 204.195 74.9C203.928 77.4333 203.595 80.4667 203.195 84C202.861 87.5333 202.495 91.2333 202.095 95.1C201.761 98.9667 201.461 102.733 201.195 106.4C200.928 110 200.795 113.133 200.795 115.8C200.795 116.133 200.661 116.467 200.395 116.8C200.128 117.2 199.695 117.4 199.095 117.4ZM200.495 51C198.295 51 196.261 50.7667 194.395 50.3C192.595 49.7667 191.161 48.8333 190.095 47.5C189.095 46.1667 188.661 44.2667 188.795 41.8C188.928 40.5333 189.095 39.1667 189.295 37.7C189.561 36.1667 190.428 35.2333 191.895 34.9C192.695 34.7667 193.661 34.6667 194.795 34.6C195.928 34.5333 196.928 34.5 197.795 34.5C199.661 34.5 201.728 34.8 203.995 35.4C205.128 35.6667 205.695 36.1 205.695 36.7C205.695 38.2333 205.461 40.0333 204.995 42.1C204.528 44.1667 204.028 47 203.495 50.6C202.428 50.8667 201.428 51 200.495 51Z" fill="#F2E5DC"/>
<path d="M273.432 95.7C273.432 99.9667 271.865 103.3 268.732 105.7C265.599 108.1 261.065 109.3 255.132 109.3C250.065 109.3 245.932 108.533 242.732 107C239.532 105.4 237.932 103.667 237.932 101.8C237.932 101 238.132 100.233 238.532 99.5C238.999 98.7 239.665 98.0667 240.532 97.6C242.332 98.8667 244.432 100.033 246.832 101.1C249.232 102.167 251.965 102.7 255.032 102.7C261.965 102.7 265.432 100.367 265.432 95.7C265.432 93.7667 264.832 92.2 263.632 91C262.499 89.7333 260.799 88.8333 258.532 88.3L250.232 86.1C246.165 85.1 243.199 83.5667 241.332 81.5C239.465 79.3667 238.532 76.7333 238.532 73.6C238.532 70.0667 239.965 67 242.832 64.4C245.699 61.8 250.065 60.5 255.932 60.5C259.065 60.5 261.799 60.8333 264.132 61.5C266.465 62.1 268.265 62.9333 269.532 64C270.865 65 271.532 66.1 271.532 67.3C271.532 68.1667 271.299 68.9333 270.832 69.6C270.432 70.2667 269.865 70.7667 269.132 71.1C268.332 70.5667 267.299 70 266.032 69.4C264.832 68.7333 263.399 68.2 261.732 67.8C260.065 67.3333 258.232 67.1 256.232 67.1C253.299 67.1 250.932 67.6667 249.132 68.8C247.332 69.9333 246.432 71.5333 246.432 73.6C246.432 75.0667 246.932 76.3667 247.932 77.5C248.999 78.5667 250.665 79.3667 252.932 79.9L259.832 81.6C264.365 82.6667 267.765 84.3667 270.032 86.7C272.299 88.9667 273.432 91.9667 273.432 95.7ZM325.659 88.1H317.659V78.9C317.659 74.9 316.525 71.9333 314.259 70C312.059 68.0667 309.192 67.1 305.659 67.1C303.059 67.1 300.625 67.6 298.359 68.6C296.159 69.6 294.292 70.8 292.759 72.2L291.259 65.7C292.859 64.5667 294.959 63.4333 297.559 62.3C300.225 61.1 303.292 60.5 306.759 60.5C312.292 60.5 316.825 62 320.359 65C323.892 68 325.659 72.5667 325.659 78.7V88.1ZM285.759 81.6H293.759V107.8C293.425 107.933 292.925 108.067 292.259 108.2C291.592 108.4 290.859 108.5 290.059 108.5C288.659 108.5 287.592 108.233 286.859 107.7C286.125 107.1 285.759 106.167 285.759 104.9V81.6ZM317.659 81.7L325.659 81.8V107.8C325.325 107.933 324.792 108.067 324.059 108.2C323.392 108.4 322.692 108.5 321.959 108.5C320.492 108.5 319.392 108.233 318.659 107.7C317.992 107.1 317.659 106.167 317.659 104.9V81.7ZM293.759 85.5H285.759V43.2C286.092 43.0667 286.592 42.9333 287.259 42.8C287.992 42.6 288.759 42.5 289.559 42.5C290.959 42.5 291.992 42.8 292.659 43.4C293.392 43.9333 293.759 44.8333 293.759 46.1V85.5ZM383.537 84.9C383.537 89.8333 382.603 94.1333 380.737 97.8C378.87 101.467 376.237 104.3 372.837 106.3C369.437 108.3 365.437 109.3 360.837 109.3C356.237 109.3 352.203 108.3 348.737 106.3C345.337 104.3 342.703 101.467 340.837 97.8C338.97 94.1333 338.037 89.8333 338.037 84.9C338.037 79.9 338.97 75.6 340.837 72C342.77 68.3333 345.437 65.5 348.837 63.5C352.303 61.5 356.303 60.5 360.837 60.5C365.37 60.5 369.337 61.5 372.737 63.5C376.137 65.5 378.77 68.3333 380.637 72C382.57 75.6 383.537 79.9 383.537 84.9ZM360.837 67.1C356.37 67.1 352.803 68.7 350.137 71.9C347.537 75.0333 346.237 79.3667 346.237 84.9C346.237 90.5 347.503 94.8667 350.037 98C352.637 101.133 356.237 102.7 360.837 102.7C365.37 102.7 368.903 101.133 371.437 98C374.037 94.8 375.337 90.4333 375.337 84.9C375.337 79.3667 374.037 75.0333 371.437 71.9C368.903 68.7 365.37 67.1 360.837 67.1ZM415.61 109.3C412.743 109.3 410.043 108.867 407.51 108C405.043 107.2 403.243 106.3 402.11 105.3V97.9C403.443 99.1667 405.11 100.3 407.11 101.3C409.177 102.233 411.643 102.7 414.51 102.7C419.177 102.7 422.91 101.3 425.71 98.5C428.577 95.6333 430.01 91.0667 430.01 84.8C430.01 80.4 429.277 76.9333 427.81 74.4C426.41 71.8 424.51 69.9333 422.11 68.8C419.777 67.6667 417.243 67.1 414.51 67.1C412.11 67.1 410.077 67.4 408.41 68C406.743 68.6 405.243 69.2667 403.91 70V103.2H395.91V70.2C395.91 68.8667 396.143 67.8 396.61 67C397.077 66.2 398.043 65.3667 399.51 64.5C401.31 63.5 403.443 62.6 405.91 61.8C408.443 60.9333 411.31 60.5 414.51 60.5C418.91 60.5 422.877 61.3667 426.41 63.1C430.01 64.7667 432.843 67.4 434.91 71C437.043 74.5333 438.11 79.1333 438.11 84.8C438.11 90.2667 437.143 94.8333 435.21 98.5C433.343 102.1 430.71 104.8 427.31 106.6C423.91 108.4 420.01 109.3 415.61 109.3ZM403.91 100.5V126C403.577 126.133 403.077 126.267 402.41 126.4C401.743 126.6 401.01 126.7 400.21 126.7C398.81 126.7 397.743 126.4 397.01 125.8C396.277 125.2 395.91 124.267 395.91 123V100.3L403.91 100.5Z" fill="#F2E5DC"/>
</svg>
