<svg width="472" height="338" viewBox="0 0 472 338" fill="none" xmlns="http://www.w3.org/2000/svg">
<path d="M160.552 252.972C157.968 252.972 154.624 252.516 150.52 251.604C146.568 250.692 142.388 249.172 137.98 247.044C133.724 244.916 129.848 242.028 126.352 238.38L65.476 176.136C64.564 183.736 63.804 191.26 63.196 198.708C62.588 206.156 62.056 212.768 61.6 218.544C61.448 219.912 60.916 220.824 60.004 221.28C59.092 221.736 57.952 221.964 56.584 221.964C54.152 221.964 51.34 221.584 48.148 220.824C45.108 220.064 42.144 218.62 39.256 216.492C36.368 214.212 34.088 211.02 32.416 206.916C30.744 202.66 30.136 197.036 30.592 190.044C31.2 181.988 31.884 172.564 32.644 161.772C33.404 150.98 34.088 139.504 34.696 127.344C35.304 115.184 35.836 103.024 36.292 90.864C36.748 78.704 36.976 67.228 36.976 56.436C37.28 55.22 38.192 54.384 39.712 53.928C41.232 53.32 42.98 53.016 44.956 53.016C48.604 53.016 52.328 53.928 56.128 55.752C60.08 57.424 63.348 60.388 65.932 64.644C68.668 68.748 70.036 74.524 70.036 81.972C70.036 88.508 69.732 95.652 69.124 103.404C68.516 111.004 67.984 119.212 67.528 128.028C75.128 119.668 82.272 110.928 88.96 101.808C95.648 92.688 101.576 83.872 106.744 75.36C112.064 66.848 116.32 59.324 119.512 52.788C127.872 52.788 133.648 54.84 136.84 58.944C140.184 63.048 141.856 68.672 141.856 75.816C141.856 79.616 140.26 84.404 137.068 90.18C133.876 95.804 129.544 101.96 124.072 108.648C118.752 115.336 112.748 122.252 106.06 129.396C99.372 136.54 92.532 143.532 85.54 150.372L163.06 245.448C164.124 246.664 164.656 247.956 164.656 249.324C164.656 251.756 163.288 252.972 160.552 252.972ZM179.85 222.192C175.898 222.192 171.718 221.432 167.31 219.912C163.054 218.392 159.406 216.188 156.366 213.3C153.478 210.412 152.034 206.916 152.034 202.812C152.034 200.38 152.186 196.048 152.49 189.816C152.794 183.584 153.174 176.364 153.63 168.156C154.086 159.796 154.618 151.208 155.226 142.392C155.834 133.424 156.518 124.912 157.278 116.856C158.038 108.8 158.722 101.96 159.33 96.336C159.482 95.12 160.242 94.36 161.61 94.056C162.978 93.6 164.118 93.372 165.03 93.372C168.526 93.372 172.402 94.36 176.658 96.336C180.914 98.312 184.562 100.82 187.602 103.86C190.794 106.9 192.39 110.092 192.39 113.436C192.39 115.412 192.086 119.364 191.478 125.292C190.87 131.068 190.11 137.984 189.198 146.04C188.438 154.096 187.602 162.532 186.69 171.348C185.93 180.164 185.246 188.752 184.638 197.112C184.03 205.32 183.726 212.464 183.726 218.544C183.726 219.304 183.422 220.064 182.814 220.824C182.206 221.736 181.218 222.192 179.85 222.192ZM183.042 70.8C178.026 70.8 173.39 70.268 169.134 69.204C165.03 67.988 161.762 65.86 159.33 62.82C157.05 59.78 156.062 55.448 156.366 49.824C156.67 46.936 157.05 43.82 157.506 40.476C158.114 36.98 160.09 34.852 163.434 34.092C165.258 33.788 167.462 33.56 170.046 33.408C172.63 33.256 174.91 33.18 176.886 33.18C181.142 33.18 185.854 33.864 191.022 35.232C193.606 35.84 194.898 36.828 194.898 38.196C194.898 41.692 194.366 45.796 193.302 50.508C192.238 55.22 191.098 61.68 189.882 69.888C187.45 70.496 185.17 70.8 183.042 70.8ZM243.637 223.56C239.229 223.56 234.745 222.344 230.185 219.912C225.625 217.48 221.673 214.212 218.329 210.108C215.137 205.852 213.313 201.064 212.857 195.744C212.401 190.88 212.021 185.028 211.717 178.188C211.413 171.348 211.261 163.976 211.261 156.072C211.261 144.976 211.641 133.424 212.401 121.416C213.313 109.408 214.909 98.084 217.189 87.444C217.949 84.252 219.241 82.656 221.065 82.656C224.865 82.656 228.893 83.644 233.149 85.62C237.557 87.596 241.281 90.104 244.321 93.144C247.361 96.032 248.881 98.996 248.881 102.036C248.881 103.708 248.729 106.064 248.425 109.104C248.121 111.992 247.893 116.324 247.741 122.1H248.197C249.109 117.236 250.857 112.068 253.441 106.596C256.177 100.972 259.597 96.184 263.701 92.232C267.805 88.128 272.441 86.076 277.609 86.076C281.257 90.332 284.145 95.88 286.273 102.72C288.401 109.56 289.541 116.4 289.693 123.24C281.789 125.064 274.797 127.876 268.717 131.676C262.789 135.324 256.785 140.34 250.705 146.724C248.729 154.628 247.209 163.064 246.145 172.032C245.233 180.848 244.549 189.208 244.093 197.112C243.789 204.864 243.637 211.248 243.637 216.264C243.637 221.128 243.637 223.56 243.637 223.56ZM327.291 221.736C323.035 221.736 318.703 220.444 314.295 217.86C310.039 215.124 306.011 211.552 302.211 207.144C298.563 202.584 295.599 197.568 293.319 192.096C291.039 186.624 289.899 181.152 289.899 175.68C289.899 164.888 291.419 154.172 294.459 143.532C297.651 132.892 301.983 123.24 307.455 114.576C313.079 105.912 319.691 98.996 327.291 93.828C334.891 88.66 343.099 86.076 351.915 86.076C355.867 86.076 360.199 87.292 364.911 89.724C369.623 92.004 373.043 95.424 375.171 99.984C380.947 102.72 385.203 106.824 387.939 112.296C390.675 117.768 391.739 122.784 391.131 127.344C390.675 130.992 389.079 135.172 386.343 139.884C383.607 144.444 380.111 149.156 375.855 154.02C371.599 158.732 366.887 163.14 361.719 167.244C356.551 171.196 351.231 174.464 345.759 177.048C340.439 179.48 335.271 180.696 330.255 180.696C328.431 180.696 326.455 180.088 324.327 178.872C324.783 183.736 326.151 187.232 328.431 189.36C330.863 191.336 334.055 192.324 338.007 192.324C343.783 192.324 350.167 190.272 357.159 186.168C364.151 182.064 371.599 176.592 379.503 169.752C382.999 171.424 385.659 173.628 387.483 176.364C389.307 178.948 389.991 182.216 389.535 186.168C388.927 190.728 386.495 195.136 382.239 199.392C378.135 203.496 372.891 207.296 366.507 210.792C360.275 214.136 353.663 216.796 346.671 218.772C339.831 220.748 333.371 221.736 327.291 221.736ZM361.263 111.156C355.335 111.46 349.939 114.196 345.075 119.364C340.211 124.532 336.107 130.916 332.763 138.516C329.419 145.964 326.987 153.412 325.467 160.86C330.483 159.796 335.195 157.212 339.603 153.108C344.163 148.852 348.115 144.064 351.459 138.744C354.955 133.272 357.615 128.028 359.439 123.012C361.263 117.844 361.871 113.892 361.263 111.156ZM433.456 222.192C429.504 222.192 425.324 221.432 420.916 219.912C416.66 218.392 413.012 216.188 409.972 213.3C407.084 210.412 405.64 206.916 405.64 202.812C405.64 200.38 405.792 196.048 406.096 189.816C406.4 183.584 406.78 176.364 407.236 168.156C407.692 159.796 408.224 151.208 408.832 142.392C409.44 133.424 410.124 124.912 410.884 116.856C411.644 108.8 412.328 101.96 412.936 96.336C413.088 95.12 413.848 94.36 415.216 94.056C416.584 93.6 417.724 93.372 418.636 93.372C422.132 93.372 426.008 94.36 430.264 96.336C434.52 98.312 438.168 100.82 441.208 103.86C444.4 106.9 445.996 110.092 445.996 113.436C445.996 115.412 445.692 119.364 445.084 125.292C444.476 131.068 443.716 137.984 442.804 146.04C442.044 154.096 441.208 162.532 440.296 171.348C439.536 180.164 438.852 188.752 438.244 197.112C437.636 205.32 437.332 212.464 437.332 218.544C437.332 219.304 437.028 220.064 436.42 220.824C435.812 221.736 434.824 222.192 433.456 222.192ZM436.648 70.8C431.632 70.8 426.996 70.268 422.74 69.204C418.636 67.988 415.368 65.86 412.936 62.82C410.656 59.78 409.668 55.448 409.972 49.824C410.276 46.936 410.656 43.82 411.112 40.476C411.72 36.98 413.696 34.852 417.04 34.092C418.864 33.788 421.068 33.56 423.652 33.408C426.236 33.256 428.516 33.18 430.492 33.18C434.748 33.18 439.46 33.864 444.628 35.232C447.212 35.84 448.504 36.828 448.504 38.196C448.504 41.692 447.972 45.796 446.908 50.508C445.844 55.22 444.704 61.68 443.488 69.888C441.056 70.496 438.776 70.8 436.648 70.8Z" fill="#0D0D0D"/>
<path d="M130.513 284.32L130.209 279.532L153.161 276.416C152.959 273.629 151.996 271.349 150.273 269.576C148.551 267.752 146.169 266.84 143.129 266.84C139.988 266.84 137.379 267.98 135.301 270.26C133.275 272.489 132.261 275.707 132.261 279.912V281.584C132.616 285.637 133.933 288.728 136.213 290.856C138.544 292.933 141.711 293.972 145.713 293.972C147.841 293.972 149.767 293.617 151.489 292.908C153.212 292.199 154.58 291.439 155.593 290.628C156.151 290.983 156.581 291.413 156.885 291.92C157.24 292.376 157.417 292.908 157.417 293.516C157.417 294.479 156.86 295.391 155.745 296.252C154.681 297.063 153.237 297.721 151.413 298.228C149.64 298.735 147.639 298.988 145.409 298.988C141.508 298.988 138.113 298.279 135.225 296.86C132.388 295.441 130.184 293.339 128.613 290.552C127.093 287.715 126.333 284.269 126.333 280.216C126.333 277.328 126.739 274.769 127.549 272.54C128.411 270.26 129.576 268.335 131.045 266.764C132.565 265.193 134.364 264.003 136.441 263.192C138.519 262.331 140.773 261.9 143.205 261.9C146.296 261.9 149.007 262.559 151.337 263.876C153.719 265.193 155.568 267.043 156.885 269.424C158.253 271.755 158.937 274.44 158.937 277.48C158.937 278.595 158.684 279.405 158.177 279.912C157.671 280.368 156.961 280.647 156.049 280.748L130.513 284.32ZM196.068 273.68V282.42H189.988V274.136C189.988 271.653 189.253 269.829 187.784 268.664C186.365 267.499 184.465 266.916 182.084 266.916C180.513 266.916 178.993 267.169 177.524 267.676C176.054 268.183 174.813 268.765 173.8 269.424V282.42H167.72V269.728C167.72 268.715 167.922 267.853 168.328 267.144C168.784 266.435 169.544 265.751 170.608 265.092C171.976 264.231 173.698 263.496 175.776 262.888C177.904 262.229 180.032 261.9 182.16 261.9C184.744 261.9 187.024 262.305 189 263.116C190.976 263.876 192.445 264.94 193.408 266.308C193.712 266.612 193.965 266.891 194.168 267.144C194.37 267.397 194.573 267.727 194.776 268.132C195.13 268.74 195.434 269.525 195.688 270.488C195.941 271.451 196.068 272.515 196.068 273.68ZM218.336 273.832V282.42H212.256V274.136C212.256 271.653 211.546 269.829 210.128 268.664C208.709 267.499 206.809 266.916 204.428 266.916C202.654 266.916 200.932 267.296 199.26 268.056C197.638 268.765 196.169 269.804 194.852 271.172L192.42 266.764C193.737 265.447 195.46 264.307 197.588 263.344C199.716 262.381 202.148 261.9 204.884 261.9C207.62 261.9 209.976 262.331 211.952 263.192C213.978 264.053 215.549 265.371 216.664 267.144C217.778 268.917 218.336 271.147 218.336 273.832ZM167.72 278.392H173.8V297.848C173.546 297.949 173.166 298.051 172.66 298.152C172.153 298.304 171.596 298.38 170.988 298.38C169.924 298.38 169.113 298.177 168.556 297.772C167.998 297.316 167.72 296.607 167.72 295.644V278.392ZM189.988 278.392H196.068V297.848C195.814 297.949 195.409 298.051 194.852 298.152C194.345 298.304 193.813 298.38 193.256 298.38C192.141 298.38 191.305 298.177 190.748 297.772C190.241 297.316 189.988 296.607 189.988 295.644V278.392ZM212.256 278.392H218.336V297.848C218.082 297.949 217.677 298.051 217.12 298.152C216.613 298.304 216.081 298.38 215.524 298.38C214.409 298.38 213.573 298.177 213.016 297.772C212.509 297.316 212.256 296.607 212.256 295.644V278.392ZM244.738 298.988C242.56 298.988 240.508 298.659 238.582 298C236.708 297.392 235.34 296.708 234.478 295.948V290.324C235.492 291.287 236.758 292.148 238.278 292.908C239.849 293.617 241.724 293.972 243.902 293.972C247.449 293.972 250.286 292.908 252.414 290.78C254.593 288.601 255.682 285.131 255.682 280.368C255.682 277.024 255.125 274.389 254.01 272.464C252.946 270.488 251.502 269.069 249.678 268.208C247.905 267.347 245.98 266.916 243.902 266.916C242.078 266.916 240.533 267.144 239.266 267.6C238 268.056 236.86 268.563 235.846 269.12V294.352H229.766V269.272C229.766 268.259 229.944 267.448 230.298 266.84C230.653 266.232 231.388 265.599 232.502 264.94C233.87 264.18 235.492 263.496 237.366 262.888C239.292 262.229 241.47 261.9 243.902 261.9C247.246 261.9 250.261 262.559 252.946 263.876C255.682 265.143 257.836 267.144 259.406 269.88C261.028 272.565 261.838 276.061 261.838 280.368C261.838 284.523 261.104 287.993 259.634 290.78C258.216 293.516 256.214 295.568 253.63 296.936C251.046 298.304 248.082 298.988 244.738 298.988ZM235.846 292.3V311.68C235.593 311.781 235.213 311.883 234.706 311.984C234.2 312.136 233.642 312.212 233.034 312.212C231.97 312.212 231.16 311.984 230.602 311.528C230.045 311.072 229.766 310.363 229.766 309.4V292.148L235.846 292.3ZM277.335 269.424V281.432H271.255V269.88C271.255 268.715 271.457 267.803 271.863 267.144C272.319 266.435 273.053 265.751 274.067 265.092C275.384 264.231 277.183 263.496 279.463 262.888C281.743 262.229 284.276 261.9 287.063 261.9C291.116 261.9 293.143 262.913 293.143 264.94C293.143 265.447 293.067 265.928 292.915 266.384C292.763 266.789 292.56 267.144 292.307 267.448C291.8 267.347 291.141 267.245 290.331 267.144C289.52 267.043 288.709 266.992 287.899 266.992C285.568 266.992 283.516 267.245 281.743 267.752C279.969 268.208 278.5 268.765 277.335 269.424ZM271.255 277.936L277.335 278.848V297.848C277.081 297.949 276.701 298.051 276.195 298.152C275.688 298.304 275.131 298.38 274.523 298.38C273.459 298.38 272.648 298.177 272.091 297.772C271.533 297.316 271.255 296.607 271.255 295.644V277.936ZM301.736 284.32L301.432 279.532L324.384 276.416C324.181 273.629 323.219 271.349 321.496 269.576C319.773 267.752 317.392 266.84 314.352 266.84C311.211 266.84 308.601 267.98 306.524 270.26C304.497 272.489 303.484 275.707 303.484 279.912V281.584C303.839 285.637 305.156 288.728 307.436 290.856C309.767 292.933 312.933 293.972 316.936 293.972C319.064 293.972 320.989 293.617 322.712 292.908C324.435 292.199 325.803 291.439 326.816 290.628C327.373 290.983 327.804 291.413 328.108 291.92C328.463 292.376 328.64 292.908 328.64 293.516C328.64 294.479 328.083 295.391 326.968 296.252C325.904 297.063 324.46 297.721 322.636 298.228C320.863 298.735 318.861 298.988 316.632 298.988C312.731 298.988 309.336 298.279 306.448 296.86C303.611 295.441 301.407 293.339 299.836 290.552C298.316 287.715 297.556 284.269 297.556 280.216C297.556 277.328 297.961 274.769 298.772 272.54C299.633 270.26 300.799 268.335 302.268 266.764C303.788 265.193 305.587 264.003 307.664 263.192C309.741 262.331 311.996 261.9 314.428 261.9C317.519 261.9 320.229 262.559 322.56 263.876C324.941 265.193 326.791 267.043 328.108 269.424C329.476 271.755 330.16 274.44 330.16 277.48C330.16 278.595 329.907 279.405 329.4 279.912C328.893 280.368 328.184 280.647 327.272 280.748L301.736 284.32ZM369.342 274.82V282.572H363.262V275.124C363.262 272.287 362.452 270.209 360.83 268.892C359.26 267.575 357.132 266.916 354.446 266.916C352.42 266.916 350.621 267.169 349.05 267.676C347.48 268.183 346.137 268.765 345.022 269.424V282.572H338.942V269.728C338.942 268.664 339.145 267.803 339.55 267.144C340.006 266.435 340.766 265.751 341.83 265.092C343.148 264.332 344.896 263.623 347.074 262.964C349.253 262.255 351.71 261.9 354.446 261.9C359.057 261.9 362.68 262.964 365.314 265.092C368 267.169 369.342 270.412 369.342 274.82ZM338.942 278.392H345.022V297.848C344.769 297.949 344.389 298.051 343.882 298.152C343.376 298.304 342.818 298.38 342.21 298.38C341.146 298.38 340.336 298.177 339.778 297.772C339.221 297.316 338.942 296.607 338.942 295.644V278.392ZM363.262 278.392H369.342V297.848C369.089 297.949 368.684 298.051 368.126 298.152C367.62 298.304 367.088 298.38 366.53 298.38C365.416 298.38 364.58 298.177 364.022 297.772C363.516 297.316 363.262 296.607 363.262 295.644V278.392ZM404.667 291.996V266.46L410.747 266.384V292.224C410.747 293.187 410.519 293.972 410.063 294.58C409.658 295.137 408.999 295.695 408.087 296.252C407.074 296.911 405.63 297.519 403.755 298.076C401.881 298.684 399.727 298.988 397.295 298.988C393.647 298.988 390.43 298.355 387.643 297.088C384.857 295.821 382.678 293.845 381.107 291.16C379.537 288.424 378.751 284.903 378.751 280.596C378.751 276.188 379.511 272.616 381.031 269.88C382.602 267.144 384.705 265.143 387.339 263.876C389.974 262.559 392.862 261.9 396.003 261.9C397.979 261.9 399.854 262.179 401.627 262.736C403.401 263.293 404.794 263.977 405.807 264.788V270.412C404.845 269.449 403.578 268.639 402.007 267.98C400.487 267.271 398.689 266.916 396.611 266.916C394.534 266.916 392.609 267.372 390.835 268.284C389.062 269.145 387.643 270.589 386.579 272.616C385.515 274.643 384.983 277.353 384.983 280.748C384.983 285.359 386.098 288.728 388.327 290.856C390.557 292.933 393.521 293.972 397.219 293.972C398.993 293.972 400.437 293.795 401.551 293.44C402.717 293.035 403.755 292.553 404.667 291.996ZM410.747 267.904L404.667 267.98V248.752C404.921 248.651 405.301 248.549 405.807 248.448C406.365 248.296 406.922 248.22 407.479 248.22C408.594 248.22 409.405 248.448 409.911 248.904C410.469 249.309 410.747 249.993 410.747 250.956V267.904ZM424.494 284.32L424.19 279.532L447.142 276.416C446.939 273.629 445.977 271.349 444.254 269.576C442.531 267.752 440.15 266.84 437.11 266.84C433.969 266.84 431.359 267.98 429.282 270.26C427.255 272.489 426.242 275.707 426.242 279.912V281.584C426.597 285.637 427.914 288.728 430.194 290.856C432.525 292.933 435.691 293.972 439.694 293.972C441.822 293.972 443.747 293.617 445.47 292.908C447.193 292.199 448.561 291.439 449.574 290.628C450.131 290.983 450.562 291.413 450.866 291.92C451.221 292.376 451.398 292.908 451.398 293.516C451.398 294.479 450.841 295.391 449.726 296.252C448.662 297.063 447.218 297.721 445.394 298.228C443.621 298.735 441.619 298.988 439.39 298.988C435.489 298.988 432.094 298.279 429.206 296.86C426.369 295.441 424.165 293.339 422.594 290.552C421.074 287.715 420.314 284.269 420.314 280.216C420.314 277.328 420.719 274.769 421.53 272.54C422.391 270.26 423.557 268.335 425.026 266.764C426.546 265.193 428.345 264.003 430.422 263.192C432.499 262.331 434.754 261.9 437.186 261.9C440.277 261.9 442.987 262.559 445.318 263.876C447.699 265.193 449.549 267.043 450.866 269.424C452.234 271.755 452.918 274.44 452.918 277.48C452.918 278.595 452.665 279.405 452.158 279.912C451.651 280.368 450.942 280.647 450.03 280.748L424.494 284.32Z" fill="#0D0D0D"/>
</svg>
