<svg width="472" height="338" viewBox="0 0 472 338" fill="none" xmlns="http://www.w3.org/2000/svg">
<path d="M160.552 252.972C157.968 252.972 154.624 252.516 150.52 251.604C146.568 250.692 142.388 249.172 137.98 247.044C133.724 244.916 129.848 242.028 126.352 238.38L65.476 176.136C64.564 183.736 63.804 191.26 63.196 198.708C62.588 206.156 62.056 212.768 61.6 218.544C61.448 219.912 60.916 220.824 60.004 221.28C59.092 221.736 57.952 221.964 56.584 221.964C54.152 221.964 51.34 221.584 48.148 220.824C45.108 220.064 42.144 218.62 39.256 216.492C36.368 214.212 34.088 211.02 32.416 206.916C30.744 202.66 30.136 197.036 30.592 190.044C31.2 181.988 31.884 172.564 32.644 161.772C33.404 150.98 34.088 139.504 34.696 127.344C35.304 115.184 35.836 103.024 36.292 90.864C36.748 78.704 36.976 67.228 36.976 56.436C37.28 55.22 38.192 54.384 39.712 53.928C41.232 53.32 42.98 53.016 44.956 53.016C48.604 53.016 52.328 53.928 56.128 55.752C60.08 57.424 63.348 60.388 65.932 64.644C68.668 68.748 70.036 74.524 70.036 81.972C70.036 88.508 69.732 95.652 69.124 103.404C68.516 111.004 67.984 119.212 67.528 128.028C75.128 119.668 82.272 110.928 88.96 101.808C95.648 92.688 101.576 83.872 106.744 75.36C112.064 66.848 116.32 59.324 119.512 52.788C127.872 52.788 133.648 54.84 136.84 58.944C140.184 63.048 141.856 68.672 141.856 75.816C141.856 79.616 140.26 84.404 137.068 90.18C133.876 95.804 129.544 101.96 124.072 108.648C118.752 115.336 112.748 122.252 106.06 129.396C99.372 136.54 92.532 143.532 85.54 150.372L163.06 245.448C164.124 246.664 164.656 247.956 164.656 249.324C164.656 251.756 163.288 252.972 160.552 252.972ZM179.85 222.192C175.898 222.192 171.718 221.432 167.31 219.912C163.054 218.392 159.406 216.188 156.366 213.3C153.478 210.412 152.034 206.916 152.034 202.812C152.034 200.38 152.186 196.048 152.49 189.816C152.794 183.584 153.174 176.364 153.63 168.156C154.086 159.796 154.618 151.208 155.226 142.392C155.834 133.424 156.518 124.912 157.278 116.856C158.038 108.8 158.722 101.96 159.33 96.336C159.482 95.12 160.242 94.36 161.61 94.056C162.978 93.6 164.118 93.372 165.03 93.372C168.526 93.372 172.402 94.36 176.658 96.336C180.914 98.312 184.562 100.82 187.602 103.86C190.794 106.9 192.39 110.092 192.39 113.436C192.39 115.412 192.086 119.364 191.478 125.292C190.87 131.068 190.11 137.984 189.198 146.04C188.438 154.096 187.602 162.532 186.69 171.348C185.93 180.164 185.246 188.752 184.638 197.112C184.03 205.32 183.726 212.464 183.726 218.544C183.726 219.304 183.422 220.064 182.814 220.824C182.206 221.736 181.218 222.192 179.85 222.192ZM183.042 70.8C178.026 70.8 173.39 70.268 169.134 69.204C165.03 67.988 161.762 65.86 159.33 62.82C157.05 59.78 156.062 55.448 156.366 49.824C156.67 46.936 157.05 43.82 157.506 40.476C158.114 36.98 160.09 34.852 163.434 34.092C165.258 33.788 167.462 33.56 170.046 33.408C172.63 33.256 174.91 33.18 176.886 33.18C181.142 33.18 185.854 33.864 191.022 35.232C193.606 35.84 194.898 36.828 194.898 38.196C194.898 41.692 194.366 45.796 193.302 50.508C192.238 55.22 191.098 61.68 189.882 69.888C187.45 70.496 185.17 70.8 183.042 70.8ZM243.637 223.56C239.229 223.56 234.745 222.344 230.185 219.912C225.625 217.48 221.673 214.212 218.329 210.108C215.137 205.852 213.313 201.064 212.857 195.744C212.401 190.88 212.021 185.028 211.717 178.188C211.413 171.348 211.261 163.976 211.261 156.072C211.261 144.976 211.641 133.424 212.401 121.416C213.313 109.408 214.909 98.084 217.189 87.444C217.949 84.252 219.241 82.656 221.065 82.656C224.865 82.656 228.893 83.644 233.149 85.62C237.557 87.596 241.281 90.104 244.321 93.144C247.361 96.032 248.881 98.996 248.881 102.036C248.881 103.708 248.729 106.064 248.425 109.104C248.121 111.992 247.893 116.324 247.741 122.1H248.197C249.109 117.236 250.857 112.068 253.441 106.596C256.177 100.972 259.597 96.184 263.701 92.232C267.805 88.128 272.441 86.076 277.609 86.076C281.257 90.332 284.145 95.88 286.273 102.72C288.401 109.56 289.541 116.4 289.693 123.24C281.789 125.064 274.797 127.876 268.717 131.676C262.789 135.324 256.785 140.34 250.705 146.724C248.729 154.628 247.209 163.064 246.145 172.032C245.233 180.848 244.549 189.208 244.093 197.112C243.789 204.864 243.637 211.248 243.637 216.264C243.637 221.128 243.637 223.56 243.637 223.56ZM327.291 221.736C323.035 221.736 318.703 220.444 314.295 217.86C310.039 215.124 306.011 211.552 302.211 207.144C298.563 202.584 295.599 197.568 293.319 192.096C291.039 186.624 289.899 181.152 289.899 175.68C289.899 164.888 291.419 154.172 294.459 143.532C297.651 132.892 301.983 123.24 307.455 114.576C313.079 105.912 319.691 98.996 327.291 93.828C334.891 88.66 343.099 86.076 351.915 86.076C355.867 86.076 360.199 87.292 364.911 89.724C369.623 92.004 373.043 95.424 375.171 99.984C380.947 102.72 385.203 106.824 387.939 112.296C390.675 117.768 391.739 122.784 391.131 127.344C390.675 130.992 389.079 135.172 386.343 139.884C383.607 144.444 380.111 149.156 375.855 154.02C371.599 158.732 366.887 163.14 361.719 167.244C356.551 171.196 351.231 174.464 345.759 177.048C340.439 179.48 335.271 180.696 330.255 180.696C328.431 180.696 326.455 180.088 324.327 178.872C324.783 183.736 326.151 187.232 328.431 189.36C330.863 191.336 334.055 192.324 338.007 192.324C343.783 192.324 350.167 190.272 357.159 186.168C364.151 182.064 371.599 176.592 379.503 169.752C382.999 171.424 385.659 173.628 387.483 176.364C389.307 178.948 389.991 182.216 389.535 186.168C388.927 190.728 386.495 195.136 382.239 199.392C378.135 203.496 372.891 207.296 366.507 210.792C360.275 214.136 353.663 216.796 346.671 218.772C339.831 220.748 333.371 221.736 327.291 221.736ZM361.263 111.156C355.335 111.46 349.939 114.196 345.075 119.364C340.211 124.532 336.107 130.916 332.763 138.516C329.419 145.964 326.987 153.412 325.467 160.86C330.483 159.796 335.195 157.212 339.603 153.108C344.163 148.852 348.115 144.064 351.459 138.744C354.955 133.272 357.615 128.028 359.439 123.012C361.263 117.844 361.871 113.892 361.263 111.156ZM433.456 222.192C429.504 222.192 425.324 221.432 420.916 219.912C416.66 218.392 413.012 216.188 409.972 213.3C407.084 210.412 405.64 206.916 405.64 202.812C405.64 200.38 405.792 196.048 406.096 189.816C406.4 183.584 406.78 176.364 407.236 168.156C407.692 159.796 408.224 151.208 408.832 142.392C409.44 133.424 410.124 124.912 410.884 116.856C411.644 108.8 412.328 101.96 412.936 96.336C413.088 95.12 413.848 94.36 415.216 94.056C416.584 93.6 417.724 93.372 418.636 93.372C422.132 93.372 426.008 94.36 430.264 96.336C434.52 98.312 438.168 100.82 441.208 103.86C444.4 106.9 445.996 110.092 445.996 113.436C445.996 115.412 445.692 119.364 445.084 125.292C444.476 131.068 443.716 137.984 442.804 146.04C442.044 154.096 441.208 162.532 440.296 171.348C439.536 180.164 438.852 188.752 438.244 197.112C437.636 205.32 437.332 212.464 437.332 218.544C437.332 219.304 437.028 220.064 436.42 220.824C435.812 221.736 434.824 222.192 433.456 222.192ZM436.648 70.8C431.632 70.8 426.996 70.268 422.74 69.204C418.636 67.988 415.368 65.86 412.936 62.82C410.656 59.78 409.668 55.448 409.972 49.824C410.276 46.936 410.656 43.82 411.112 40.476C411.72 36.98 413.696 34.852 417.04 34.092C418.864 33.788 421.068 33.56 423.652 33.408C426.236 33.256 428.516 33.18 430.492 33.18C434.748 33.18 439.46 33.864 444.628 35.232C447.212 35.84 448.504 36.828 448.504 38.196C448.504 41.692 447.972 45.796 446.908 50.508C445.844 55.22 444.704 61.68 443.488 69.888C441.056 70.496 438.776 70.8 436.648 70.8Z" fill="#0D0D0D"/>
<path d="M327.128 288.652C327.128 291.895 325.938 294.428 323.556 296.252C321.175 298.076 317.73 298.988 313.22 298.988C309.37 298.988 306.228 298.405 303.796 297.24C301.364 296.024 300.148 294.707 300.148 293.288C300.148 292.68 300.3 292.097 300.604 291.54C300.959 290.932 301.466 290.451 302.124 290.096C303.492 291.059 305.088 291.945 306.912 292.756C308.736 293.567 310.814 293.972 313.144 293.972C318.414 293.972 321.048 292.199 321.048 288.652C321.048 287.183 320.592 285.992 319.68 285.08C318.819 284.117 317.527 283.433 315.804 283.028L309.496 281.356C306.406 280.596 304.151 279.431 302.732 277.86C301.314 276.239 300.604 274.237 300.604 271.856C300.604 269.171 301.694 266.84 303.872 264.864C306.051 262.888 309.37 261.9 313.828 261.9C316.21 261.9 318.287 262.153 320.06 262.66C321.834 263.116 323.202 263.749 324.164 264.56C325.178 265.32 325.684 266.156 325.684 267.068C325.684 267.727 325.507 268.309 325.152 268.816C324.848 269.323 324.418 269.703 323.86 269.956C323.252 269.551 322.467 269.12 321.504 268.664C320.592 268.157 319.503 267.752 318.236 267.448C316.97 267.093 315.576 266.916 314.056 266.916C311.827 266.916 310.028 267.347 308.66 268.208C307.292 269.069 306.608 270.285 306.608 271.856C306.608 272.971 306.988 273.959 307.748 274.82C308.559 275.631 309.826 276.239 311.548 276.644L316.792 277.936C320.238 278.747 322.822 280.039 324.544 281.812C326.267 283.535 327.128 285.815 327.128 288.652ZM366.821 282.876H360.741V275.884C360.741 272.844 359.879 270.589 358.157 269.12C356.485 267.651 354.306 266.916 351.621 266.916C349.645 266.916 347.795 267.296 346.073 268.056C344.401 268.816 342.982 269.728 341.817 270.792L340.677 265.852C341.893 264.991 343.489 264.129 345.465 263.268C347.491 262.356 349.822 261.9 352.457 261.9C356.662 261.9 360.107 263.04 362.793 265.32C365.478 267.6 366.821 271.071 366.821 275.732V282.876ZM336.497 277.936H342.577V297.848C342.323 297.949 341.943 298.051 341.437 298.152C340.93 298.304 340.373 298.38 339.765 298.38C338.701 298.38 337.89 298.177 337.333 297.772C336.775 297.316 336.497 296.607 336.497 295.644V277.936ZM360.741 278.012L366.821 278.088V297.848C366.567 297.949 366.162 298.051 365.605 298.152C365.098 298.304 364.566 298.38 364.009 298.38C362.894 298.38 362.058 298.177 361.501 297.772C360.994 297.316 360.741 296.607 360.741 295.644V278.012ZM342.577 280.9H336.497V248.752C336.75 248.651 337.13 248.549 337.637 248.448C338.194 248.296 338.777 248.22 339.385 248.22C340.449 248.22 341.234 248.448 341.741 248.904C342.298 249.309 342.577 249.993 342.577 250.956V280.9ZM410.808 280.444C410.808 284.193 410.099 287.461 408.68 290.248C407.261 293.035 405.26 295.188 402.676 296.708C400.092 298.228 397.052 298.988 393.556 298.988C390.06 298.988 386.995 298.228 384.36 296.708C381.776 295.188 379.775 293.035 378.356 290.248C376.937 287.461 376.228 284.193 376.228 280.444C376.228 276.644 376.937 273.376 378.356 270.64C379.825 267.853 381.852 265.7 384.436 264.18C387.071 262.66 390.111 261.9 393.556 261.9C397.001 261.9 400.016 262.66 402.6 264.18C405.184 265.7 407.185 267.853 408.604 270.64C410.073 273.376 410.808 276.644 410.808 280.444ZM393.556 266.916C390.161 266.916 387.451 268.132 385.424 270.564C383.448 272.945 382.46 276.239 382.46 280.444C382.46 284.7 383.423 288.019 385.348 290.4C387.324 292.781 390.06 293.972 393.556 293.972C397.001 293.972 399.687 292.781 401.612 290.4C403.588 287.968 404.576 284.649 404.576 280.444C404.576 276.239 403.588 272.945 401.612 270.564C399.687 268.132 397.001 266.916 393.556 266.916ZM435.184 298.988C433.005 298.988 430.953 298.659 429.028 298C427.153 297.392 425.785 296.708 424.924 295.948V290.324C425.937 291.287 427.204 292.148 428.724 292.908C430.294 293.617 432.169 293.972 434.348 293.972C437.894 293.972 440.732 292.908 442.86 290.78C445.038 288.601 446.128 285.131 446.128 280.368C446.128 277.024 445.57 274.389 444.456 272.464C443.392 270.488 441.948 269.069 440.124 268.208C438.35 267.347 436.425 266.916 434.348 266.916C432.524 266.916 430.978 267.144 429.712 267.6C428.445 268.056 427.305 268.563 426.292 269.12V294.352H420.212V269.272C420.212 268.259 420.389 267.448 420.744 266.84C421.098 266.232 421.833 265.599 422.948 264.94C424.316 264.18 425.937 263.496 427.812 262.888C429.737 262.229 431.916 261.9 434.348 261.9C437.692 261.9 440.706 262.559 443.392 263.876C446.128 265.143 448.281 267.144 449.852 269.88C451.473 272.565 452.284 276.061 452.284 280.368C452.284 284.523 451.549 287.993 450.08 290.78C448.661 293.516 446.66 295.568 444.076 296.936C441.492 298.304 438.528 298.988 435.184 298.988ZM426.292 292.3V311.68C426.038 311.781 425.658 311.883 425.152 311.984C424.645 312.136 424.088 312.212 423.48 312.212C422.416 312.212 421.605 311.984 421.048 311.528C420.49 311.072 420.212 310.363 420.212 309.4V292.148L426.292 292.3Z" fill="#0D0D0D"/>
</svg>
