<svg width="630" height="300" viewBox="0 0 630 300" fill="none" xmlns="http://www.w3.org/2000/svg">
<path d="M341.772 238.88C339.188 238.88 335.844 238.423 331.74 237.511C327.789 236.599 323.609 235.078 319.201 232.949C314.945 230.821 311.069 227.931 307.573 224.282L246.699 162.014C245.787 169.617 245.027 177.144 244.419 184.595C243.811 192.046 243.279 198.66 242.823 204.439C242.671 205.807 242.139 206.719 241.227 207.176C240.315 207.632 239.175 207.86 237.807 207.86C235.375 207.86 232.563 207.48 229.371 206.719C226.331 205.959 223.367 204.515 220.48 202.386C217.592 200.105 215.312 196.912 213.64 192.806C211.968 188.549 211.36 182.922 211.816 175.928C212.424 167.869 213.108 158.441 213.868 147.645C214.628 136.849 215.312 125.368 215.92 113.204C216.528 101.039 217.06 88.8746 217.516 76.71C217.972 64.5453 218.2 53.065 218.2 42.2689C218.504 41.0524 219.416 40.2161 220.936 39.7599C222.455 39.1517 224.203 38.8476 226.179 38.8476C229.827 38.8476 233.551 39.7599 237.351 41.5846C241.303 43.2572 244.571 46.2224 247.155 50.48C249.891 54.5855 251.259 60.3637 251.259 67.8146C251.259 74.3531 250.955 81.4998 250.347 89.2547C249.739 96.8576 249.207 105.069 248.751 113.888C256.351 105.525 263.494 96.7816 270.182 87.6581C276.87 78.5347 282.798 69.7153 287.966 61.2001C293.286 52.6848 297.541 45.158 300.733 38.6195C309.093 38.6195 314.869 40.6723 318.061 44.7778C321.405 48.8834 323.077 54.5095 323.077 61.6562C323.077 65.4577 321.481 70.2475 318.289 76.0257C315.097 81.6518 310.765 87.8102 305.293 94.5007C299.973 101.191 293.969 108.11 287.282 115.257C280.594 122.403 273.754 129.398 266.762 136.241L344.28 231.353C345.344 232.569 345.876 233.862 345.876 235.23C345.876 237.663 344.508 238.88 341.772 238.88Z" fill="#406042"/>
<path d="M361.07 208.088C357.118 208.088 352.938 207.328 348.53 205.807C344.274 204.286 340.626 202.082 337.586 199.193C334.698 196.303 333.254 192.806 333.254 188.701C333.254 186.268 333.406 181.934 333.71 175.7C334.014 169.465 334.394 162.242 334.85 154.031C335.306 145.668 335.838 137.077 336.446 128.258C337.054 119.286 337.738 110.771 338.498 102.712C339.258 94.6528 339.942 87.8102 340.55 82.184C340.702 80.9676 341.462 80.2073 342.83 79.9032C344.198 79.447 345.338 79.2189 346.25 79.2189C349.746 79.2189 353.622 80.2073 357.878 82.184C362.134 84.1608 365.782 86.6697 368.821 89.7109C372.013 92.7521 373.609 95.9453 373.609 99.2906C373.609 101.267 373.305 105.221 372.697 111.151C372.089 116.929 371.329 123.848 370.417 131.907C369.657 139.966 368.821 148.405 367.91 157.225C367.15 166.044 366.466 174.635 365.858 182.998C365.25 191.21 364.946 198.356 364.946 204.439C364.946 205.199 364.642 205.959 364.034 206.719C363.426 207.632 362.438 208.088 361.07 208.088ZM364.262 56.6383C359.246 56.6383 354.61 56.1061 350.354 55.0417C346.25 53.8253 342.982 51.6964 340.55 48.6553C338.27 45.6141 337.282 41.2805 337.586 35.6543C337.89 32.7652 338.27 29.6481 338.726 26.3028C339.334 22.8055 341.31 20.6766 344.654 19.9164C346.478 19.6122 348.682 19.3842 351.266 19.2321C353.85 19.08 356.13 19.004 358.106 19.004C362.362 19.004 367.074 19.6883 372.241 21.0568C374.825 21.665 376.117 22.6534 376.117 24.0219C376.117 27.5192 375.585 31.6248 374.521 36.3386C373.457 41.0524 372.317 47.5149 371.101 55.726C368.669 56.3342 366.39 56.6383 364.262 56.6383Z" fill="#406042"/>
<path d="M424.854 209.456C420.447 209.456 415.963 208.24 411.403 205.807C406.843 203.374 402.891 200.105 399.547 195.999C396.355 191.742 394.531 186.952 394.075 181.63C393.619 176.764 393.239 170.91 392.935 164.067C392.631 157.225 392.479 149.85 392.479 141.943C392.479 130.843 392.859 119.286 393.619 107.274C394.531 95.261 396.127 83.9327 398.407 73.2887C399.167 70.0954 400.459 68.4988 402.283 68.4988C406.083 68.4988 410.111 69.4872 414.367 71.464C418.775 73.4407 422.499 75.9497 425.538 78.9908C428.578 81.8799 430.098 84.8451 430.098 87.8862C430.098 89.5589 429.946 91.9157 429.642 94.9569C429.338 97.846 429.11 102.18 428.958 107.958H429.414C430.326 103.092 432.074 97.922 434.658 92.448C437.394 86.8218 440.814 82.032 444.918 78.0785C449.022 73.9729 453.658 71.9202 458.826 71.9202C462.473 76.1778 465.361 81.7279 467.489 88.5705C469.617 95.4131 470.757 102.256 470.909 109.098C463.005 110.923 456.014 113.736 449.934 117.537C444.006 121.187 438.002 126.205 431.922 132.591C429.946 140.498 428.426 148.937 427.362 157.909C426.45 166.728 425.766 175.091 425.31 182.998C425.007 190.753 424.854 197.14 424.854 202.158C424.854 207.024 424.854 209.456 424.854 209.456Z" fill="#406042"/>
<path d="M508.507 207.632C504.251 207.632 499.919 206.339 495.511 203.754C491.255 201.017 487.227 197.444 483.427 193.034C479.78 188.472 476.816 183.455 474.536 177.98C472.256 172.506 471.116 167.032 471.116 161.558C471.116 150.762 472.636 140.042 475.676 129.398C478.868 118.754 483.199 109.098 488.671 100.431C494.295 91.7637 500.907 84.8451 508.507 79.6751C516.107 74.5051 524.314 71.9202 533.13 71.9202C537.082 71.9202 541.414 73.1366 546.126 75.5695C550.838 77.8504 554.258 81.2717 556.385 85.8334C562.161 88.5705 566.417 92.676 569.153 98.1501C571.889 103.624 572.953 108.642 572.345 113.204C571.889 116.853 570.293 121.035 567.557 125.749C564.821 130.31 561.325 135.024 557.069 139.89C552.814 144.604 548.102 149.013 542.934 153.119C537.766 157.073 532.446 160.342 526.974 162.927C521.654 165.36 516.487 166.576 511.471 166.576C509.647 166.576 507.671 165.968 505.543 164.751C505.999 169.617 507.367 173.115 509.647 175.243C512.079 177.22 515.271 178.209 519.222 178.209C524.998 178.209 531.382 176.156 538.374 172.05C545.366 167.945 552.814 162.471 560.717 155.628C564.213 157.301 566.873 159.505 568.697 162.242C570.521 164.827 571.205 168.097 570.749 172.05C570.141 176.612 567.709 181.022 563.453 185.279C559.349 189.385 554.106 193.186 547.722 196.684C541.49 200.029 534.878 202.69 527.886 204.667C521.046 206.643 514.587 207.632 508.507 207.632ZM542.478 97.0097C536.55 97.3138 531.154 100.051 526.29 105.221C521.426 110.391 517.323 116.777 513.979 124.38C510.635 131.831 508.203 139.282 506.683 146.733C511.699 145.668 516.411 143.083 520.818 138.978C525.378 134.72 529.33 129.93 532.674 124.608C536.17 119.134 538.83 113.888 540.654 108.87C542.478 103.7 543.086 99.7467 542.478 97.0097Z" fill="#406042"/>
<path d="M614.668 208.088C610.716 208.088 606.536 207.328 602.128 205.807C597.873 204.286 594.225 202.082 591.185 199.193C588.297 196.303 586.853 192.806 586.853 188.701C586.853 186.268 587.005 181.934 587.309 175.7C587.613 169.465 587.993 162.242 588.449 154.031C588.905 145.668 589.437 137.077 590.045 128.258C590.653 119.286 591.337 110.771 592.097 102.712C592.857 94.6528 593.541 87.8102 594.149 82.184C594.301 80.9676 595.061 80.2073 596.429 79.9032C597.797 79.447 598.937 79.2189 599.849 79.2189C603.344 79.2189 607.22 80.2073 611.476 82.184C615.732 84.1608 619.38 86.6697 622.42 89.7109C625.612 92.7521 627.208 95.9453 627.208 99.2906C627.208 101.267 626.904 105.221 626.296 111.151C625.688 116.929 624.928 123.848 624.016 131.907C623.256 139.966 622.42 148.405 621.508 157.225C620.748 166.044 620.064 174.635 619.456 182.998C618.848 191.21 618.544 198.356 618.544 204.439C618.544 205.199 618.24 205.959 617.632 206.719C617.024 207.632 616.036 208.088 614.668 208.088ZM617.86 56.6383C612.844 56.6383 608.208 56.1061 603.952 55.0417C599.849 53.8253 596.581 51.6964 594.149 48.6553C591.869 45.6141 590.881 41.2805 591.185 35.6543C591.489 32.7652 591.869 29.6481 592.325 26.3028C592.933 22.8055 594.909 20.6766 598.253 19.9164C600.077 19.6122 602.281 19.3842 604.864 19.2321C607.448 19.08 609.728 19.004 611.704 19.004C615.96 19.004 620.672 19.6883 625.84 21.0568C628.424 21.665 629.716 22.6534 629.716 24.0219C629.716 27.5192 629.184 31.6248 628.12 36.3386C627.056 41.0524 625.916 47.5149 624.7 55.726C622.268 56.3342 619.988 56.6383 617.86 56.6383Z" fill="#406042"/>
<path d="M346.655 270.439L346.356 265.666L368.997 262.56C368.797 259.782 367.847 257.509 366.148 255.742C364.448 253.923 362.099 253.014 359.101 253.014C356.002 253.014 353.428 254.151 351.379 256.423C349.379 258.646 348.38 261.853 348.38 266.045V267.711C348.73 271.752 350.029 274.833 352.278 276.954C354.577 279.025 357.701 280.06 361.65 280.06C363.749 280.06 365.648 279.707 367.347 278.999C369.047 278.292 370.396 277.535 371.396 276.727C371.945 277.08 372.37 277.51 372.67 278.015C373.02 278.469 373.195 278.999 373.195 279.606C373.195 280.565 372.645 281.474 371.546 282.333C370.496 283.141 369.072 283.798 367.272 284.303C365.523 284.808 363.549 285.06 361.35 285.06C357.501 285.06 354.152 284.353 351.304 282.939C348.505 281.525 346.331 279.429 344.781 276.651C343.282 273.823 342.532 270.388 342.532 266.348C342.532 263.469 342.932 260.918 343.732 258.696C344.581 256.423 345.731 254.504 347.18 252.938C348.68 251.373 350.454 250.186 352.503 249.378C354.552 248.519 356.776 248.09 359.176 248.09C362.224 248.09 364.898 248.747 367.197 250.06C369.546 251.373 371.371 253.216 372.67 255.59C374.02 257.913 374.694 260.59 374.694 263.62C374.694 264.732 374.444 265.54 373.945 266.045C373.445 266.499 372.745 266.777 371.846 266.878L346.655 270.439Z" fill="#406042"/>
<path d="M408.237 274.757C408.237 277.989 407.063 280.515 404.714 282.333C402.364 284.151 398.966 285.06 394.518 285.06C390.719 285.06 387.62 284.479 385.221 283.318C382.822 282.106 381.623 280.792 381.623 279.378C381.623 278.772 381.773 278.191 382.073 277.636C382.422 277.03 382.922 276.55 383.572 276.196C384.921 277.156 386.496 278.04 388.295 278.848C390.094 279.656 392.144 280.06 394.443 280.06C399.641 280.06 402.24 278.292 402.24 274.757C402.24 273.292 401.79 272.105 400.89 271.196C400.04 270.237 398.766 269.555 397.067 269.151L390.844 267.484C387.795 266.727 385.571 265.565 384.172 263.999C382.772 262.383 382.073 260.388 382.073 258.014C382.073 255.338 383.147 253.014 385.296 251.045C387.445 249.075 390.719 248.09 395.117 248.09C397.466 248.09 399.516 248.342 401.265 248.848C403.014 249.302 404.364 249.933 405.313 250.741C406.313 251.499 406.813 252.332 406.813 253.242C406.813 253.898 406.638 254.479 406.288 254.984C405.988 255.489 405.563 255.868 405.013 256.12C404.414 255.716 403.639 255.287 402.689 254.832C401.79 254.327 400.715 253.923 399.466 253.62C398.216 253.267 396.842 253.09 395.342 253.09C393.143 253.09 391.369 253.519 390.019 254.378C388.67 255.236 387.995 256.449 387.995 258.014C387.995 259.125 388.37 260.11 389.12 260.969C389.919 261.777 391.169 262.383 392.868 262.787L398.041 264.075C401.44 264.883 403.989 266.171 405.688 267.939C407.387 269.656 408.237 271.929 408.237 274.757Z" fill="#406042"/>
<path d="M441.769 274.757C441.769 277.989 440.594 280.515 438.245 282.333C435.896 284.151 432.497 285.06 428.049 285.06C424.251 285.06 421.152 284.479 418.753 283.318C416.354 282.106 415.154 280.792 415.154 279.378C415.154 278.772 415.304 278.191 415.604 277.636C415.954 277.03 416.454 276.55 417.104 276.196C418.453 277.156 420.027 278.04 421.827 278.848C423.626 279.656 425.675 280.06 427.974 280.06C433.172 280.06 435.771 278.292 435.771 274.757C435.771 273.292 435.321 272.105 434.422 271.196C433.572 270.237 432.298 269.555 430.598 269.151L424.376 267.484C421.327 266.727 419.103 265.565 417.703 263.999C416.304 262.383 415.604 260.388 415.604 258.014C415.604 255.338 416.679 253.014 418.828 251.045C420.977 249.075 424.251 248.09 428.649 248.09C430.998 248.09 433.047 248.342 434.797 248.848C436.546 249.302 437.895 249.933 438.845 250.741C439.845 251.499 440.344 252.332 440.344 253.242C440.344 253.898 440.169 254.479 439.82 254.984C439.52 255.489 439.095 255.868 438.545 256.12C437.945 255.716 437.171 255.287 436.221 254.832C435.321 254.327 434.247 253.923 432.997 253.62C431.748 253.267 430.373 253.09 428.874 253.09C426.675 253.09 424.9 253.519 423.551 254.378C422.202 255.236 421.527 256.449 421.527 258.014C421.527 259.125 421.902 260.11 422.651 260.969C423.451 261.777 424.701 262.383 426.4 262.787L431.573 264.075C434.971 264.883 437.521 266.171 439.22 267.939C440.919 269.656 441.769 271.929 441.769 274.757Z" fill="#406042"/>
<path d="M453.4 270.439L453.1 265.666L475.742 262.56C475.542 259.782 474.592 257.509 472.893 255.742C471.193 253.923 468.844 253.014 465.845 253.014C462.747 253.014 460.173 254.151 458.123 256.423C456.124 258.646 455.125 261.853 455.125 266.045V267.711C455.475 271.752 456.774 274.833 459.023 276.954C461.322 279.025 464.446 280.06 468.394 280.06C470.494 280.06 472.393 279.707 474.092 278.999C475.791 278.292 477.141 277.535 478.141 276.727C478.69 277.08 479.115 277.51 479.415 278.015C479.765 278.469 479.94 278.999 479.94 279.606C479.94 280.565 479.39 281.474 478.29 282.333C477.241 283.141 475.816 283.798 474.017 284.303C472.268 284.808 470.294 285.06 468.095 285.06C464.246 285.06 460.897 284.353 458.048 282.939C455.25 281.525 453.075 279.429 451.526 276.651C450.027 273.823 449.277 270.388 449.277 266.348C449.277 263.469 449.677 260.918 450.477 258.696C451.326 256.423 452.476 254.504 453.925 252.938C455.425 251.373 457.199 250.186 459.248 249.378C461.297 248.519 463.521 248.09 465.92 248.09C468.969 248.09 471.643 248.747 473.942 250.06C476.291 251.373 478.116 253.216 479.415 255.59C480.765 257.913 481.439 260.59 481.439 263.62C481.439 264.732 481.189 265.54 480.69 266.045C480.19 266.499 479.49 266.777 478.59 266.878L453.4 270.439Z" fill="#406042"/>
<path d="M520.091 260.969V268.696H514.093V261.272C514.093 258.444 513.293 256.373 511.694 255.06C510.145 253.747 508.045 253.09 505.396 253.09C503.397 253.09 501.623 253.343 500.073 253.848C498.524 254.353 497.2 254.933 496.1 255.59V268.696H490.102V255.893C490.102 254.832 490.302 253.974 490.702 253.317C491.152 252.61 491.902 251.928 492.951 251.272C494.251 250.514 495.975 249.807 498.124 249.151C500.273 248.443 502.697 248.09 505.396 248.09C509.945 248.09 513.518 249.151 516.117 251.272C518.766 253.343 520.091 256.575 520.091 260.969ZM490.102 264.53H496.1V283.924C495.85 284.025 495.475 284.126 494.975 284.227C494.476 284.378 493.926 284.454 493.326 284.454C492.277 284.454 491.477 284.252 490.927 283.848C490.377 283.393 490.102 282.686 490.102 281.727V264.53ZM514.093 264.53H520.091V283.924C519.841 284.025 519.441 284.126 518.891 284.227C518.391 284.378 517.866 284.454 517.317 284.454C516.217 284.454 515.392 284.252 514.843 283.848C514.343 283.393 514.093 282.686 514.093 281.727V264.53Z" fill="#406042"/>
<path d="M547.365 253.166C543.966 253.166 541.143 254.327 538.893 256.651C536.644 258.974 535.52 262.307 535.52 266.651C535.52 270.944 536.594 274.252 538.744 276.575C540.943 278.898 543.817 280.06 547.365 280.06C549.464 280.06 551.214 279.782 552.613 279.227C554.013 278.621 555.262 277.939 556.362 277.181C556.911 277.484 557.361 277.863 557.711 278.318C558.061 278.772 558.236 279.328 558.236 279.984C558.236 281.398 557.186 282.611 555.087 283.621C553.038 284.58 550.464 285.06 547.365 285.06C543.917 285.06 540.818 284.404 538.069 283.09C535.37 281.727 533.246 279.681 531.696 276.954C530.147 274.227 529.372 270.792 529.372 266.651C529.372 262.56 530.172 259.151 531.771 256.423C533.371 253.646 535.52 251.575 538.219 250.211C540.968 248.797 543.966 248.09 547.215 248.09C550.314 248.09 552.863 248.62 554.862 249.681C556.911 250.741 557.936 251.954 557.936 253.317C557.936 253.923 557.761 254.454 557.411 254.908C557.061 255.363 556.611 255.716 556.062 255.969C554.962 255.211 553.738 254.555 552.388 253.999C551.089 253.444 549.414 253.166 547.365 253.166Z" fill="#406042"/>
<path d="M568.418 270.439L568.118 265.666L590.759 262.56C590.56 259.782 589.61 257.509 587.911 255.742C586.211 253.923 583.862 253.014 580.863 253.014C577.765 253.014 575.191 254.151 573.141 256.423C571.142 258.646 570.143 261.853 570.143 266.045V267.711C570.492 271.752 571.792 274.833 574.041 276.954C576.34 279.025 579.464 280.06 583.412 280.06C585.512 280.06 587.411 279.707 589.11 278.999C590.809 278.292 592.159 277.535 593.159 276.727C593.708 277.08 594.133 277.51 594.433 278.015C594.783 278.469 594.958 278.999 594.958 279.606C594.958 280.565 594.408 281.474 593.308 282.333C592.259 283.141 590.834 283.798 589.035 284.303C587.286 284.808 585.312 285.06 583.112 285.06C579.264 285.06 575.915 284.353 573.066 282.939C570.268 281.525 568.093 279.429 566.544 276.651C565.045 273.823 564.295 270.388 564.295 266.348C564.295 263.469 564.695 260.918 565.494 258.696C566.344 256.423 567.494 254.504 568.943 252.938C570.443 251.373 572.217 250.186 574.266 249.378C576.315 248.519 578.539 248.09 580.938 248.09C583.987 248.09 586.661 248.747 588.96 250.06C591.309 251.373 593.134 253.216 594.433 255.59C595.782 257.913 596.457 260.59 596.457 263.62C596.457 264.732 596.207 265.54 595.708 266.045C595.208 266.499 594.508 266.777 593.608 266.878L568.418 270.439Z" fill="#406042"/>
<path d="M630 274.757C630 277.989 628.826 280.515 626.476 282.333C624.127 284.151 620.729 285.06 616.28 285.06C612.482 285.06 609.383 284.479 606.984 283.318C604.585 282.106 603.385 280.792 603.385 279.378C603.385 278.772 603.535 278.191 603.835 277.636C604.185 277.03 604.685 276.55 605.335 276.196C606.684 277.156 608.259 278.04 610.058 278.848C611.857 279.656 613.906 280.06 616.205 280.06C621.403 280.06 624.002 278.292 624.002 274.757C624.002 273.292 623.553 272.105 622.653 271.196C621.803 270.237 620.529 269.555 618.829 269.151L612.607 267.484C609.558 266.727 607.334 265.565 605.935 263.999C604.535 262.383 603.835 260.388 603.835 258.014C603.835 255.338 604.91 253.014 607.059 251.045C609.208 249.075 612.482 248.09 616.88 248.09C619.229 248.09 621.278 248.342 623.028 248.848C624.777 249.302 626.127 249.933 627.076 250.741C628.076 251.499 628.576 252.332 628.576 253.242C628.576 253.898 628.401 254.479 628.051 254.984C627.751 255.489 627.326 255.868 626.776 256.12C626.177 255.716 625.402 255.287 624.452 254.832C623.553 254.327 622.478 253.923 621.229 253.62C619.979 253.267 618.605 253.09 617.105 253.09C614.906 253.09 613.132 253.519 611.782 254.378C610.433 255.236 609.758 256.449 609.758 258.014C609.758 259.125 610.133 260.11 610.883 260.969C611.682 261.777 612.932 262.383 614.631 262.787L619.804 264.075C623.203 264.883 625.752 266.171 627.451 267.939C629.15 269.656 630 271.929 630 274.757Z" fill="#406042"/>
<path d="M59.6419 18.9939C59.6419 16.2774 61.8476 14.0752 64.5685 14.0752H132.936C135.657 14.0752 137.863 16.2774 137.863 18.9939C137.863 21.7105 135.657 23.9127 132.936 23.9127H64.5685C61.8476 23.9127 59.6419 21.7105 59.6419 18.9939ZM56.3069 63.7167C56.3069 60.9584 58.5465 58.7223 61.3093 58.7223H135.286C138.049 58.7223 140.288 60.9584 140.288 63.7167C140.288 66.4751 138.049 68.7112 135.286 68.7112H61.3093C58.5465 68.7112 56.3069 66.4751 56.3069 63.7167ZM94.0319 5.40086C94.2684 2.38536 96.7456 0 99.7752 0C103.068 0 105.675 2.79889 105.32 6.06701C104.716 11.6262 103.891 16.7172 102.845 21.3398C101.532 27.4946 99.3588 32.8926 96.327 37.5338C93.2951 42.1751 89.0506 46.1101 83.5933 49.3388C79.2256 51.9229 73.7897 54.1516 67.2857 56.0247C64.4052 56.8543 61.3707 55.2651 59.6419 52.8198C58.4214 50.9921 59.2661 47.9986 61.3852 47.4075C66.9041 45.8681 71.5276 44.0904 75.2558 42.0742C80.1067 39.35 83.8459 36.0708 86.4735 32.2367C89.2022 28.3017 91.1223 23.7109 92.234 18.4642C93.0524 14.6019 93.6516 10.2474 94.0319 5.40086ZM96.2382 37.8436C93.1339 36.4568 92.2099 32.4008 94.5392 29.9268C95.891 28.491 97.9898 28.0257 99.8048 28.8001C103.585 30.4132 107.428 32.2145 111.334 34.2042C116.388 36.7267 121.238 39.2995 125.887 41.9229C128.373 43.3258 130.628 44.671 132.652 45.9585C135.272 47.6256 135.693 51.1983 133.678 53.5598C131.853 55.6988 128.683 56.0539 126.347 54.4862C124.125 52.9946 121.647 51.4302 118.914 49.7929C114.366 47.0687 109.515 44.3949 104.361 41.7715C101.609 40.3425 98.9009 39.0331 96.2382 37.8436ZM118.459 68.0302C118.459 65.0628 120.869 62.6573 123.841 62.6573C126.813 62.6573 129.222 65.0628 129.222 68.0302V127.282C129.222 130.41 128.818 132.781 128.01 134.395C127.201 136.01 125.584 137.17 123.159 137.876C120.935 138.684 117.903 139.188 114.063 139.39C111.422 139.529 108.302 139.62 104.705 139.663C101.724 139.699 99.1765 137.49 98.1461 134.698C97.298 132.4 99.0061 129.8 101.459 129.834C102.506 129.848 103.524 129.855 104.513 129.855C107.14 129.855 109.414 129.855 111.334 129.855C113.255 129.855 114.619 129.855 115.427 129.855C115.562 129.843 115.691 129.828 115.815 129.812C117.165 129.631 118.42 128.646 118.457 127.287C118.459 127.236 118.459 127.184 118.459 127.131V68.0302ZM68.9258 87.2127C64.841 84.947 66.4623 78.7382 71.1352 78.752L94.2268 78.8204C99.9964 78.8375 104.664 83.512 104.664 89.2723V98.6973C104.664 107.881 97.2077 115.326 88.0092 115.326H74.3462C71.9183 115.326 69.9501 113.361 69.9501 110.937C69.9501 108.513 71.9183 106.548 74.3462 106.548H85.5641C90.7548 106.548 94.9626 102.347 94.9626 97.1642C94.9626 91.9819 90.7548 87.7808 85.5641 87.7808H71.1217C70.3533 87.7808 69.5976 87.5853 68.9258 87.2127ZM65.7055 83.468C65.7055 80.9064 67.7636 78.8182 70.3291 78.7769C72.9537 78.7346 75.1042 80.8473 75.1042 83.468V120.017C75.1042 122.609 73.0002 124.709 70.4048 124.709C67.8095 124.709 65.7055 122.609 65.7055 120.017V83.468ZM22.9065 4.78179C23.9893 2.17263 26.9392 0.818128 29.5846 1.81854C32.375 2.87379 33.6582 6.09506 32.2913 8.74314C31.1645 10.9262 29.9731 13.1576 28.7172 15.4373C26.595 19.4732 24.4222 23.4082 22.1988 27.2423C20.7856 29.7282 19.4172 32.0128 18.0936 34.0961C16.9852 35.8407 14.7595 36.4723 12.8671 35.6367C10.4501 34.5693 9.56886 31.5907 10.8951 29.3083C11.9698 27.4587 13.0596 25.4584 14.1645 23.3073C16.2868 19.3723 18.2574 15.3364 20.0765 11.1996C21.1254 8.93991 22.0687 6.80064 22.9065 4.78179ZM39.4808 21.6418C40.7745 19.2208 43.7408 18.198 46.2223 19.3777C48.9346 20.6672 49.9253 24.0235 48.3183 26.5576C45.6827 30.7136 42.8377 35.0787 39.7834 39.6527C35.5388 45.9083 31.2438 51.9622 26.8981 57.8142C23.4204 62.6091 20.0783 66.896 16.8719 70.6748C15.6613 72.1015 13.6048 72.4422 11.9744 71.5221C9.80699 70.2991 9.29109 67.4082 10.8502 65.4704C12.7505 63.1084 14.7143 60.5564 16.7415 57.8142C19.8744 53.4756 22.9568 48.9857 25.9886 44.3444C29.0204 39.6022 31.9007 34.9105 34.6293 30.2692C36.3945 27.2668 38.0116 24.391 39.4808 21.6418ZM3.78843 34.7163C2.05316 32.9465 1.87583 30.1531 3.44011 28.231C5.15393 26.1251 8.28671 25.8668 10.2361 27.7575C11.7477 29.2236 13.2592 30.7671 14.7708 32.3881C17.6005 35.3141 20.1776 38.1897 22.502 41.0148C24.8264 43.8399 25.7824 44.6597 27.9593 48.7335C30.1361 52.8072 22.9062 59.6304 21.5924 57.2089C20.2787 54.7873 16.1352 49.0362 16.1352 49.0362C16.1352 49.0362 11.4358 42.9823 8.70719 39.9554C7.04894 38.1159 5.40935 36.3695 3.78843 34.7163ZM38.5696 56.5083C37.2264 54.0778 38.2299 50.9581 40.8114 49.9272C42.7711 49.1446 45.0208 49.8431 46.1098 51.6483C47.536 54.0125 48.9138 56.5219 50.2432 59.1763C52.1634 63.0104 53.8814 66.7437 55.3973 70.376C56.309 72.3671 57.0761 74.2299 57.6987 75.9644C58.4773 78.1338 57.3662 80.4665 55.2746 81.441C52.4743 82.7457 49.1607 81.0984 48.1486 78.1833C47.701 76.894 47.1864 75.5528 46.605 74.1596C45.1902 70.4264 43.5732 66.6428 41.7541 62.8087C40.7397 60.6144 39.6782 58.5143 38.5696 56.5083ZM0.0459455 72.3758C-0.350468 69.4295 1.8663 66.7771 4.84074 66.6412C10.1277 66.3998 16.0653 66.1312 22.6536 65.8356C30.1289 65.421 37.7408 65.0063 45.4892 64.5917C48.2375 64.4446 50.5464 66.6304 50.5464 69.3783C50.5464 71.8996 48.5904 73.99 46.0709 74.1619C38.6849 74.6656 31.3339 75.1693 24.0179 75.6731C17.2518 76.0658 11.037 76.428 5.37334 76.7596C2.72225 76.9148 0.399502 75.0036 0.0459455 72.3758ZM41.7031 93.0725C40.8191 90.6332 42.1211 87.9026 44.6159 87.178C46.7094 86.5699 48.939 87.5993 49.7451 89.6218C51.0821 92.9761 52.3093 96.5497 53.4266 100.343C54.4699 103.814 55.2738 106.976 55.8385 109.826C56.2585 111.947 54.9581 113.992 52.8972 114.655C50.1499 115.538 47.2779 113.627 46.7342 110.797C46.2675 108.367 45.6181 105.74 44.7859 102.915C43.8473 99.4346 42.8196 96.1536 41.7031 93.0725ZM7.88313 91.4778C8.28689 88.8006 10.7777 86.9221 13.4559 87.3466C16.0371 87.7556 17.8201 90.1556 17.3914 92.7295C16.4626 98.3055 15.2859 103.82 13.8613 109.272C12.4461 114.924 10.8252 119.891 8.99857 124.173C8.39482 125.588 6.62339 126.103 5.22059 125.466C4.10892 124.861 2.99725 124.306 1.88558 123.801C0.38224 123.119 -0.287184 121.298 0.41288 119.805C2.29386 115.793 3.8459 111.222 5.06899 106.094C6.20604 101.25 7.14409 96.3782 7.88313 91.4778ZM24.6243 76.4299C24.6243 73.6715 26.864 71.4354 29.6268 71.4354C32.3896 71.4354 34.6293 73.6715 34.6293 76.4299V134.244C34.6293 137.002 32.3896 139.238 29.6268 139.238C26.864 139.238 24.6243 137.002 24.6243 134.244V76.4299Z" fill="#5E8A61"/>
<path d="M16.7803 214.369C20.0458 214.369 110.366 214.369 130.797 214.369C133.085 214.369 134.878 216.22 134.878 218.504C134.878 220.789 133.08 222.64 130.792 222.64C110.619 222.64 22.3811 222.64 16.7803 222.64C10.4536 222.64 13.0973 214.369 16.7803 214.369ZM11.8093 219.632C11.8093 216.725 14.1698 214.369 17.0815 214.369C19.9933 214.369 22.3538 216.725 22.3538 219.632V240.537C22.3538 245.049 22.1529 249.961 21.7512 255.275C21.3495 260.589 20.5964 266.003 19.4917 271.517C18.4875 276.932 16.9811 282.245 14.9727 287.459C13.485 291.524 11.631 295.315 9.41067 298.831C8.4882 300.292 6.31071 300.351 5.03074 299.189C4.02651 298.287 2.92185 297.435 1.71677 296.633C0.302473 295.606 -0.118646 293.597 0.808792 292.117C3.72023 287.47 5.93093 282.509 7.4409 277.232C9.24852 270.816 10.4034 264.399 10.9055 257.982C11.508 251.565 11.8093 245.7 11.8093 240.386V219.632ZM65.7366 210.534C65.7366 207.834 67.9285 205.646 70.6323 205.646C73.3361 205.646 75.5279 207.834 75.5279 210.534V214.143C75.5279 216.842 73.3361 219.031 70.6323 219.031C67.9285 219.031 65.7366 216.842 65.7366 214.143V210.534ZM47.5098 221.136C47.5098 212.414 57.753 215.421 57.753 221.136C57.753 226.851 57.753 252.418 57.753 253.47C57.753 254.523 47.5098 255.425 47.5098 253.47C47.5098 251.516 47.5098 229.859 47.5098 221.136ZM84.1141 221.136C84.1141 212.414 94.3573 213.918 94.3573 221.136C94.3573 228.355 94.3573 252.418 94.3573 253.47C94.3573 254.523 84.1141 254.523 84.1141 253.47C84.1141 252.418 84.1141 229.859 84.1141 221.136ZM38.6223 271.442C38.6223 269.241 40.4095 267.457 42.6141 267.457H70.9336C73.1382 267.457 74.9254 269.241 74.9254 271.442C74.9254 273.643 73.1382 275.428 70.9336 275.428H42.6141C40.4095 275.428 38.6223 273.643 38.6223 271.442ZM19.1906 295.206C18.9413 292.758 20.732 290.574 23.1858 290.341C29.4687 289.746 36.7231 289.086 44.949 288.361C53.7207 287.503 62.6766 286.607 71.8165 285.675C74.2853 285.423 76.4317 287.357 76.4317 289.835C76.4317 291.985 74.7972 293.785 72.6538 293.997C63.6931 294.887 54.8097 295.816 46.0035 296.783C37.9358 297.678 30.6287 298.474 24.082 299.171C21.6327 299.432 19.4398 297.653 19.1906 295.206ZM123.26 262.297C124.845 261.711 126.636 262.02 127.88 263.161C130.298 265.378 129.466 269.345 126.323 270.287C124.249 270.908 122.08 271.519 119.815 272.119C114.894 273.322 109.822 274.425 104.6 275.428C100.637 276.203 93.7881 277.399 90.8923 277.901C90.011 278.053 89.0648 277.949 88.4331 277.317C88.0066 276.89 87.6498 276.327 87.7877 275.703C87.9486 274.975 88.2203 274.099 87.8786 273.436C87.3321 272.376 87.9727 271.119 89.1454 270.891C93.0577 270.131 97.0043 269.338 100.985 268.51C105.906 267.407 110.525 266.254 114.844 265.051C118.044 264.106 120.85 263.189 123.26 262.297ZM81.5533 256.629C81.5533 248.808 92.0977 248.808 92.0977 256.629C92.0977 264.449 92.0977 286.406 92.0977 286.406C92.0977 288.311 92.5497 289.514 93.4535 290.016C94.4577 290.617 96.6168 290.918 99.9308 290.918C100.634 290.918 102.04 290.918 104.149 290.918C106.358 290.918 108.718 290.918 111.228 290.918C113.839 290.918 116.25 290.918 118.459 290.918C120.668 290.918 122.275 290.918 123.279 290.918C125.087 290.918 126.443 290.567 127.346 289.865C128.351 289.163 129.003 287.81 129.305 285.805C129.529 284.686 129.721 283.24 129.883 281.467C130.083 279.268 132.532 277.895 134.577 278.736C137.274 279.784 139.265 282.398 138.854 285.258C138.457 288.024 137.935 290.312 137.288 292.121C136.384 294.928 134.928 296.833 132.92 297.836C130.911 298.939 128.1 299.49 124.484 299.49C123.882 299.49 122.727 299.49 121.02 299.49C119.312 299.49 117.304 299.49 114.994 299.49C112.785 299.49 110.525 299.49 108.216 299.49C106.006 299.49 104.048 299.49 102.341 299.49C100.634 299.49 99.4789 299.49 98.8763 299.49C94.3573 299.49 90.7923 299.139 88.1812 298.437C85.6707 297.736 83.9133 296.432 82.909 294.527C82.0052 292.622 81.5533 289.915 81.5533 286.406C81.5533 286.406 81.5533 264.449 81.5533 256.629ZM17.0815 234.822C17.0815 232.662 18.835 230.912 20.998 230.912H118.764C125.334 230.912 130.66 236.229 130.66 242.789V245.353C130.66 251.912 125.334 257.23 118.764 257.23H20.9227C18.8013 257.23 17.0815 255.513 17.0815 253.395C17.0815 251.277 18.8013 249.56 20.9227 249.56H114.693C117.688 249.56 120.116 247.136 120.116 244.146C120.116 241.156 117.688 238.732 114.693 238.732H20.998C18.835 238.732 17.0815 236.981 17.0815 234.822ZM32.8982 256.629C32.8982 248.808 43.4427 248.808 43.4427 256.629C43.4427 262.455 43.4427 279.798 43.4427 288.266C43.4427 290.97 41.3902 293.228 38.695 293.497C35.5914 293.807 32.8982 291.377 32.8982 288.262C32.8982 279.227 32.8982 262.265 32.8982 256.629ZM6.53709 172.184C6.53709 169.983 8.32428 168.199 10.5289 168.199H62.7993C65.0039 168.199 66.7911 169.983 66.7911 172.184C66.7911 174.385 65.0039 176.169 62.7993 176.169H10.5289C8.32427 176.169 6.53709 174.385 6.53709 172.184ZM74.3228 172.184C74.3228 169.983 76.11 168.199 78.3146 168.199H131.188C133.392 168.199 135.179 169.983 135.179 172.184C135.179 174.385 133.392 176.169 131.188 176.169H78.3146C76.11 176.169 74.3228 174.385 74.3228 172.184ZM11.508 194.965C11.508 188.405 16.8343 183.087 23.4047 183.087H51.7311C58.3014 183.087 63.6277 188.405 63.6277 194.965V205.12C63.6277 207.902 61.3685 210.158 58.5815 210.158C55.7945 210.158 53.5352 207.902 53.5352 205.12V200.157C53.5352 194.633 49.0504 190.156 43.5181 190.156H31.6177C26.0022 190.156 21.45 194.701 21.45 200.307V205.496C21.45 208.237 19.2244 210.458 16.479 210.458C13.7336 210.458 11.508 208.237 11.508 205.496V194.965ZM77.7874 194.965C77.7874 188.405 83.1137 183.087 89.6841 183.087H119.065C125.635 183.087 130.962 188.405 130.962 194.965V205.044C130.962 207.868 128.669 210.158 125.84 210.158C123.011 210.158 120.718 207.868 120.718 205.044V200.157C120.718 194.633 116.234 190.156 110.701 190.156H97.8971C92.2816 190.156 87.7293 194.701 87.7293 200.307V205.496C87.7293 208.237 85.5038 210.458 82.7584 210.458C80.013 210.458 77.7874 208.237 77.7874 205.496V194.965ZM31.0956 199.861C29.4198 198.188 29.4524 195.4 31.2847 193.899C32.6678 192.766 34.6629 192.733 36.0028 193.917C37.5002 195.24 38.976 196.693 40.43 198.277C41.6598 199.505 42.7331 200.676 43.6497 201.79C44.9177 203.331 44.5745 205.554 43.0551 206.849C41.1935 208.436 38.3377 208.013 36.7861 206.122C36.0705 205.251 35.2767 204.34 34.4046 203.39C33.3016 202.139 32.1986 200.962 31.0956 199.861ZM97.6981 199.918C95.8995 198.307 95.8145 195.438 97.6589 193.88C98.9903 192.755 100.928 192.684 102.279 193.786C103.862 195.077 105.489 196.524 107.161 198.126C108.569 199.419 109.771 200.649 110.769 201.816C112.009 203.267 111.736 205.389 110.35 206.702C108.535 208.421 105.578 208.083 103.932 206.202C103.14 205.297 102.258 204.36 101.286 203.39C100.09 202.146 98.8942 200.989 97.6981 199.918Z" fill="#5E8A61"/>
</svg>
