<svg width="27" height="27" viewBox="0 0 27 27" fill="none" xmlns="http://www.w3.org/2000/svg">
<path d="M14.8802 7.43021L13.5119 6.12579L13.6359 5.96162C13.7976 5.96226 13.4185 5.96162 13.476 6.03785C13.5336 6.11408 13.7614 5.89283 13.8757 5.78385C13.99 5.67486 14.0806 5.54537 14.1421 5.40285C14.2037 5.26034 14.2351 5.10761 14.2344 4.95348C14.2351 4.79935 14.2037 4.64662 14.1421 4.50411C14.0806 4.36159 13.99 4.2321 13.8757 4.12311C13.7614 4.01413 13.5482 3.86911 13.476 3.86911C13.4039 3.86911 13.6377 4.00474 13.476 4.00537L13.5119 3.78114L14.8802 2.47673C15.1099 2.25777 15.239 1.9608 15.239 1.65115C15.239 1.3415 15.1099 1.04452 14.8802 0.825567C14.6506 0.60661 14.339 0.4836 14.0142 0.4836C13.6894 0.4836 13.3779 0.60661 13.1482 0.825567L9.6841 4.12789C9.45442 4.34684 9.32538 4.64381 9.32538 4.95347C9.32538 5.26312 9.45442 5.56009 9.6841 5.77905L13.1482 9.08137C13.3779 9.30032 13.6894 9.42333 14.0142 9.42333C14.339 9.42333 14.6506 9.30032 14.8802 9.08137C15.1099 8.86241 15.239 8.56544 15.239 8.25579C15.239 7.94613 15.1099 7.64916 14.8802 7.43021Z" fill="white"/>
<path d="M12.054 5.04915C11.9387 4.32506 12.4342 3.64807 13.173 3.62717C15.0849 3.57306 16.9871 3.9942 18.6882 4.85933C20.7832 5.92477 22.4613 7.60664 23.4727 9.6546C24.4841 11.7026 24.7748 14.0071 24.3014 16.2253C23.828 18.4434 22.616 20.4565 20.8456 21.965C19.0752 23.4735 16.8412 24.3966 14.4761 24.5971C12.111 24.7976 9.74115 24.2646 7.7194 23.0775C5.69764 21.8904 4.13204 20.1127 3.25562 18.009C2.54987 16.3149 2.3214 14.4824 2.58112 12.6915C2.68687 11.9623 3.43156 11.5497 4.15897 11.7361V11.7361C4.92425 11.9323 5.37191 12.715 5.30523 13.4881C5.20199 14.6852 5.38823 15.8956 5.85818 17.0236C6.51195 18.5929 7.67981 19.919 9.18794 20.8045C10.6961 21.69 12.4638 22.0876 14.2281 21.9381C15.9924 21.7885 17.6589 21.0999 18.9795 19.9747C20.3001 18.8494 21.2042 17.3477 21.5573 15.6931C21.9104 14.0385 21.6936 12.3194 20.9391 10.7917C20.1847 9.26401 18.9329 8.00942 17.3701 7.21465C16.2091 6.62421 14.9226 6.31101 13.6198 6.2929C12.8706 6.28248 12.1708 5.78265 12.054 5.04915V5.04915Z" fill="white"/>
</svg>
