<svg width="100" height="100" viewBox="0 0 100 100" fill="none" xmlns="http://www.w3.org/2000/svg">
<path d="M10.2903 16.33C10.8503 14.98 11.8603 14.52 13.2903 14.56C15.8703 14.63 18.4503 14.57 21.0303 14.58C24.1803 14.59 26.1603 16.12 26.9803 19.17C27.7903 22.18 28.6103 25.19 29.3903 28.2C29.5303 28.75 29.7503 28.93 30.3203 28.93C41.6703 28.96 53.0203 29.01 64.3703 29.06C71.1303 29.09 77.8903 29.12 84.6503 29.16C87.9603 29.18 90.1103 31.78 89.3803 35C87.5403 43.14 85.6603 51.27 83.7503 59.4C83.1203 62.08 80.9003 63.75 78.1103 63.83C77.1303 63.86 76.1503 63.83 75.1703 63.83C61.4403 63.83 47.7203 63.81 33.9903 63.81C33.6303 63.81 33.2703 63.81 32.9103 63.85C31.5703 63.99 30.6203 65.07 30.6203 66.43C30.6203 67.79 31.5803 68.85 32.9303 68.98C33.2903 69.02 33.6503 69.01 34.0103 69.01C49.1303 69.01 64.2503 69.01 79.3703 69.01C81.2103 69.01 82.3003 70.06 82.1203 71.65C82.0203 72.56 81.4503 73.13 80.6603 73.54C82.1903 77.74 81.4403 81.34 77.6803 83.96C74.9403 85.87 71.2103 85.69 68.5303 83.73C65.4603 81.48 64.6103 78.36 65.8303 73.72H51.3803C52.8203 77.84 52.0403 81.41 48.3503 83.92C45.4903 85.88 42.3403 85.86 39.4803 83.91C35.8103 81.42 35.0503 77.87 36.4803 73.65C35.3703 73.65 34.3203 73.66 33.2803 73.65C29.5103 73.59 26.6003 71.09 26.0203 67.44C25.4003 63.49 28.3103 59.67 32.2903 59.22C32.4703 59.2 32.6403 59.17 32.8803 59.14C32.8203 58.84 32.7703 58.57 32.7003 58.3C29.3003 45.67 25.8903 33.03 22.4903 20.4C22.2103 19.38 22.0403 19.24 20.9903 19.24C18.4103 19.24 15.8303 19.2 13.2503 19.25C11.8203 19.28 10.8003 18.79 10.2803 17.42V16.34L10.2903 16.33ZM30.8703 33.6C31.7903 37.04 32.6903 40.34 33.5603 43.65C33.6803 44.11 33.9403 44.17 34.3403 44.16C36.9203 44.15 39.4903 44.16 42.0703 44.16C42.2603 44.16 42.4603 44.12 42.7003 44.09C42.6703 43.73 42.6503 43.42 42.6103 43.12C42.2203 40.19 41.8003 37.25 41.4403 34.32C41.3703 33.78 41.1903 33.64 40.6803 33.64C38.3103 33.64 35.9403 33.63 33.5703 33.62C32.7003 33.62 31.8303 33.62 30.8703 33.62V33.6ZM60.9903 33.74V44.07C61.1103 44.1 61.1803 44.14 61.2503 44.14C63.9303 44.14 66.6103 44.14 69.2903 44.16C69.7503 44.16 69.8403 43.94 69.8903 43.56C70.1903 41.24 70.5003 38.92 70.8003 36.59C70.9203 35.66 71.0303 34.73 71.1503 33.74H60.9903ZM56.2303 44.12V33.71H46.0403C46.5103 37.22 46.9703 40.68 47.4403 44.12H56.2403H56.2303ZM84.9303 33.78C81.9603 33.78 79.1103 33.78 76.2503 33.8C76.0903 33.8 75.8403 34.13 75.8103 34.34C75.5303 36.2 75.2903 38.06 75.0503 39.93C74.8703 41.3 74.7003 42.68 74.5203 44.11H82.5503C83.3403 40.7 84.1203 37.31 84.9403 33.78H84.9303ZM44.7003 59.16C44.6703 58.82 44.6703 58.54 44.6303 58.27C44.2403 55.34 43.8203 52.41 43.4603 49.47C43.3903 48.93 43.2003 48.8 42.6903 48.8C40.3203 48.82 37.9503 48.8 35.5803 48.81C35.4103 48.81 35.2403 48.85 34.9803 48.88C35.8503 52.08 36.6803 55.23 37.5903 58.36C37.6903 58.69 38.2103 59.1 38.5403 59.11C40.5603 59.18 42.5903 59.14 44.6903 59.14L44.7003 59.16ZM60.9903 59.19C63.1803 59.19 65.3103 59.19 67.4503 59.17C67.6003 59.17 67.8503 58.88 67.8803 58.7C68.3103 55.62 68.7203 52.53 69.1203 49.44C69.1403 49.25 69.1203 49.05 69.1203 48.85H60.9903V59.19ZM48.0703 48.85C48.5103 52.19 48.9403 55.43 49.3603 58.67C49.4103 59.1 49.6203 59.21 50.0203 59.2C51.7703 59.18 53.5203 59.2 55.2803 59.2C55.6003 59.2 55.9303 59.2 56.2403 59.2V48.86H48.0703V48.85ZM73.8803 48.85C73.4303 52.29 72.9803 55.69 72.5203 59.18C74.4803 59.18 76.3603 59.21 78.2303 59.17C78.9203 59.15 79.2203 58.63 79.3603 57.99C79.8703 55.71 80.4003 53.43 80.9303 51.14C81.1003 50.4 81.2703 49.66 81.4503 48.85H73.8903H73.8803ZM43.9303 80.62C45.8703 80.62 47.4403 79.08 47.4503 77.16C47.4503 75.26 45.8503 73.65 43.9503 73.66C42.0603 73.66 40.5103 75.22 40.4903 77.11C40.4703 79.06 41.9903 80.61 43.9403 80.62H43.9303ZM73.2703 80.62C75.2203 80.64 76.7803 79.13 76.8003 77.18C76.8203 75.26 75.2503 73.67 73.3403 73.66C71.4603 73.65 69.9003 75.18 69.8503 77.08C69.8103 79.02 71.3303 80.6 73.2703 80.62Z" fill="white"/>
</svg>
