<svg width="30" height="30" viewBox="0 0 30 30" fill="none" xmlns="http://www.w3.org/2000/svg">
<path d="M3.11628 7.59177C3.28428 7.18677 3.58728 7.04877 4.01628 7.06077C4.79028 7.08177 5.56428 7.06377 6.33828 7.06677C7.28328 7.06977 7.87728 7.52877 8.12328 8.44377C8.36628 9.34677 8.61228 10.2498 8.84628 11.1528C8.88828 11.3178 8.95428 11.3718 9.12528 11.3718C12.5303 11.3808 15.9353 11.3958 19.3403 11.4108C21.3683 11.4198 23.3963 11.4288 25.4243 11.4408C26.4173 11.4468 27.0623 12.2268 26.8433 13.1928C26.2913 15.6348 25.7273 18.0738 25.1543 20.5128C24.9653 21.3168 24.2993 21.8178 23.4623 21.8418C23.1683 21.8508 22.8743 21.8418 22.5803 21.8418C18.4613 21.8418 14.3453 21.8358 10.2263 21.8358C10.1183 21.8358 10.0103 21.8358 9.90228 21.8478C9.50028 21.8898 9.21528 22.2138 9.21528 22.6218C9.21528 23.0298 9.50328 23.3478 9.90828 23.3868C10.0163 23.3988 10.1243 23.3958 10.2323 23.3958C14.7683 23.3958 19.3043 23.3958 23.8403 23.3958C24.3923 23.3958 24.7193 23.7108 24.6653 24.1878C24.6353 24.4608 24.4643 24.6318 24.2273 24.7548C24.6863 26.0148 24.4613 27.0948 23.3333 27.8808C22.5113 28.4538 21.3923 28.3998 20.5883 27.8118C19.6673 27.1368 19.4123 26.2008 19.7783 24.8088H15.4433C15.8753 26.0448 15.6413 27.1158 14.5343 27.8688C13.6763 28.4568 12.7313 28.4508 11.8733 27.8658C10.7723 27.1188 10.5443 26.0538 10.9733 24.7878C10.6403 24.7878 10.3253 24.7908 10.0133 24.7878C8.88228 24.7698 8.00928 24.0198 7.83528 22.9248C7.64928 21.7398 8.52228 20.5938 9.71628 20.4588C9.77028 20.4528 9.82128 20.4438 9.89328 20.4348C9.87528 20.3448 9.86028 20.2638 9.83928 20.1828C8.81928 16.3938 7.79628 12.6018 6.77628 8.81277C6.69228 8.50677 6.64128 8.46477 6.32628 8.46477C5.55228 8.46477 4.77828 8.45277 4.00428 8.46777C3.57528 8.47677 3.26928 8.32977 3.11328 7.91877V7.59477L3.11628 7.59177ZM9.29028 12.7728C9.56628 13.8048 9.83628 14.7948 10.0973 15.7878C10.1333 15.9258 10.2113 15.9438 10.3313 15.9408C11.1053 15.9378 11.8763 15.9408 12.6503 15.9408C12.7073 15.9408 12.7673 15.9288 12.8393 15.9198C12.8303 15.8118 12.8243 15.7188 12.8123 15.6288C12.6953 14.7498 12.5693 13.8678 12.4613 12.9888C12.4403 12.8268 12.3863 12.7848 12.2333 12.7848C11.5223 12.7848 10.8113 12.7818 10.1003 12.7788C9.83928 12.7788 9.57828 12.7788 9.29028 12.7788V12.7728ZM18.3263 12.8148V15.9138C18.3623 15.9228 18.3833 15.9348 18.4043 15.9348C19.2083 15.9348 20.0123 15.9348 20.8163 15.9408C20.9543 15.9408 20.9813 15.8748 20.9963 15.7608C21.0863 15.0648 21.1793 14.3688 21.2693 13.6698C21.3053 13.3908 21.3383 13.1118 21.3743 12.8148H18.3263ZM16.8983 15.9288V12.8058H13.8413C13.9823 13.8588 14.1203 14.8968 14.2613 15.9288H16.9013H16.8983ZM25.5083 12.8268C24.6173 12.8268 23.7623 12.8268 22.9043 12.8328C22.8563 12.8328 22.7813 12.9318 22.7723 12.9948C22.6883 13.5528 22.6163 14.1108 22.5443 14.6718C22.4903 15.0828 22.4393 15.4968 22.3853 15.9258H24.7943C25.0313 14.9028 25.2653 13.8858 25.5113 12.8268H25.5083ZM13.4393 20.4408C13.4303 20.3388 13.4303 20.2548 13.4183 20.1738C13.3013 19.2948 13.1753 18.4158 13.0673 17.5338C13.0463 17.3718 12.9893 17.3328 12.8363 17.3328C12.1253 17.3388 11.4143 17.3328 10.7033 17.3358C10.6523 17.3358 10.6013 17.3478 10.5233 17.3568C10.7843 18.3168 11.0333 19.2618 11.3063 20.2008C11.3363 20.2998 11.4923 20.4228 11.5913 20.4258C12.1973 20.4468 12.8063 20.4348 13.4363 20.4348L13.4393 20.4408ZM18.3263 20.4498C18.9833 20.4498 19.6223 20.4498 20.2643 20.4438C20.3093 20.4438 20.3843 20.3568 20.3933 20.3028C20.5223 19.3788 20.6453 18.4518 20.7653 17.5248C20.7713 17.4678 20.7653 17.4078 20.7653 17.3478H18.3263V20.4498ZM14.4503 17.3478C14.5823 18.3498 14.7113 19.3218 14.8373 20.2938C14.8523 20.4228 14.9153 20.4558 15.0353 20.4528C15.5603 20.4468 16.0853 20.4528 16.6133 20.4528C16.7093 20.4528 16.8083 20.4528 16.9013 20.4528V17.3508H14.4503V17.3478ZM22.1933 17.3478C22.0583 18.3798 21.9233 19.3998 21.7853 20.4468C22.3733 20.4468 22.9373 20.4558 23.4983 20.4438C23.7053 20.4378 23.7953 20.2818 23.8373 20.0898C23.9903 19.4058 24.1493 18.7218 24.3083 18.0348C24.3593 17.8128 24.4103 17.5908 24.4643 17.3478H22.1933ZM13.2083 26.8788C13.7903 26.8788 14.2613 26.4168 14.2643 25.8408C14.2643 25.2708 13.7843 24.7878 13.2143 24.7908C12.6473 24.7908 12.1823 25.2588 12.1763 25.8258C12.1703 26.4108 12.6263 26.8758 13.2113 26.8788H13.2083ZM22.0103 26.8788C22.5953 26.8848 23.0633 26.4318 23.0693 25.8468C23.0753 25.2708 22.6043 24.7938 22.0313 24.7908C21.4673 24.7878 20.9993 25.2468 20.9843 25.8168C20.9723 26.3988 21.4283 26.8728 22.0103 26.8788Z" fill="#406042"/>
<path d="M12.2768 8.69274C12.1783 8.69331 12.0807 8.67441 11.9896 8.63712C11.8984 8.59984 11.8155 8.5449 11.7456 8.47546L10.2493 6.977C10.1084 6.83592 10.0293 6.64457 10.0293 6.44504C10.0293 6.24552 10.1084 6.05417 10.2493 5.91309C10.3902 5.77201 10.5813 5.69275 10.7805 5.69275C10.9797 5.69275 11.1708 5.77201 11.3117 5.91309L12.808 7.41155C12.8781 7.4812 12.9338 7.56407 12.9718 7.65537C13.0097 7.74667 13.0293 7.8446 13.0293 7.94351C13.0293 8.04241 13.0097 8.14034 12.9718 8.23164C12.9338 8.32294 12.8781 8.40581 12.808 8.47546C12.7381 8.5449 12.6552 8.59984 12.564 8.63712C12.4729 8.67441 12.3753 8.69331 12.2768 8.69274Z" fill="#406042"/>
<path d="M21.7818 8.69274C21.6833 8.69331 21.5857 8.67441 21.4946 8.63712C21.4034 8.59984 21.3205 8.5449 21.2506 8.47546C21.1805 8.40581 21.1248 8.32294 21.0868 8.23164C21.0489 8.14034 21.0293 8.04241 21.0293 7.94351C21.0293 7.8446 21.0489 7.74667 21.0868 7.65537C21.1248 7.56407 21.1805 7.4812 21.2506 7.41155L22.7469 5.91309C22.8878 5.77201 23.0789 5.69275 23.2781 5.69275C23.4773 5.69275 23.6684 5.77201 23.8093 5.91309C23.9502 6.05417 24.0293 6.24552 24.0293 6.44504C24.0293 6.64457 23.9502 6.83592 23.8093 6.977L22.313 8.47546C22.2431 8.5449 22.1602 8.59984 22.069 8.63712C21.9779 8.67441 21.8802 8.69331 21.7818 8.69274Z" fill="#406042"/>
<path d="M21.0293 3.67375V4.02375C21.0297 4.33243 20.9612 4.63691 20.8293 4.91275C20.0962 6.45956 18.9024 7.71298 17.4293 8.48275L17.0293 8.69275L16.6293 8.48275C15.1561 7.71298 13.9624 6.45956 13.2293 4.91275C13.0974 4.63691 13.0289 4.33243 13.0293 4.02375V3.67375C13.0293 3.14836 13.2281 2.64448 13.5819 2.27297C13.9357 1.90146 14.4156 1.69275 14.916 1.69275C15.4162 1.69316 15.8958 1.90214 16.2493 2.27375L17.0293 3.09275L17.8093 2.27375C18.1628 1.90214 18.6424 1.69316 19.1426 1.69275C19.643 1.69275 20.1229 1.90146 20.4767 2.27297C20.8305 2.64448 21.0293 3.14836 21.0293 3.67375Z" fill="#5E8A61"/>
</svg>
