<svg width="30" height="30" viewBox="0 0 30 30" fill="none" xmlns="http://www.w3.org/2000/svg">
<path d="M6.5625 4.6875H12.1875V8.325C12.1875 8.60348 12.0769 8.87055 11.88 9.06746C11.683 9.26438 11.416 9.375 11.1375 9.375H7.6125C7.33402 9.375 7.06695 9.26438 6.87004 9.06746C6.67312 8.87055 6.5625 8.60348 6.5625 8.325V4.6875Z" fill="#5E8A61"/>
<path d="M29.4469 15.9375L28.0031 14.4938L26.4188 9.72187C26.2946 9.34771 26.0556 9.02221 25.7358 8.79163C25.4161 8.56106 25.0317 8.43714 24.6375 8.4375H18.75V6.5625C18.75 5.81658 18.4537 5.10121 17.9262 4.57376C17.3988 4.04632 16.6834 3.75 15.9375 3.75H2.8125C2.06658 3.75 1.35121 4.04632 0.823762 4.57376C0.296316 5.10121 0 5.81658 0 6.5625L0 20.625C0 21.3709 0.296316 22.0863 0.823762 22.6137C1.35121 23.1412 2.06658 23.4375 2.8125 23.4375H3.88125C4.10943 24.3212 4.65209 25.0914 5.40751 25.6037C6.16292 26.116 7.07924 26.3351 7.98469 26.2201C8.89014 26.1051 9.72256 25.6638 10.3259 24.979C10.9293 24.2941 11.2622 23.4127 11.2622 22.5C11.2622 21.5873 10.9293 20.7059 10.3259 20.021C9.72256 19.3362 8.89014 18.8949 7.98469 18.7799C7.07924 18.6649 6.16292 18.884 5.40751 19.3963C4.65209 19.9086 4.10943 20.6788 3.88125 21.5625H2.8125C2.56386 21.5625 2.3254 21.4637 2.14959 21.2879C1.97377 21.1121 1.875 20.8736 1.875 20.625V6.5625C1.875 6.31386 1.97377 6.0754 2.14959 5.89959C2.3254 5.72377 2.56386 5.625 2.8125 5.625H15.9375C16.1861 5.625 16.4246 5.72377 16.6004 5.89959C16.7762 6.0754 16.875 6.31386 16.875 6.5625V21.5625H14.0625C13.8139 21.5625 13.5754 21.6613 13.3996 21.8371C13.2238 22.0129 13.125 22.2514 13.125 22.5C13.125 22.7486 13.2238 22.9871 13.3996 23.1629C13.5754 23.3387 13.8139 23.4375 14.0625 23.4375H19.8187C20.0346 24.2319 20.5059 24.9332 21.1599 25.4332C21.8139 25.9332 22.6143 26.2041 23.4375 26.2041C24.2607 26.2041 25.0611 25.9332 25.7151 25.4332C26.3691 24.9332 26.8404 24.2319 27.0563 23.4375H28.125C28.6223 23.4375 29.0992 23.24 29.4508 22.8883C29.8025 22.5367 30 22.0598 30 21.5625V17.2594C29.9979 16.7629 29.799 16.2875 29.4469 15.9375ZM7.5 20.625C7.87084 20.625 8.23335 20.735 8.54169 20.941C8.85004 21.147 9.09036 21.4399 9.23227 21.7825C9.37419 22.1251 9.41132 22.5021 9.33897 22.8658C9.26663 23.2295 9.08805 23.5636 8.82582 23.8258C8.5636 24.088 8.22951 24.2666 7.86579 24.339C7.50208 24.4113 7.12508 24.3742 6.78247 24.2323C6.43986 24.0904 6.14702 23.85 5.94099 23.5417C5.73497 23.2334 5.625 22.8708 5.625 22.5C5.625 22.0027 5.82254 21.5258 6.17417 21.1742C6.52581 20.8225 7.00272 20.625 7.5 20.625ZM25.8844 14.0625H22.5V10.3125H24.6375L25.8844 14.0625ZM23.4375 24.375C23.0667 24.375 22.7041 24.265 22.3958 24.059C22.0875 23.853 21.8471 23.5601 21.7052 23.2175C21.5633 22.8749 21.5262 22.4979 21.5985 22.1342C21.6709 21.7705 21.8495 21.4364 22.1117 21.1742C22.3739 20.912 22.708 20.7334 23.0717 20.661C23.4354 20.5887 23.8124 20.6258 24.155 20.7677C24.4976 20.9096 24.7905 21.15 24.9965 21.4583C25.2025 21.7666 25.3125 22.1292 25.3125 22.5C25.3125 22.9973 25.115 23.4742 24.7633 23.8258C24.4117 24.1775 23.9348 24.375 23.4375 24.375ZM28.125 21.5625H27.0563C26.8404 20.7681 26.3691 20.0668 25.7151 19.5668C25.0611 19.0668 24.2607 18.7959 23.4375 18.7959C22.6143 18.7959 21.8139 19.0668 21.1599 19.5668C20.5059 20.0668 20.0346 20.7681 19.8187 21.5625H18.75V10.3125H20.625V15C20.625 15.2486 20.7238 15.4871 20.8996 15.6629C21.0754 15.8387 21.3139 15.9375 21.5625 15.9375H26.8031L28.125 17.2594V21.5625Z" fill="#406042"/>
</svg>
