<svg width="100" height="26" viewBox="0 0 100 26" fill="none" xmlns="http://www.w3.org/2000/svg">
<path d="M36.6548 11.985C36.6548 5.38297 28.4516 0 18.3274 0C8.20736 0 0.00207676 5.38297 0.00207676 11.985C0.00207676 12.1574 0 12.6288 0 12.6869C0 19.6919 7.17106 25.3656 18.3253 25.3656C29.5502 25.3656 36.6548 19.6939 36.6548 12.689C36.6548 12.444 36.6548 12.3027 36.6548 11.985ZM35.955 11.9808C35.955 18.207 28.0654 23.2535 18.3337 23.2535C8.59987 23.2535 0.710252 18.207 0.710252 11.9808C0.710252 5.75471 8.59987 0.708176 18.3337 0.708176C28.0654 0.708176 35.955 5.75471 35.955 11.9808Z" fill="#393939"/>
<path d="M16.9755 19.6046C16.2008 19.6046 15.5716 19.0024 15.5425 18.236C15.5404 18.1696 15.5342 17.9951 15.3867 17.9951C15.3244 17.9951 15.2704 18.0325 15.2102 18.0865C15.0399 18.2444 14.8239 18.4043 14.5083 18.4043C14.3629 18.4043 14.2071 18.371 14.0431 18.3046C13.2248 17.9723 13.2124 17.4116 13.2456 17.1852C13.256 17.125 13.2581 17.0606 13.2165 17.0128L13.1667 16.9692H13.1168C13.0753 16.9692 13.0317 16.9858 12.9735 17.0253C12.7368 17.1914 12.5104 17.2724 12.2778 17.2724C12.1511 17.2724 12.0224 17.2475 11.8915 17.1956C10.8137 16.7782 10.8989 15.7605 10.9528 15.4553C10.9591 15.393 10.9445 15.3452 10.9051 15.314L10.8282 15.2497L10.7576 15.3182C10.5479 15.5217 10.2737 15.6318 9.98508 15.6318C9.3662 15.6318 8.8657 15.1292 8.8657 14.5124C8.8657 13.8956 9.36828 13.3951 9.98508 13.3951C10.5437 13.3951 11.0193 13.8146 11.0899 14.3712L11.1273 14.6723L11.2934 14.419C11.3121 14.3878 11.7628 13.7046 12.5935 13.7066C12.7513 13.7066 12.9154 13.7316 13.0795 13.7814C13.7419 13.9849 13.8541 14.5851 13.8728 14.8343C13.8832 14.9797 13.987 14.988 14.0078 14.988C14.0638 14.988 14.1074 14.9506 14.1365 14.9195C14.2611 14.7886 14.5332 14.5726 14.961 14.5726C15.1541 14.5726 15.3639 14.6204 15.5757 14.7118C16.6286 15.1624 16.1531 16.4999 16.1468 16.5144C16.0555 16.7366 16.0513 16.8342 16.1385 16.8903L16.1801 16.9111H16.2091C16.2569 16.9111 16.3171 16.8903 16.4127 16.8571C16.556 16.8072 16.774 16.7325 16.9755 16.7325C17.7688 16.7429 18.4126 17.3867 18.4126 18.1717C18.4126 18.9608 17.7667 19.6046 16.9755 19.6046ZM28.1297 13.1584C26.3915 11.6423 22.373 8.14922 21.2847 7.33097C20.6638 6.8637 20.2401 6.61657 19.8663 6.5065C19.7002 6.45458 19.4676 6.39851 19.1706 6.39851C18.8944 6.39851 18.5974 6.44627 18.2859 6.54596C17.5819 6.76817 16.882 7.32682 16.2029 7.8647L16.1697 7.8917C15.5383 8.39428 14.8862 8.91347 14.392 9.02354C14.176 9.0713 13.9538 9.09622 13.7336 9.09622C13.1791 9.09622 12.6849 8.93631 12.498 8.69956C12.4668 8.6601 12.4855 8.59572 12.5582 8.50434L12.5686 8.49188L14.0971 6.84501C15.2954 5.64672 16.4272 4.51489 19.0315 4.45674C19.073 4.45466 19.1187 4.45466 19.1623 4.45466C20.7822 4.45466 22.402 5.18153 22.5848 5.2646C24.105 6.006 25.675 6.38189 27.2513 6.38397C28.8961 6.38397 30.5907 5.97693 32.3746 5.15661C32.1753 4.98839 31.9676 4.8264 31.7558 4.66649C30.1878 5.34559 28.6967 5.68826 27.2554 5.68826C25.7851 5.68618 24.3168 5.33313 22.888 4.63741C22.8132 4.60211 21.0251 3.75894 19.1623 3.75687C19.1124 3.75687 19.0626 3.75894 19.0148 3.75894C16.828 3.80879 15.5944 4.58757 14.7658 5.26667C13.96 5.28744 13.2643 5.48058 12.6475 5.65503C12.093 5.80663 11.6174 5.93954 11.1522 5.93954C10.9612 5.93954 10.6164 5.92293 10.5853 5.92085C10.0515 5.90424 7.3559 5.24591 5.21268 4.43389C4.99462 4.58757 4.78487 4.74748 4.57927 4.91155C6.81802 5.82948 9.54273 6.53765 10.4025 6.59372C10.6413 6.61034 10.8968 6.63734 11.1522 6.63734C11.7213 6.63734 12.2882 6.47743 12.8365 6.32375C13.1604 6.23237 13.5197 6.13476 13.8977 6.06207C13.7959 6.15968 13.6962 6.26144 13.5945 6.36113L12.0411 8.04123C11.9185 8.16583 11.6527 8.49604 11.8272 8.90101C11.8978 9.06507 12.039 9.22083 12.2384 9.35374C12.606 9.60295 13.2705 9.77117 13.8873 9.77325C14.1199 9.77325 14.3421 9.74832 14.5436 9.70471C15.1957 9.55726 15.8789 9.01315 16.6037 8.43789C17.179 7.97892 17.9993 7.39743 18.6265 7.22714C18.8009 7.17937 19.0169 7.1503 19.1893 7.1503C19.2412 7.1503 19.291 7.15237 19.3367 7.1586C19.75 7.21052 20.1508 7.35174 20.8673 7.88962C22.1424 8.84701 27.7871 13.7835 27.8432 13.8333C27.8452 13.8375 28.2045 14.1469 28.1796 14.6619C28.1671 14.9506 28.0072 15.2061 27.7289 15.3826C27.488 15.5363 27.2409 15.6131 26.9896 15.6131C26.6116 15.6131 26.352 15.4366 26.3354 15.4241C26.3147 15.4075 24.3791 13.6339 23.6689 13.0379C23.5546 12.9445 23.4446 12.8593 23.3324 12.8593C23.2743 12.8593 23.2224 12.8842 23.185 12.9299C23.0749 13.0691 23.1995 13.2601 23.347 13.3847L25.6065 15.6546C25.6086 15.6588 25.8868 15.9184 25.918 16.2673C25.9367 16.6432 25.756 16.9588 25.3822 17.2039C25.1164 17.3783 24.8443 17.4697 24.5806 17.4697C24.2337 17.4697 23.9908 17.3098 23.9368 17.2724L23.6128 16.9526C23.0209 16.3711 22.4083 15.7689 21.9618 15.395C21.8517 15.3037 21.7354 15.2206 21.6253 15.2206C21.5693 15.2206 21.5194 15.2393 21.482 15.2808C21.4322 15.3369 21.3948 15.4387 21.5236 15.6089C21.5755 15.6775 21.6357 15.7356 21.6357 15.7356L23.2867 17.5881C23.2992 17.6047 23.6252 17.991 23.322 18.3773L23.2639 18.45C23.2161 18.504 23.1621 18.5559 23.1123 18.5995C22.8298 18.83 22.454 18.8549 22.3065 18.8549C22.2276 18.8549 22.1487 18.8466 22.0843 18.8342C21.9202 18.8051 21.8102 18.7615 21.7582 18.6971L21.7375 18.6763C21.6482 18.5849 20.8175 17.7356 20.1301 17.1624C20.0387 17.0855 19.9265 16.99 19.8102 16.99C19.7521 16.99 19.7002 17.0128 19.6586 17.0564C19.5236 17.206 19.7272 17.4282 19.8144 17.5113L21.2204 19.0605C21.2183 19.0751 21.2017 19.1062 21.1684 19.1561C21.1165 19.2246 20.9462 19.397 20.4353 19.4593C20.3751 19.4676 20.3128 19.4717 20.2505 19.4717C19.723 19.4717 19.1623 19.2163 18.8736 19.0626C19.0065 18.7843 19.073 18.479 19.073 18.1717C19.073 17.0128 18.1343 16.0721 16.9775 16.0721C16.9526 16.0721 16.9277 16.0721 16.9028 16.0741C16.9381 15.5446 16.8654 14.5456 15.8374 14.1054C15.5425 13.9766 15.2476 13.9122 14.961 13.9122C14.7367 13.9122 14.5207 13.9496 14.3193 14.0285C14.1054 13.6132 13.7523 13.312 13.2913 13.1563C13.0358 13.0691 12.7825 13.0234 12.5395 13.0234C12.1096 13.0234 11.7171 13.148 11.3661 13.3993C11.0297 12.9818 10.5209 12.7326 9.98508 12.7326C9.51781 12.7326 9.06715 12.9195 8.73487 13.2518C8.29667 12.9175 6.5605 11.8126 1.91271 10.7597C1.68842 10.7078 1.17338 10.5603 0.855634 10.469C0.803715 10.7182 0.762179 10.9736 0.735181 11.2291C0.735181 11.2291 1.59288 11.4347 1.76318 11.4741C6.50858 12.527 8.07653 13.6236 8.34236 13.8312C8.25306 14.0451 8.20529 14.2777 8.20529 14.5124C8.20529 15.4926 9.00277 16.2922 9.983 16.2922C10.0951 16.2922 10.2031 16.2818 10.3091 16.2631C10.4586 16.9858 10.93 17.532 11.6506 17.8124C11.8625 17.8934 12.0764 17.9349 12.2861 17.9349C12.4211 17.9349 12.5582 17.9183 12.6911 17.8851C12.824 18.2236 13.1251 18.6452 13.7939 18.9172C14.0306 19.0128 14.2653 19.0626 14.4937 19.0626C14.6786 19.0626 14.8613 19.0294 15.0358 18.965C15.3577 19.7479 16.1219 20.265 16.9734 20.265C17.5403 20.2671 18.0824 20.0366 18.477 19.6296C18.8155 19.8185 19.5299 20.1571 20.2526 20.1591C20.346 20.1591 20.4333 20.1508 20.5226 20.1425C21.239 20.0511 21.5734 19.7708 21.7271 19.5527C21.7541 19.5153 21.779 19.4738 21.7998 19.4323C21.9701 19.4821 22.1549 19.5216 22.3688 19.5216C22.7613 19.5216 23.1372 19.3886 23.5173 19.1104C23.8911 18.8425 24.1548 18.4562 24.1943 18.126C24.1943 18.1218 24.1964 18.1177 24.1964 18.1114C24.321 18.1384 24.4518 18.1509 24.5806 18.1509C24.9834 18.1509 25.3801 18.0263 25.7581 17.7771C26.4891 17.2994 26.6179 16.6722 26.6054 16.2631C26.7321 16.288 26.8629 16.3026 26.9938 16.3026C27.3717 16.3026 27.7435 16.1884 28.0986 15.9641C28.5513 15.6733 28.8234 15.2289 28.8649 14.7139C28.894 14.3629 28.8068 14.0098 28.6219 13.7046C29.8472 13.1771 32.6467 12.1553 35.9446 11.4118C35.9238 11.1564 35.8864 10.9051 35.8428 10.6517C31.8534 11.5385 28.8753 12.8261 28.1297 13.1584Z" fill="#393939"/>
<path d="M96.8523 9.11478C96.5341 9.53736 96.0788 9.74815 95.4833 9.74815C94.8888 9.74815 94.4304 9.53736 94.1101 9.11478C93.7888 8.6922 93.6292 8.09055 93.6292 7.31189C93.6292 6.53323 93.7888 5.93363 94.1101 5.51309C94.4304 5.09358 94.8888 4.8828 95.4833 4.8828C96.0788 4.8828 96.5341 5.09358 96.8523 5.51309C97.1705 5.93363 97.3312 6.53323 97.3312 7.31189C97.3312 8.09055 97.1705 8.6922 96.8523 9.11478ZM98.4792 4.39678C97.8223 3.57514 96.8267 3.16381 95.4894 3.16381C94.1541 3.16381 93.1575 3.57514 92.5016 4.39678C91.8447 5.21943 91.5163 6.19046 91.5163 7.31189C91.5163 8.45277 91.8447 9.42788 92.5016 10.2393C93.1575 11.0476 94.1541 11.4538 95.4894 11.4538C96.8267 11.4538 97.8223 11.0476 98.4792 10.2393C99.1361 9.42788 99.4635 8.45277 99.4635 7.31189C99.4635 6.19046 99.1361 5.21943 98.4792 4.39678Z" fill="#393939"/>
<path d="M80.6716 8.15295C80.6583 8.83543 80.4629 9.3061 80.0874 9.56293C79.7119 9.82078 79.3016 9.95072 78.8565 9.95072C78.5751 9.95072 78.3367 9.87194 78.1402 9.71743C77.9438 9.56191 77.8466 9.3102 77.8466 8.96128C77.8466 8.57144 78.0062 8.2829 78.3275 8.09565C78.5188 7.98719 78.8299 7.89306 79.2657 7.81836L79.7303 7.73241C79.9615 7.68842 80.1437 7.64135 80.2767 7.59121C80.4117 7.5421 80.5417 7.47661 80.6716 7.39475V8.15295ZM81.7061 3.70814C81.04 3.37151 80.2787 3.20063 79.4213 3.20063C78.1034 3.20063 77.1733 3.54443 76.632 4.231C76.2913 4.67098 76.101 5.23067 76.0559 5.91315H78.0246C78.0737 5.61233 78.1699 5.37392 78.3152 5.19793C78.5188 4.95952 78.8636 4.83981 79.3517 4.83981C79.7876 4.83981 80.1181 4.89916 80.3432 5.02296C80.5673 5.1437 80.6798 5.36471 80.6798 5.68395C80.6798 5.94692 80.5345 6.13928 80.2398 6.26411C80.0761 6.33574 79.805 6.39508 79.4243 6.44317L78.7265 6.52912C77.9346 6.62837 77.3319 6.79618 76.9246 7.03049C76.1787 7.46024 75.8073 8.15295 75.8073 9.11272C75.8073 9.85147 76.0375 10.4234 76.501 10.8266C76.9635 11.2297 77.5519 11.3986 78.262 11.4323C82.714 11.6308 82.6638 9.08612 82.7047 8.55609V5.62665C82.7047 4.68735 82.3712 4.04785 81.7061 3.70814Z" fill="#393939"/>
<path d="M71.5511 4.94641C72.0606 4.94641 72.4341 5.10398 72.6756 5.41811C72.8414 5.65037 72.9447 5.91334 72.9846 6.20393H75.1814C75.0607 5.0958 74.6729 4.32225 74.018 3.8833C73.3611 3.44741 72.5211 3.22742 71.4928 3.22742C70.2823 3.22742 69.3328 3.59885 68.6462 4.34067C67.9586 5.08352 67.6148 6.12105 67.6148 7.45531C67.6148 8.63609 67.9259 9.59893 68.548 10.3418C69.1701 11.0826 70.1411 11.454 71.461 11.454C72.782 11.454 73.7786 11.0099 74.4509 10.1197C74.8714 9.56823 75.1078 8.98296 75.1579 8.36494H72.9693C72.9242 8.7732 72.7963 9.10676 72.5845 9.36359C72.3738 9.61939 72.0177 9.74831 71.5143 9.74831C70.8062 9.74831 70.3232 9.426 70.0664 8.77729C69.9262 8.43247 69.8556 7.9751 69.8556 7.40517C69.8556 6.80762 69.9262 6.32876 70.0664 5.96757C70.3335 5.28816 70.8287 4.94641 71.5511 4.94641Z" fill="#393939"/>
<path d="M67.0275 3.22742C62.5162 3.22742 62.7832 7.22202 62.7832 7.22202V11.279H64.8296V7.47373C64.8296 6.8506 64.9084 6.38811 65.065 6.08831C65.3453 5.55624 65.8948 5.28918 66.7134 5.28918C66.7747 5.28918 66.8556 5.29225 66.9559 5.29737C67.0551 5.30146 67.1687 5.31067 67.2986 5.32602V3.24277C67.2076 3.23663 67.1492 3.23458 67.1237 3.23151C67.0971 3.22947 67.0653 3.22742 67.0275 3.22742Z" fill="#393939"/>
<path d="M56.7552 5.3475C57.0437 5.0518 57.4479 4.90343 57.9687 4.90343C58.4496 4.90343 58.8507 5.04259 59.1751 5.32295C59.4984 5.60126 59.6795 6.01156 59.7164 6.55079H56.2139C56.2866 6.04431 56.4677 5.64423 56.7552 5.3475ZM59.5066 9.15895C59.4207 9.28173 59.3286 9.38712 59.2262 9.46898C58.9377 9.70739 58.5448 9.77901 58.0823 9.77901C57.6444 9.77901 57.3026 9.7125 56.9926 9.51707C56.482 9.20397 56.1945 8.67292 56.1638 7.89222H61.8283C61.8364 7.221 61.8139 6.70735 61.7597 6.34922C61.6656 5.74042 61.4589 5.20323 61.1407 4.74177C60.7877 4.21788 60.3385 3.83418 59.7962 3.59066C59.2549 3.34816 58.6461 3.22742 57.9687 3.22742C56.8278 3.22742 55.9018 3.58657 55.1876 4.30486C54.4734 5.02417 54.1153 6.05659 54.1153 7.40312C54.1153 8.84175 54.5113 9.87928 55.3033 10.5167C56.0942 11.1542 57.0079 11.4745 58.0424 11.4745C59.2958 11.4745 60.2709 11.0959 60.9677 10.3397C61.3433 9.9417 61.5786 9.54777 61.6778 9.15895H59.5066Z" fill="#393939"/>
<path d="M53.2964 11.2772H51.426V6.56838C51.426 6.13863 51.2848 5.11543 50.0508 5.11543C49.2281 5.11543 48.6336 5.70889 48.6336 6.56838V11.2772H46.7622V6.56838C46.7622 6.13863 46.6343 5.11543 45.4013 5.11543C44.5643 5.11543 43.9832 5.70889 43.9832 6.56838V11.2772H42.1127V6.6134C42.1127 4.66931 43.402 3.19896 45.4013 3.19896C46.3938 3.19896 47.2012 3.61643 47.7261 4.28459C48.2786 3.61643 49.1002 3.19896 50.0508 3.19896C52.0921 3.19896 53.2964 4.60996 53.2964 6.6134V11.2772Z" fill="#393939"/>
<path d="M88.4515 9.12914C88.1527 9.55787 87.7138 9.77172 87.1387 9.77172C86.5627 9.77172 86.1339 9.55582 85.8515 9.12607C85.5691 8.69428 85.4279 8.06808 85.4279 7.34979C85.4279 6.68368 85.5661 6.12603 85.8444 5.67684C86.1217 5.22766 86.5575 5.00255 87.153 5.00255C87.5429 5.00255 87.8857 5.12534 88.1814 5.37295C88.6613 5.78224 88.9017 6.51587 88.9017 7.46746C88.9017 8.14686 88.7513 8.70144 88.4515 9.12914ZM90.9072 0.766479C90.9072 0.766479 88.8444 0.54649 88.8444 2.20306L88.8434 4.39579C88.6152 4.02948 88.3185 3.74196 87.9522 3.5363C87.5869 3.32961 87.1684 3.22524 86.6957 3.22524C85.6735 3.22524 84.858 3.60588 84.2461 4.36714C83.6342 5.12841 83.3303 6.22528 83.3303 7.55238C83.3303 8.70349 83.6404 9.64689 84.2604 10.3826C84.8815 11.1162 86.0991 11.4385 87.1797 11.4385C90.9491 11.4385 90.9051 8.20519 90.9051 8.20519L90.9072 0.766479Z" fill="#393939"/>
<path d="M47.59 18.7304C47.59 17.9589 47.4396 17.3654 47.1377 16.949C46.8369 16.5346 46.4061 16.3248 45.8434 16.3248C45.3031 16.3248 44.8805 16.5346 44.5787 16.949C44.2993 17.3255 44.1592 17.921 44.1592 18.7304C44.1592 19.4855 44.3085 20.0473 44.6104 20.4238C44.9102 20.8402 45.343 21.048 45.9037 21.048C46.4256 21.048 46.8369 20.8402 47.1377 20.4238C47.4396 20.0084 47.59 19.4456 47.59 18.7304ZM44.1592 24.27C44.1592 24.5463 44.0589 24.7847 43.8563 24.9822C43.6568 25.1807 43.4163 25.2799 43.1349 25.2799H42.1127V18.1656C42.1127 16.7822 42.5783 15.9166 43.3457 15.3303C43.8532 14.9435 44.6083 14.5741 46.0245 14.5741C46.9801 14.5741 48.0995 14.9456 48.7042 15.6823C49.3826 16.5111 49.665 17.435 49.665 18.6414C49.665 19.8897 49.3642 20.8965 48.7636 21.6711C48.1619 22.4242 47.3884 22.7987 46.445 22.7987C45.9436 22.7987 45.5026 22.7096 45.122 22.5326C44.7189 22.3341 44.3996 22.0272 44.1592 21.6107V24.27Z" fill="#393939"/>
<path d="M59.8602 18.7322C59.8602 20.0971 60.2551 20.8533 61.043 21.0027C61.8298 21.149 62.4121 20.9658 62.7865 20.4522C62.9646 20.2363 63.0915 19.8935 63.1713 19.43C63.249 18.9655 63.2552 18.505 63.1856 18.0507C63.1181 17.5944 62.9543 17.1892 62.6975 16.8331C62.4427 16.478 62.0672 16.299 61.5751 16.299C60.9049 16.299 60.4526 16.5476 60.2152 17.0398C59.9778 17.535 59.8602 18.0988 59.8602 18.7322ZM63.2306 22.1435V21.6411C62.8766 22.1957 62.3967 22.5395 61.7961 22.6787C61.1955 22.8168 60.5989 22.7677 60.0096 22.5293C59.4171 22.2929 58.9096 21.8529 58.486 21.2104C58.0624 20.5658 57.8516 19.7206 57.8516 18.6718C57.8516 17.447 58.132 16.4525 58.6927 15.6912C59.2544 14.9299 60.1569 14.582 61.3981 14.5483C62.6208 14.5155 63.3319 14.7928 64.0287 15.3198C64.79 15.8979 65.2402 16.784 65.2402 18.1684V22.3533C65.2433 23.6845 64.3142 26.1525 61.3981 25.9437C59.5911 25.8128 58.5883 25.0709 58.0286 23.3918H60.1866C60.3441 23.6681 60.5846 23.8799 60.911 24.0273C61.2343 24.1777 61.5618 24.2166 61.8841 24.147C62.2095 24.0774 62.5052 23.884 62.7732 23.5689C63.0383 23.2527 63.1907 22.7769 63.2306 22.1435Z" fill="#393939"/>
<path d="M55.0624 19.5583C55.0491 20.2407 54.8537 20.7104 54.4792 20.9682C54.1037 21.2251 53.6934 21.354 53.2483 21.354C52.9659 21.354 52.7275 21.2762 52.532 21.1217C52.3356 20.9672 52.2373 20.7145 52.2373 20.3656C52.2373 19.9757 52.398 19.6872 52.7193 19.501C52.9106 19.3915 53.2217 19.2973 53.6565 19.2226L54.1211 19.1367C54.3533 19.0927 54.5355 19.0456 54.6675 18.9955C54.8025 18.9464 54.9325 18.8819 55.0624 18.8001V19.5583ZM56.0969 15.1134C55.4308 14.7768 54.6695 14.6059 53.8131 14.6059C52.4942 14.6059 51.5651 14.9497 51.0228 15.6363C50.6831 16.0753 50.4918 16.635 50.4478 17.3185H52.4174C52.4655 17.0166 52.5617 16.7782 52.707 16.6022C52.9106 16.3638 53.2554 16.2451 53.7425 16.2451C54.1804 16.2451 54.5099 16.3045 54.734 16.4272C54.9581 16.549 55.0716 16.77 55.0716 17.0893C55.0716 17.3512 54.9253 17.5446 54.6316 17.6694C54.469 17.741 54.1968 17.8004 53.8162 17.8485L53.1183 17.9334C52.3264 18.0337 51.7237 18.2015 51.3165 18.4348C50.5705 18.8645 50.1981 19.5582 50.1981 20.517C50.1981 21.2557 50.4293 21.8277 50.8929 22.2309C51.3553 22.633 51.9437 22.8039 52.6538 22.8366C57.1037 23.0351 57.0546 20.4894 57.0955 19.9604V17.0309C57.0955 16.0916 56.763 15.4531 56.0969 15.1134Z" fill="#393939"/>
<path d="M71.3547 20.4745C71.0364 20.8981 70.5801 21.1089 69.9856 21.1089C69.3901 21.1089 68.9317 20.8981 68.6125 20.4745C68.2901 20.053 68.1305 19.4523 68.1305 18.6737C68.1305 17.895 68.2901 17.2954 68.6125 16.8749C68.9317 16.4543 69.3901 16.2456 69.9856 16.2456C70.5801 16.2456 71.0364 16.4543 71.3547 16.8749C71.6729 17.2954 71.8325 17.895 71.8325 18.6737C71.8325 19.4523 71.6729 20.053 71.3547 20.4745ZM72.9815 15.7586C72.3246 14.9359 71.328 14.5256 69.9907 14.5256C68.6565 14.5256 67.6588 14.9359 67.003 15.7586C66.3461 16.5802 66.0176 17.5512 66.0176 18.6737C66.0176 19.8146 66.3461 20.7886 67.003 21.6001C67.6588 22.4084 68.6565 22.8146 69.9907 22.8146C71.328 22.8146 72.3246 22.4084 72.9815 21.6001C73.6374 20.7886 73.9638 19.8146 73.9638 18.6737C73.9638 17.5512 73.6374 16.5802 72.9815 15.7586Z" fill="#393939"/>
</svg>
