<svg width="48" height="31" viewBox="0 0 48 31" fill="none" xmlns="http://www.w3.org/2000/svg">
<path d="M33.5687 9.58815C32.8921 9.33554 31.832 9.06445 30.508 9.06445C27.1337 9.06445 24.7567 10.7556 24.7365 13.1794C24.7175 14.971 26.4334 15.9705 27.7288 16.5669C29.058 17.1781 29.5049 17.5679 29.4986 18.1136C29.4901 18.9494 28.4371 19.3313 27.4555 19.3313C26.0887 19.3313 25.3625 19.1423 24.241 18.6767L23.801 18.4785L23.3217 21.2699C24.1193 21.6179 25.5943 21.9195 27.1257 21.9351C30.7154 21.9351 33.0458 20.2633 33.0723 17.6751C33.0851 16.2567 32.1753 15.1772 30.2051 14.2873C29.0115 13.7105 28.2805 13.3256 28.2882 12.7415C28.2882 12.2232 28.907 11.669 30.2439 11.669C31.3606 11.6518 32.1695 11.8941 32.7998 12.1467L33.1058 12.2906L33.5687 9.58815ZM42.3256 9.29305H39.6869C38.8694 9.29305 38.2577 9.51509 37.8986 10.3271L32.827 21.754H36.4129C36.4129 21.754 36.9993 20.2176 37.1319 19.8802C37.5238 19.8802 41.0074 19.8856 41.5054 19.8856C41.6076 20.3221 41.9209 21.754 41.9209 21.754H45.0897L42.3256 9.29305ZM38.1146 17.3299C38.3971 16.6115 39.4752 13.8443 39.4752 13.8443C39.4551 13.8775 39.7555 13.1224 39.928 12.6543L40.1589 13.7293C40.1589 13.7293 40.8128 16.7057 40.9494 17.3298H38.1146V17.3299ZM17.7695 21.7501H21.1831L23.3196 9.28114H19.9047L17.7695 21.7501ZM11.2056 16.0645L10.0083 10.3352C9.80161 9.54566 9.20206 9.31006 8.46036 9.28254H2.95374L2.91016 9.54197C4.24967 9.86468 5.4475 10.3303 6.49725 10.9096L9.53332 21.7393L13.1464 21.7352L18.5227 9.29025H14.9054L11.562 17.7931L11.2058 16.0652C11.2057 16.0649 11.2056 16.0647 11.2056 16.0645Z" fill="#393939"/>
</svg>
