<svg width="48" height="30" viewBox="0 0 48 30" fill="none" xmlns="http://www.w3.org/2000/svg">
<path fill-rule="evenodd" clip-rule="evenodd" d="M45.0546 14.9983C45.0546 22.1551 39.1918 27.9795 31.9859 27.9795C28.9804 27.9795 26.2097 26.9641 23.9993 25.266C21.7903 26.9641 19.0197 27.9795 16.014 27.9795C8.80831 27.9795 2.9458 22.1551 2.9458 14.9983C2.9458 7.84119 8.80831 2.01953 16.014 2.01953C19.0197 2.01953 21.7903 3.03115 23.9993 4.7317C26.2097 3.03115 28.9804 2.01953 31.9859 2.01953C39.1918 2.01953 45.0546 7.84119 45.0546 14.9983ZM31.9859 3.18015C29.3351 3.18015 26.8878 4.04276 24.9108 5.49847C26.7039 7.15603 28.03 9.30851 28.6637 11.7343H27.4525C26.832 9.58966 25.619 7.69626 23.9993 6.2391C22.3813 7.69626 21.1675 9.58966 20.5493 11.7343H19.3363C19.9715 9.30851 21.2976 7.15603 23.0907 5.49847C21.1125 4.04276 18.6661 3.18015 16.014 3.18015C9.44327 3.18015 4.11663 8.47058 4.11663 14.9983C4.11663 21.5243 9.44327 26.8164 16.014 26.8164C18.6661 26.8164 21.1125 25.9538 23.0907 24.4982C21.4035 22.9374 20.1305 20.9377 19.4577 18.6868H20.6823C21.333 20.6577 22.4881 22.3973 23.9993 23.7573C25.5123 22.3973 26.6688 20.6577 27.3194 18.6868H28.5438C27.8698 20.9377 26.5972 22.9374 24.9108 24.4982C26.8878 25.9538 29.3351 26.8164 31.9859 26.8164C38.5566 26.8164 43.8834 21.5243 43.8834 14.9983C43.8834 8.47058 38.5566 3.18015 31.9859 3.18015ZM11.1985 12.1813H9.29341L8.10284 15.7067L8.05325 12.1813H6.28775L5.32939 17.8773H6.47829L7.21619 13.5256L7.31924 17.8773H8.1563L9.72496 13.4996L9.02213 17.8773H10.2492L11.1985 12.1813ZM13.4804 15.813C13.3513 15.7999 13.2951 15.7949 13.2065 15.7949C12.5102 15.7949 12.1594 16.0316 12.1594 16.498C12.1594 16.787 12.3315 16.9708 12.5976 16.9708C13.0983 16.9708 13.4581 16.498 13.4804 15.813ZM14.3722 17.8773H13.3551L13.3787 17.3968C13.0683 17.7763 12.6549 17.9578 12.0931 17.9578C11.4267 17.9578 10.973 17.4411 10.973 16.6936C10.973 15.5642 11.7644 14.9076 13.1257 14.9076C13.2652 14.9076 13.4439 14.9206 13.6264 14.9438C13.6643 14.7896 13.6735 14.725 13.6735 14.642C13.6735 14.3364 13.4608 14.2211 12.887 14.2211C12.2873 14.2133 11.7918 14.3624 11.5884 14.4296C11.6015 14.3519 11.7593 13.3883 11.7593 13.3883C12.3696 13.2097 12.7736 13.1423 13.2274 13.1423C14.281 13.1423 14.8392 13.6111 14.8379 14.4996C14.8392 14.7379 14.8 15.0319 14.7387 15.4193C14.6318 16.0887 14.4036 17.5264 14.3722 17.8773ZM30.4007 12.0414C28.7745 12.0414 27.6373 13.4635 27.6373 15.4996C27.6373 17.0122 28.4605 17.9578 29.7813 17.9578C30.1203 17.9578 30.4136 17.9136 30.8648 17.7894L31.08 16.4928C30.6744 16.6911 30.3408 16.7855 30.0378 16.7855C29.3246 16.7855 28.8941 16.2623 28.8941 15.3983C28.8941 14.1434 29.5348 13.2639 30.4513 13.2639C30.7917 13.2639 31.1098 13.352 31.5479 13.5723L31.7488 12.3367C31.5689 12.2669 30.9364 12.0414 30.4007 12.0414ZM33.937 15.813C33.8092 15.7999 33.7519 15.7949 33.6618 15.7949C32.9667 15.7949 32.6146 16.0316 32.6146 16.498C32.6146 16.787 32.7869 16.9708 33.0556 16.9708C33.5551 16.9708 33.9162 16.498 33.937 15.813ZM34.8288 17.8773H33.8133L33.8367 17.3968C33.5249 17.7763 33.1103 17.9578 32.5494 17.9578C31.8844 17.9578 31.428 17.4411 31.428 16.6936C31.428 15.5642 32.2222 14.9076 33.5823 14.9076C33.7217 14.9076 33.9004 14.9206 34.0832 14.9438C34.1206 14.7896 34.13 14.725 34.13 14.642C34.13 14.3364 33.9174 14.2211 33.3448 14.2211C32.7439 14.2133 32.2497 14.3624 32.0462 14.4296C32.0579 14.3519 32.2158 13.3883 32.2158 13.3883C32.8272 13.2097 33.2313 13.1423 33.6826 13.1423C34.7376 13.1423 35.2958 13.6111 35.2944 14.4996C35.297 14.7379 35.2567 15.0319 35.1953 15.4193C35.0897 16.0887 34.8604 17.5264 34.8288 17.8773ZM20.4031 16.7815C20.3209 16.8103 20.2127 16.8256 20.0732 16.8256C19.7811 16.8256 19.6521 16.7221 19.6521 16.4824C19.6548 16.3349 19.8568 15.2391 19.9978 14.3597H20.6274L20.7943 13.2457H20.1671L20.3092 12.5466H19.0899C19.0899 12.5466 18.6284 15.2728 18.5593 15.7041C18.4811 16.1976 18.382 16.735 18.3897 16.9396C18.3897 17.599 18.7315 17.9578 19.3585 17.9578C19.6431 17.9578 19.9048 17.911 20.2417 17.8075L20.4031 16.7815ZM24.156 17.7712C23.7361 17.8983 23.3317 17.9578 22.9042 17.9578C21.5374 17.955 20.8256 17.2467 20.8256 15.8907C20.8256 14.3079 21.7318 13.1423 22.9615 13.1423C23.9668 13.1423 24.6099 13.7937 24.6099 14.8195C24.6099 15.1588 24.5642 15.4891 24.4584 15.9594H22.0304C21.9482 16.6287 22.3813 16.9086 23.0907 16.9086C23.5273 16.9086 23.92 16.8205 24.3581 16.6185L24.156 17.7712ZM23.47 15.0242C23.4779 14.9284 23.599 14.1951 22.9027 14.1951C22.5141 14.1951 22.2351 14.4918 22.1231 15.0242H23.47ZM15.3151 14.7094C15.3151 15.2962 15.5993 15.699 16.2487 16.0034C16.7456 16.2364 16.8225 16.3037 16.8225 16.5151C16.8225 16.8023 16.6034 16.9319 16.117 16.9319C15.752 16.9319 15.4103 16.8774 15.0177 16.7507C15.0177 16.7507 14.8562 17.7712 14.8483 17.8206C15.1287 17.8802 15.3764 17.9369 16.1262 17.9578C17.4209 17.9578 18.0182 17.4668 18.0182 16.41C18.0182 15.7716 17.7691 15.4012 17.1535 15.1199C16.64 14.8843 16.58 14.8324 16.58 14.6162C16.58 14.3648 16.7847 14.2379 17.1823 14.2379C17.4222 14.2379 17.7521 14.2639 18.0624 14.3079L18.2373 13.2329C17.9191 13.1837 17.4379 13.1423 17.1575 13.1423C15.7845 13.1423 15.3099 13.8533 15.3151 14.7094ZM41.7397 17.8773H40.5782L40.6366 17.4462C40.2989 17.8024 39.9535 17.9578 39.505 17.9578C38.6128 17.9578 38.0236 17.1949 38.0236 16.0371C38.0236 14.4943 38.9374 13.1966 40.0196 13.1966C40.4945 13.1966 40.8568 13.3883 41.1922 13.8274L41.4633 12.1813H42.6737L41.7397 17.8773ZM39.9287 16.8077C40.4998 16.8077 40.9027 16.1638 40.9027 15.2468C40.9027 14.6576 40.6747 14.3389 40.2518 14.3389C39.695 14.3389 39.3 14.9826 39.3 15.8932C39.3 16.5005 39.5114 16.8077 39.9287 16.8077ZM36.1433 13.2457C35.9895 14.6783 35.7169 16.1301 35.5043 17.5653L35.4482 17.8773H36.674C37.1135 15.0449 37.2203 14.4918 37.9075 14.5617C38.0168 13.9801 38.2204 13.4739 38.3742 13.2175C37.8595 13.1111 37.5724 13.4013 37.1983 13.9492C37.2282 13.7108 37.2817 13.4815 37.27 13.2457H36.1433ZM25.4184 13.2457C25.2643 14.6783 24.9906 16.1301 24.778 17.5653L24.7219 17.8773H25.9489C26.3884 15.0449 26.4939 14.4918 27.1811 14.5617C27.292 13.9801 27.4967 13.4739 27.6481 13.2175C27.1355 13.1111 26.8463 13.4013 26.4717 13.9492C26.5018 13.7108 26.5551 13.4815 26.5448 13.2457H25.4184Z" fill="#393939"/>
</svg>
