<svg width="100" height="100" viewBox="0 0 100 100" fill="none" xmlns="http://www.w3.org/2000/svg">
<g clip-path="url(#clip0_2367_2)">
<g filter="url(#filter0_d_2367_2)">
<path fill-rule="evenodd" clip-rule="evenodd" d="M40.5148 81.7466C48.581 79.1093 59.3671 80.2635 64.6057 84.324C69.8443 88.3852 67.551 93.8142 59.4847 96.4515C51.4184 99.0888 40.6324 97.9346 35.3938 93.8734C30.1552 89.8129 32.4477 84.3832 40.5148 81.7466Z" fill="#E6E6E6"/>
</g>
<path fill-rule="evenodd" clip-rule="evenodd" d="M32.8047 90.5L42.5909 87.3006L37.2227 83.1389C38.1512 82.6353 39.2139 82.1789 40.4033 81.7832C47.6789 87.4235 48.2583 87.8725 50.9705 89.9746C55.8449 88.3813 60.7185 86.788 65.5929 85.1947C66.2389 85.8467 66.7096 86.5249 67.0101 87.2129L53.2226 91.7201L59.3718 96.4873C58.1704 96.8733 56.9106 97.1761 55.6178 97.3986L44.8423 89.0461L34.018 92.585L34.0165 92.5827C33.6171 92.1196 33.3016 91.6444 33.0707 91.164L33.0662 91.1565C33.0363 91.0936 33.0078 91.0306 32.9808 90.9684L32.9636 90.9287C32.9411 90.8747 32.9194 90.8208 32.8984 90.7676C32.8916 90.7503 32.8856 90.7331 32.8796 90.7158C32.8594 90.6634 32.8407 90.6109 32.8234 90.5577C32.8167 90.5382 32.8107 90.5187 32.8047 90.5Z" fill="#CCCCCC"/>
<path fill-rule="evenodd" clip-rule="evenodd" d="M74.7414 52.1381H74.7391C78.7427 46.9017 81.1229 40.3568 81.1229 33.2558C81.1229 16.0673 67.1885 2.13281 49.9999 2.13281C32.8114 2.13281 18.877 16.0673 18.877 33.2558C18.877 40.3568 21.2572 46.9017 25.2607 52.1381H25.2577L48.6644 84.4976C48.9477 84.9345 49.4401 85.2231 49.9999 85.2231C50.5598 85.2231 51.0521 84.9338 51.3362 84.4976L51.3414 84.4886L74.7414 52.1381ZM49.9999 22.128C56.1461 22.128 61.1277 27.1096 61.1277 33.2558C61.1277 39.402 56.1461 44.3835 49.9999 44.3835C43.8537 44.3835 38.8722 39.402 38.8722 33.2558C38.8722 27.1096 43.8537 22.128 49.9999 22.128Z" fill="#ED4F4D"/>
</g>
<defs>
<filter id="filter0_d_2367_2" x="28.582" y="77.3311" width="42.8359" height="25.5361" filterUnits="userSpaceOnUse" color-interpolation-filters="sRGB">
<feFlood flood-opacity="0" result="BackgroundImageFix"/>
<feColorMatrix in="SourceAlpha" type="matrix" values="0 0 0 0 0 0 0 0 0 0 0 0 0 0 0 0 0 0 127 0" result="hardAlpha"/>
<feOffset dy="1"/>
<feGaussianBlur stdDeviation="2"/>
<feComposite in2="hardAlpha" operator="out"/>
<feColorMatrix type="matrix" values="0 0 0 0 0 0 0 0 0 0 0 0 0 0 0 0 0 0 0.25 0"/>
<feBlend mode="normal" in2="BackgroundImageFix" result="effect1_dropShadow_2367_2"/>
<feBlend mode="normal" in="SourceGraphic" in2="effect1_dropShadow_2367_2" result="shape"/>
</filter>
<clipPath id="clip0_2367_2">
<rect width="100" height="100" fill="white"/>
</clipPath>
</defs>
</svg>
