<svg width="50" height="47" viewBox="0 0 50 47" fill="none" xmlns="http://www.w3.org/2000/svg">
<path d="M40.3846 47L9.61538 47C8.08529 47 6.61786 46.381 5.53592 45.2793C4.45398 44.1775 3.84615 42.6831 3.84615 41.125L3.84615 21.5417C3.84615 21.0223 4.04876 20.5242 4.40941 20.1569C4.77006 19.7897 5.2592 19.5833 5.76923 19.5833C6.27926 19.5833 6.7684 19.7897 7.12905 20.1569C7.4897 20.5242 7.69231 21.0223 7.69231 21.5417L7.69231 41.125C7.69231 41.6444 7.89492 42.1425 8.25556 42.5098C8.61621 42.877 9.10535 43.0833 9.61538 43.0833L40.3846 43.0833C40.8946 43.0833 41.3838 42.877 41.7444 42.5098C42.1051 42.1425 42.3077 41.6444 42.3077 41.125L42.3077 21.5417C42.3077 21.0223 42.5103 20.5242 42.8709 20.1569C43.2316 19.7897 43.7207 19.5833 44.2308 19.5833C44.7408 19.5833 45.2299 19.7897 45.5906 20.1569C45.9512 20.5242 46.1538 21.0223 46.1538 21.5417L46.1538 41.125C46.1538 42.6831 45.546 44.1775 44.4641 45.2793C43.3821 46.381 41.9147 47 40.3846 47Z" fill="#507552"/>
<path d="M23.0769 47H13.4615C12.9515 47 12.4624 46.7937 12.1017 46.4264C11.7411 46.0592 11.5385 45.561 11.5385 45.0417L11.5385 33.2917C11.5385 31.7335 12.1463 30.2392 13.2282 29.1374C14.3102 28.0356 15.7776 27.4167 17.3077 27.4167H19.2308C20.7609 27.4167 22.2283 28.0356 23.3102 29.1374C24.3922 30.2392 25 31.7335 25 33.2917L25 45.0417C25 45.561 24.7974 46.0592 24.4367 46.4264C24.0761 46.7937 23.587 47 23.0769 47ZM15.3846 43.0833H21.1538V33.2917C21.1538 32.7723 20.9512 32.2742 20.5906 31.9069C20.2299 31.5397 19.7408 31.3333 19.2308 31.3333H17.3077C16.7977 31.3333 16.3085 31.5397 15.9479 31.9069C15.5872 32.2742 15.3846 32.7723 15.3846 33.2917L15.3846 43.0833Z" fill="#507552"/>
<path d="M42.3077 23.5C40.2676 23.5 38.311 22.6747 36.8684 21.2057C35.4258 19.7366 34.6154 17.7442 34.6154 15.6667C34.6154 15.1473 34.818 14.6492 35.1786 14.2819C35.5393 13.9147 36.0284 13.7083 36.5385 13.7083C37.0485 13.7083 37.5376 13.9147 37.8983 14.2819C38.2589 14.6492 38.4615 15.1473 38.4615 15.6667C38.4615 16.7054 38.8668 17.7017 39.5881 18.4362C40.3093 19.1707 41.2876 19.5833 42.3077 19.5833C43.3278 19.5833 44.306 19.1707 45.0273 18.4362C45.7486 17.7017 46.1538 16.7054 46.1538 15.6667V14.1783L41.1154 3.91667L8.88461 3.91667L3.84615 14.1783V15.6667C3.84615 16.7054 4.25137 17.7017 4.97267 18.4362C5.69396 19.1707 6.67224 19.5833 7.69231 19.5833C8.71237 19.5833 9.69065 19.1707 10.4119 18.4362C11.1332 17.7017 11.5385 16.7054 11.5385 15.6667C11.5385 15.1473 11.7411 14.6492 12.1017 14.2819C12.4624 13.9147 12.9515 13.7083 13.4615 13.7083C13.9716 13.7083 14.4607 13.9147 14.8214 14.2819C15.182 14.6492 15.3846 15.1473 15.3846 15.6667C15.3846 17.7442 14.5742 19.7366 13.1316 21.2057C11.689 22.6747 9.73243 23.5 7.69231 23.5C5.65218 23.5 3.69561 22.6747 2.25302 21.2057C0.810437 19.7366 0 17.7442 0 15.6667L0 13.7083C0.00180497 13.4018 0.0742616 13.0999 0.211538 12.8271L5.98077 1.07708C6.14058 0.754126 6.38508 0.482538 6.68718 0.292424C6.98928 0.10231 7.33718 0.00109609 7.69231 0L42.3077 0C42.6628 0.00109609 43.0107 0.10231 43.3128 0.292424C43.6149 0.482538 43.8594 0.754126 44.0192 1.07708L49.7885 12.8271C49.9257 13.0999 49.9982 13.4018 50 13.7083V15.6667C50 17.7442 49.1896 19.7366 47.747 21.2057C46.3044 22.6747 44.3478 23.5 42.3077 23.5Z" fill="#507552"/>
<path d="M19.2308 23.5C17.1906 23.5 15.2341 22.6747 13.7915 21.2057C12.3489 19.7366 11.5385 17.7442 11.5385 15.6667C11.5385 15.1473 11.7411 14.6492 12.1017 14.2819C12.4624 13.9147 12.9515 13.7083 13.4615 13.7083C13.9716 13.7083 14.4607 13.9147 14.8214 14.2819C15.182 14.6492 15.3846 15.1473 15.3846 15.6667C15.3846 16.7054 15.7898 17.7017 16.5111 18.4362C17.2324 19.1707 18.2107 19.5833 19.2308 19.5833C20.2508 19.5833 21.2291 19.1707 21.9504 18.4362C22.6717 17.7017 23.0769 16.7054 23.0769 15.6667C23.0769 15.1473 23.2795 14.6492 23.6402 14.2819C24.0008 13.9147 24.49 13.7083 25 13.7083C25.51 13.7083 25.9992 13.9147 26.3598 14.2819C26.7205 14.6492 26.9231 15.1473 26.9231 15.6667C26.9231 17.7442 26.1126 19.7366 24.6701 21.2057C23.2275 22.6747 21.2709 23.5 19.2308 23.5Z" fill="#507552"/>
<path d="M30.7692 23.5C28.7291 23.5 26.7725 22.6747 25.3299 21.2057C23.8874 19.7366 23.0769 17.7442 23.0769 15.6667C23.0769 15.1473 23.2795 14.6492 23.6402 14.2819C24.0008 13.9147 24.49 13.7083 25 13.7083C25.51 13.7083 25.9992 13.9147 26.3598 14.2819C26.7205 14.6492 26.9231 15.1473 26.9231 15.6667C26.9231 16.7054 27.3283 17.7017 28.0496 18.4362C28.7709 19.1707 29.7492 19.5833 30.7692 19.5833C31.7893 19.5833 32.7676 19.1707 33.4889 18.4362C34.2102 17.7017 34.6154 16.7054 34.6154 15.6667C34.6154 15.1473 34.818 14.6492 35.1786 14.2819C35.5393 13.9147 36.0284 13.7083 36.5385 13.7083C37.0485 13.7083 37.5376 13.9147 37.8983 14.2819C38.2589 14.6492 38.4615 15.1473 38.4615 15.6667C38.4615 17.7442 37.6511 19.7366 36.2085 21.2057C34.7659 22.6747 32.8094 23.5 30.7692 23.5Z" fill="#507552"/>
<path d="M36.5385 33.2917H30.7692C30.2592 33.2917 29.7701 33.0853 29.4094 32.7181C29.0488 32.3508 28.8462 31.8527 28.8462 31.3333C28.8462 30.814 29.0488 30.3158 29.4094 29.9486C29.7701 29.5813 30.2592 29.375 30.7692 29.375H36.5385C37.0485 29.375 37.5376 29.5813 37.8983 29.9486C38.2589 30.3158 38.4615 30.814 38.4615 31.3333C38.4615 31.8527 38.2589 32.3508 37.8983 32.7181C37.5376 33.0853 37.0485 33.2917 36.5385 33.2917Z" fill="#507552"/>
</svg>
