<svg width="25" height="24" viewBox="0 0 25 24" fill="none" xmlns="http://www.w3.org/2000/svg">
<g clip-path="url(#clip0_113_15)">
<path d="M11.239 0.690984C11.5384 -0.230327 12.8418 -0.230328 13.1411 0.690983L15.3333 7.4377C15.4672 7.84972 15.8511 8.12868 16.2843 8.12868H23.3782C24.347 8.12868 24.7497 9.3683 23.966 9.9377L18.2269 14.1074C17.8765 14.362 17.7298 14.8134 17.8637 15.2254L20.0558 21.9721C20.3552 22.8934 19.3007 23.6596 18.517 23.0902L12.7779 18.9205C12.4274 18.6658 11.9528 18.6658 11.6023 18.9205L5.86321 23.0902C5.07949 23.6596 4.02501 22.8934 4.32436 21.9721L6.5165 15.2254C6.65038 14.8134 6.50372 14.362 6.15323 14.1074L0.414131 9.9377C-0.369582 9.3683 0.0331929 8.12868 1.00192 8.12868H8.09583C8.52906 8.12868 8.91302 7.84972 9.04689 7.4377L11.239 0.690984Z" fill="#ABABAB"/>
<mask id="mask0_113_15" style="mask-type:alpha" maskUnits="userSpaceOnUse" x="0" y="0" width="12" height="24">
<rect width="12" height="24" transform="matrix(-1 0 0 1 12 0)" fill="#D9D9D9"/>
</mask>
<g mask="url(#mask0_113_15)">
<path d="M11.239 0.690984C11.5384 -0.230327 12.8418 -0.230328 13.1411 0.690983L15.3333 7.4377C15.4672 7.84972 15.8511 8.12868 16.2843 8.12868H23.3782C24.347 8.12868 24.7497 9.3683 23.966 9.9377L18.2269 14.1074C17.8765 14.362 17.7298 14.8134 17.8637 15.2254L20.0558 21.9721C20.3552 22.8934 19.3007 23.6596 18.517 23.0902L12.7779 18.9205C12.4274 18.6658 11.9528 18.6658 11.6023 18.9205L5.86321 23.0902C5.07949 23.6596 4.02501 22.8934 4.32436 21.9721L6.5165 15.2254C6.65038 14.8134 6.50372 14.362 6.15323 14.1074L0.414131 9.9377C-0.369582 9.3683 0.0331929 8.12868 1.00192 8.12868H8.09583C8.52906 8.12868 8.91302 7.84972 9.04689 7.4377L11.239 0.690984Z" fill="#FFAA00"/>
</g>
</g>
<defs>
<clipPath id="clip0_113_15">
<rect width="25" height="24" fill="white"/>
</clipPath>
</defs>
</svg>
