<svg width="26" height="26" viewBox="0 0 26 26" fill="none" xmlns="http://www.w3.org/2000/svg">
<path d="M13.044 0.100391C19.8774 0.100561 25.4159 5.5962 25.416 12.3777C25.416 19.1594 19.8769 24.6559 13.044 24.6561C10.8902 24.6561 8.86593 24.1085 7.10158 23.1482L0.346695 25.2957L0.158218 25.3553L0.221695 25.1678L2.42091 18.6766C1.30972 16.8355 0.670914 14.6801 0.670914 12.3777C0.671089 5.59609 6.21124 0.100391 13.044 0.100391ZM13.044 2.23906C7.40857 2.23906 2.82539 6.78828 2.82521 12.3777C2.82521 14.5959 3.54825 16.6507 4.7715 18.3221L4.80177 18.3641L4.78517 18.4129L3.55959 22.0271L7.33693 20.8279L7.38185 20.8133L7.42189 20.8396C9.03525 21.899 10.968 22.5164 13.044 22.5164C18.6786 22.5164 23.2627 17.9682 23.2627 12.3787C23.2627 6.78921 18.679 2.23923 13.044 2.23906ZM9.21681 6.73125C9.31483 6.73755 9.4056 6.74395 9.48927 6.74395C9.50726 6.74393 9.5268 6.74262 9.55177 6.74102C9.57576 6.73947 9.60413 6.73711 9.6338 6.73711C9.69416 6.73714 9.76448 6.74518 9.83888 6.77715C9.98922 6.84188 10.1284 6.99399 10.2578 7.30254C10.3832 7.6016 10.597 8.11874 10.7881 8.57891C10.9806 9.04257 11.1473 9.44217 11.1826 9.5125C11.2644 9.67462 11.3297 9.88554 11.208 10.1258C11.1107 10.3205 11.0541 10.4576 10.8936 10.6434C10.7497 10.8101 10.5756 11.0353 10.4365 11.1727C10.3588 11.2495 10.2996 11.3123 10.2725 11.3846C10.249 11.4471 10.2449 11.5304 10.3203 11.659C10.4942 11.9552 11.0923 12.9214 11.9746 13.702C13.1105 14.7068 14.0607 15.0147 14.3711 15.1688C14.5148 15.2401 14.6129 15.2607 14.6875 15.2518C14.758 15.2432 14.8253 15.2057 14.9033 15.117H14.9043C15.0813 14.9165 15.6528 14.2491 15.8486 13.9568L15.9346 13.8475C16.023 13.753 16.1201 13.7018 16.2305 13.6893C16.3668 13.6739 16.5077 13.7207 16.6426 13.7693C16.7861 13.8211 17.2309 14.0298 17.6699 14.24C18.1122 14.4519 18.558 14.6701 18.709 14.7449C18.8536 14.8167 18.9861 14.8766 19.085 14.9305C19.1591 14.9708 19.2282 15.0144 19.2803 15.0701L19.3262 15.1307L19.3272 15.1316C19.3587 15.1844 19.3732 15.266 19.3799 15.3514C19.387 15.4425 19.3863 15.5562 19.375 15.6863C19.3524 15.9469 19.2881 16.2794 19.1602 16.6365C19.0227 17.0171 18.6285 17.3743 18.2168 17.6385C17.8037 17.9035 17.3428 18.0939 17.044 18.1209C16.9131 18.1328 16.8269 18.1628 16.6885 18.1912C16.5542 18.2188 16.3965 18.2374 16.1602 18.2146C15.6939 18.1698 14.9176 17.9656 13.3877 17.368C10.6831 16.3108 8.85329 13.7722 8.34279 13.0281L8.20607 12.8289C8.12946 12.7279 7.81763 12.3179 7.52541 11.7469C7.23394 11.1772 6.95705 10.4385 6.95705 9.68145C6.95712 8.171 7.76025 7.42309 8.03615 7.12383C8.33412 6.80129 8.68891 6.71859 8.91212 6.71856C9.01607 6.71856 9.11994 6.72502 9.21681 6.73125Z" fill="white" stroke="white" stroke-width="0.2"/>
</svg>
