<svg width="900" height="600" viewBox="0 0 900 600" fill="none" xmlns="http://www.w3.org/2000/svg">
<path d="M632.792 557.696C632.792 566.761 543.749 574.112 433.908 574.112C324.067 574.112 235.024 566.761 235.024 557.696C235.024 548.629 324.067 541.28 433.908 541.28C543.75 541.28 632.792 548.629 632.792 557.696Z" fill="#E0D2B7"/>
<path d="M634.201 475.622C634.201 475.622 623.946 478.543 612.632 463.881C604.456 453.285 589.982 430.674 570.013 430.286C570.013 430.286 593.712 420.017 614.625 430.476C635.54 440.938 646.698 468.013 634.202 475.622H634.201Z" fill="#60744F"/>
<path d="M640.314 518.088H640.279C639.905 518.069 639.618 517.752 639.636 517.378C639.642 517.237 640.301 503.104 637.492 487.021C634.91 472.254 628.801 452.769 614.34 443.796C614.023 443.598 613.924 443.182 614.121 442.863C614.319 442.546 614.737 442.448 615.054 442.644C621.649 446.737 627.113 453.234 631.3 461.959C634.629 468.901 637.163 477.262 638.83 486.812C641.661 503.043 640.997 517.304 640.989 517.446C640.97 517.809 640.673 518.088 640.314 518.088Z" fill="#3D402F"/>
<path d="M641.966 443.336C641.966 443.336 652.35 440.906 655.113 422.595C657.109 409.361 658.771 382.566 676.037 372.524C676.037 372.524 650.335 375.064 637.139 394.37C623.943 413.674 627.346 442.762 641.968 443.336H641.966Z" fill="#60744F"/>
<path d="M656.253 519.285C655.976 519.285 655.718 519.114 655.618 518.838C655.549 518.65 648.705 499.779 643.71 476.497C640.772 462.81 639.04 450.298 638.558 439.302C637.951 425.513 639.323 414.074 642.634 405.302C642.768 404.953 643.158 404.777 643.508 404.909C643.858 405.04 644.034 405.43 643.902 405.78C636.537 425.296 640.453 454.853 645.035 476.212C650.01 499.403 656.824 518.188 656.892 518.374C657.02 518.725 656.839 519.114 656.485 519.243L656.255 519.285H656.253Z" fill="#3D402F"/>
<path d="M660.127 452.304C660.127 452.304 670.693 453.745 679.821 437.633C686.418 425.988 697.552 401.561 717.266 398.355C717.266 398.355 692.354 391.536 673.128 404.847C653.901 418.158 646.681 446.538 660.126 452.305L660.127 452.304Z" fill="#60744F"/>
<path d="M661.745 519.282C661.427 519.282 661.143 519.06 661.08 518.738C661.045 518.561 657.584 500.748 657.484 479.45C657.425 466.926 658.52 455.659 660.742 445.956C663.529 433.782 668.107 424.047 674.351 417.021C674.599 416.741 675.027 416.717 675.306 416.964C675.586 417.213 675.61 417.641 675.363 417.921C661.538 433.475 658.746 459.962 658.839 479.444C658.939 500.616 662.376 518.299 662.409 518.475C662.482 518.843 662.243 519.199 661.876 519.272L661.745 519.282Z" fill="#3D402F"/>
<path d="M678.281 476.946C678.281 476.946 688.348 480.459 700.496 466.483C709.275 456.381 725.04 434.652 745 435.427C745 435.427 721.939 423.793 700.451 433.019C678.964 442.242 666.246 468.624 678.281 476.946Z" fill="#60744F"/>
<path d="M668.477 519.282C668.112 519.282 667.811 518.994 667.8 518.626C667.797 518.504 667.494 506.253 671.196 491.175C673.37 482.312 676.482 474.214 680.447 467.103C685.409 458.198 691.73 450.825 699.231 445.195C699.528 444.969 699.954 445.029 700.178 445.33C700.403 445.628 700.343 446.053 700.044 446.277C683.392 458.783 675.881 477.772 672.511 491.499C668.853 506.4 669.151 518.468 669.154 518.586C669.164 518.96 668.871 519.273 668.497 519.282H668.478H668.477Z" fill="#3D402F"/>
<path d="M701.113 531.722C701.084 533.318 700.83 534.932 700.362 536.553C698.314 543.658 692.196 548.865 684.881 549.911C667.02 552.462 648.595 552.28 629.693 549.795C621.421 548.708 614.672 542.417 613.361 534.178C613.138 532.785 613.083 531.401 613.196 530.028C613.586 525.277 616.024 520.645 620.807 516.155H693.451C698.801 521.18 701.214 526.374 701.113 531.722Z" fill="#341510"/>
<path d="M659.94 539.092C636.743 539.092 621.773 534.592 613.299 530.814C612.958 530.663 612.804 530.263 612.956 529.922C613.107 529.58 613.509 529.426 613.849 529.578C622.205 533.3 636.982 537.739 659.94 537.739C676.155 537.739 689.809 535.549 700.519 531.231C700.865 531.089 701.261 531.258 701.401 531.606C701.539 531.951 701.372 532.345 701.026 532.486C690.152 536.87 676.329 539.092 659.94 539.092Z" fill="#65371F"/>
<path d="M517.662 320.074C517.662 320.074 553.36 316.612 556.286 329.533C558.567 339.61 555.509 429.868 554.055 469.09C553.671 479.375 561.595 488.064 571.871 488.642C574.143 488.77 576.536 488.885 578.998 488.972C590.826 489.397 604.241 489.226 613.435 487.151C633.461 482.63 634.107 454.209 641.214 407.052C648.321 359.897 654.78 275.92 610.857 259.769C609.345 259.214 607.829 258.71 606.322 258.253C563.995 245.457 523.649 270.752 523.649 270.752C513.895 297.742 517.662 320.076 517.662 320.076V320.074Z" fill="#7B0B0C"/>
<path d="M578.999 488.971C590.827 489.396 604.242 489.225 613.436 487.15C633.462 482.629 634.108 454.208 641.215 407.051C648.322 359.896 654.781 275.919 610.858 259.768C609.346 259.213 607.83 258.709 606.323 258.252C598.837 260.041 591.959 265.006 588.247 275.919C578.183 305.513 594.161 408.355 579 488.971H578.999Z" fill="#DA5900"/>
<path d="M602.391 481.899C611.516 481.899 618.611 478.131 622.946 470.97C629.729 459.762 639.517 363.607 639.932 359.521C639.981 359.02 639.618 358.572 639.117 358.519C638.616 358.469 638.168 358.835 638.115 359.337C638.015 360.334 627.959 459.166 621.387 470.023C611.42 486.492 589.422 477.71 589.201 477.619C588.735 477.428 588.203 477.651 588.011 478.116C587.821 478.582 588.044 479.117 588.509 479.307C588.748 479.404 594.452 481.711 601.555 481.889C601.836 481.897 602.114 481.898 602.391 481.898V481.899Z" fill="#7B0B0C"/>
<path d="M599.118 292.565C599.118 292.565 599.837 276.43 612.015 277.706C624.195 278.983 624.78 305.609 613.893 309.051C597.962 314.085 599.119 292.564 599.119 292.564L599.118 292.565Z" fill="#7B0B0C"/>
<path d="M627.164 287.745L627.362 287.725C627.854 287.616 628.164 287.128 628.056 286.639C627.923 286.036 624.66 271.891 612.872 269.074C608.097 267.931 603.854 268.79 600.265 271.622C595.074 275.719 592.656 283.121 592.656 286.835C592.656 287.339 593.065 287.747 593.568 287.747C594.07 287.747 594.48 287.338 594.48 286.835C594.48 283.935 596.506 276.91 601.395 273.054C604.523 270.587 608.242 269.843 612.448 270.85C623.137 273.404 626.245 286.9 626.274 287.033C626.369 287.459 626.746 287.748 627.164 287.748V287.745Z" fill="#7B0B0C"/>
<path d="M266.439 154.616C268.673 178.071 288.366 263.476 298.283 305.57C299.27 309.771 300.16 313.535 300.93 316.769C302.799 324.657 303.932 329.353 303.932 329.353L516.166 324.9C516.166 324.9 516.759 322.182 517.785 317.374C525.373 281.847 556.687 132.027 548.416 117.43C547.832 116.404 546.974 115.391 545.861 114.395C545.07 113.686 544.16 112.993 543.124 112.303C542.092 111.618 540.936 110.94 539.669 110.273C524.313 102.16 492.285 95.4086 455.911 91.4236C413.021 86.7114 364.094 85.8551 329.37 91.1581C328.379 91.3082 327.396 91.4674 326.432 91.6302C323.902 92.0456 321.476 92.4807 319.146 92.9193C273.626 101.54 264.814 113.929 264.529 131.477V131.492C264.421 138.385 265.624 146.058 266.439 154.616Z" fill="#DA5900"/>
<path d="M514.829 279.459C515.266 279.459 515.654 279.149 515.734 278.702C515.801 278.334 522.53 241.362 527.959 203.774C531.148 181.688 533.27 163.71 534.268 150.34C535.981 127.395 534.036 122.819 532.425 121.373C523.104 113.011 474.874 106.6 446.954 103.522C433.58 102.048 419.957 101.582 406.463 102.139C374.184 103.472 318.624 107.004 309.215 115.69C307.622 117.158 305.744 121.76 307.777 144.679C308.96 158.032 311.334 175.979 314.833 198.019C320.785 235.527 328.029 272.4 328.102 272.771C328.2 273.271 328.686 273.594 329.184 273.496C329.684 273.399 330.008 272.913 329.91 272.412C329.839 272.047 322.599 235.2 316.654 197.726C306.249 132.159 308.311 119.034 310.466 117.043C317.024 110.992 352.041 106.232 406.542 103.982C419.941 103.428 433.47 103.891 446.755 105.355C474.454 108.408 522.259 114.727 531.195 122.747C533.378 124.706 535.624 137.802 526.135 203.509C520.713 241.063 513.989 278.005 513.921 278.373C513.83 278.874 514.164 279.354 514.662 279.445L514.829 279.459Z" fill="#7B0B0C"/>
<path d="M264.53 131.478V131.493C264.619 137.918 265.692 145.011 266.437 152.845C268.672 176.3 288.365 261.707 298.279 303.802H332.961C332.961 303.802 294.717 164.319 292.468 130.013C290.999 107.62 307.501 97.3497 319.145 92.9203C273.626 101.541 264.81 113.929 264.531 131.48L264.53 131.478Z" fill="#7B0B0C"/>
<path d="M503.617 496.882V557.696H528.853L543.274 506L548.614 486.85L503.617 496.882Z" fill="#7B0B0C"/>
<path d="M503.617 512.405V496.883L548.614 486.85L543.274 506C531.378 508.24 515.061 511.132 503.617 512.405Z" fill="#341510"/>
<path d="M361.477 496.882V557.696H336.243L321.821 506L316.48 486.85L361.477 496.882Z" fill="#7B0B0C"/>
<path d="M361.477 512.405C350.033 511.133 333.715 508.241 321.821 506L316.48 486.85L361.477 496.883V512.405Z" fill="#341510"/>
<path d="M271.398 362.805C271.463 367.672 271.568 372.827 271.73 378.171C273.166 426.283 279.055 489.709 299.92 495.268C333.892 504.325 544.688 508.932 555.703 488.792C558.991 482.781 561.036 472.662 562.372 460.278C562.631 457.852 562.863 455.34 563.072 452.754C564.883 430.341 564.901 402.457 565.65 378.171C565.855 371.644 566.107 365.374 566.464 359.545C569.077 316.733 534.235 316.126 534.235 316.126C484.973 314.972 412.601 317.28 356.314 319.656C326.963 320.897 301.985 322.151 286.934 322.945C277.251 323.455 271.676 323.774 271.676 323.774C271.676 323.774 271.097 340.156 271.398 362.804V362.805Z" fill="#DA5900"/>
<path d="M436.486 460.906C440.736 460.906 445.115 460.863 449.638 460.773C517.673 459.389 556.83 444.072 557.219 443.919C557.793 443.691 558.075 443.037 557.846 442.463C557.616 441.888 556.964 441.606 556.39 441.836C556.005 441.991 517.182 457.154 449.593 458.532C381.919 459.904 344.751 450.278 344.384 450.182C343.785 450.021 343.172 450.38 343.012 450.979C342.853 451.577 343.211 452.19 343.81 452.35C344.155 452.442 376.836 460.907 436.487 460.907L436.486 460.906Z" fill="#7B0B0C"/>
<path d="M269.34 314.047C271.616 323.639 272.993 329.353 272.993 329.353L531.134 323.934C531.134 323.934 531.854 320.632 533.099 314.781C487.351 307.005 330.364 309.632 269.34 314.047Z" fill="#7B0B0C"/>
<path d="M271.397 362.805C271.462 367.672 271.567 372.827 271.729 378.171C273.166 426.284 279.054 489.709 299.92 495.268C333.891 504.325 544.687 508.932 555.702 488.792C558.99 482.781 561.036 472.662 562.371 460.278C562.63 457.853 562.862 455.34 563.071 452.754C553.076 459.42 523.064 468.163 502.441 470.281C416.468 479.096 349.571 467.086 349.571 467.086C360.86 420.544 357.864 346.226 356.313 319.655C326.962 320.896 301.984 322.15 286.933 322.944L271.397 362.804V362.805Z" fill="#7B0B0C"/>
<path d="M220.421 329.37C220.421 329.37 219.099 321.54 220.047 309.55C221.56 290.388 234.731 274.054 253.164 268.61C268.397 264.108 288.504 261.326 309.08 267.546C310.587 268.003 312.104 268.507 313.614 269.062C357.539 285.214 351.08 369.191 343.972 416.345C336.866 463.502 336.22 491.922 316.194 496.445C306.998 498.521 293.583 498.689 281.757 498.267C279.295 498.179 276.902 498.065 274.629 497.936C274.629 497.936 249.734 500.104 236.963 489.157C224.194 478.213 220.421 329.37 220.421 329.37Z" fill="#7B0B0C"/>
<path d="M281.757 498.267C293.583 498.69 306.998 498.521 316.194 496.445C336.219 491.922 336.866 463.501 343.971 416.344C351.078 369.191 357.538 285.212 313.614 269.062C312.102 268.507 310.587 268.002 309.08 267.545C301.594 269.334 294.716 274.299 291.005 285.212C280.94 314.809 296.918 417.65 281.758 498.266L281.757 498.267Z" fill="#DA5900"/>
<path d="M306.55 490.442C315.675 490.442 322.77 486.674 327.106 479.511C333.889 468.304 343.677 372.149 344.09 368.06C344.14 367.559 343.776 367.111 343.275 367.062C342.768 367.013 342.327 367.377 342.275 367.876C342.174 368.874 332.118 467.708 325.544 478.565C321.386 485.436 314.735 488.813 305.811 488.608C299.035 488.452 293.415 486.185 293.36 486.161C292.893 485.971 292.361 486.194 292.17 486.661C291.98 487.127 292.202 487.658 292.668 487.848C292.905 487.949 298.61 490.255 305.713 490.431C305.994 490.438 306.273 490.442 306.549 490.442H306.55Z" fill="#7B0B0C"/>
<path d="M297.729 295.615C298.231 295.615 298.639 295.207 298.639 294.704C298.639 291.801 300.668 284.777 305.556 280.923C308.684 278.453 312.404 277.712 316.608 278.717C327.276 281.266 330.405 294.767 330.435 294.902C330.544 295.394 331.034 295.705 331.524 295.596C332.015 295.485 332.326 294.999 332.216 294.507C332.084 293.905 328.82 279.759 317.034 276.942C312.257 275.802 308.015 276.658 304.426 279.491C299.235 283.587 296.817 290.991 296.817 294.705C296.817 295.209 297.225 295.616 297.729 295.616V295.615Z" fill="#7B0B0C"/>
<path d="M302.507 301.256C302.507 301.256 303.224 285.121 315.406 286.398C327.585 287.675 328.17 314.301 317.28 317.742C301.349 322.777 302.507 301.256 302.507 301.256Z" fill="#7B0B0C"/>
<path d="M489.095 29.4457C489.095 29.4457 469.6 19.2562 450.021 29.7296C436.284 37.0754 420.905 54.6487 423.406 91.4433C425.906 128.239 393.615 148.339 393.615 148.339L456.444 146.126L489.094 29.4445L489.095 29.4457Z" fill="#341510"/>
<path d="M489.095 29.4457C489.095 29.4457 515.516 34.616 513.166 58.673C510.777 83.1523 489.686 111.73 497.596 124.578C505.505 137.424 502.805 165.753 502.805 165.753L457.469 156.88L455.032 83.996L489.095 29.4468V29.4457Z" fill="#341510"/>
<path d="M524.362 326.747C521.857 329.008 519.022 331.144 515.898 333.153L515.605 333.338C513.42 334.736 511.095 336.062 508.654 337.313C507.779 337.757 506.892 338.194 505.997 338.619C498.881 341.995 490.848 344.772 482.238 346.772C481.456 346.962 480.667 347.136 479.871 347.298C477.582 347.794 475.258 348.233 472.9 348.605C472.112 348.74 471.319 348.854 470.524 348.969C461.413 350.271 451.876 350.716 442.289 350.133C441.161 350.066 440.032 349.985 438.901 349.884C435.891 349.635 432.885 349.27 429.879 348.798L429.664 348.766C428.759 348.62 427.854 348.469 426.949 348.304C422.089 347.425 417.261 346.257 412.514 344.777C408.371 343.493 404.294 341.965 400.31 340.172C399.631 339.876 398.959 339.56 398.287 339.249C397.449 338.849 396.615 338.441 395.791 338.02L395.557 337.907C390.84 324.282 386.247 275.855 385.046 261.381C384.8 258.498 384.622 255.617 384.476 252.736C384.165 246.216 384.098 239.687 384.209 233.073C384.224 232.204 384.239 231.347 384.267 230.472C384.277 229.993 384.286 229.505 384.301 229.018C384.471 222.871 384.783 216.654 385.187 210.308C385.235 209.516 385.29 208.725 385.337 207.928C385.602 204.078 385.888 200.182 386.195 196.24C386.851 187.869 387.594 179.246 388.315 170.266C389.484 155.815 392.76 144.476 398.029 136.856C399.356 134.936 400.807 133.255 402.383 131.812C405.88 128.625 409.985 126.645 414.683 125.984C417.569 125.581 420.206 125.025 422.602 124.383C423.051 124.27 423.479 124.149 423.907 124.02C425.263 123.632 426.535 123.207 427.729 122.775C429.106 122.27 430.374 121.745 431.529 121.223C431.712 121.145 431.897 121.06 432.073 120.983C432.381 120.833 432.688 120.696 432.983 120.546C437.929 118.134 440.737 115.935 440.737 115.935L474.606 116.537C474.863 116.926 475.129 117.304 475.391 117.667L475.452 117.742C477.72 120.781 480.418 122.97 483.322 124.633C483.87 124.955 484.434 125.249 484.993 125.529C485.421 125.753 485.864 125.958 486.307 126.162C486.764 126.366 487.228 126.565 487.692 126.755C488.796 127.207 489.906 127.614 491.022 127.999L491.063 128.007C499.222 130.774 507.543 132.044 512.012 138.184C512.692 139.123 513.283 140.17 513.77 141.351C514.256 142.538 514.64 143.852 514.904 145.325C515.059 146.147 515.132 147.05 515.148 148.032C515.31 157.968 509.267 176.484 509.318 211.038C509.319 213.192 509.348 215.399 509.403 217.668C509.418 218.347 509.433 219.03 509.456 219.716C509.493 221.117 509.548 222.541 509.611 223.99V223.998C509.679 225.448 509.747 226.926 509.836 228.424C509.99 231.217 510.188 234.106 510.435 237.063C510.639 239.659 510.883 242.325 511.173 245.059C511.462 247.855 511.785 250.726 512.152 253.671C513.617 265.388 516.948 288.646 520.551 308.201C521.112 311.279 521.691 314.259 522.263 317.094C522.325 317.394 522.382 317.685 522.443 317.978C523.085 321.131 523.723 324.082 524.36 326.747H524.362Z" fill="#60744F"/>
<path d="M475.242 110.947L472.672 127.713C472.672 127.713 460.22 140.595 437.164 117.788C443.283 113.166 445.558 102.539 444.793 95.6823C444.793 95.6823 446.608 96.7567 449.404 99.2542C449.952 99.7423 450.65 100.121 451.337 100.584C457.417 104.66 466.727 109.956 475.24 110.945L475.242 110.947Z" fill="#F9C9A7"/>
<path d="M460.968 147.846C453.796 147.719 447.263 143.146 441.906 134.441C437.331 127.01 435.232 119.279 435.146 118.951C434.963 118.276 435.365 117.581 436.042 117.4C436.719 117.216 437.413 117.619 437.593 118.296C437.675 118.597 445.86 148.308 464.039 145.062C468.787 144.215 472.323 142.033 474.55 138.579C479.417 131.023 476.632 119.784 476.603 119.671C476.428 118.994 476.838 118.304 477.518 118.13C478.194 117.956 478.887 118.366 479.059 119.045C479.187 119.549 482.139 131.478 476.681 139.951C474.059 144.021 469.954 146.581 464.482 147.557C463.296 147.77 462.121 147.864 460.967 147.845L460.968 147.846Z" fill="#FFAA00"/>
<path d="M468.361 162.149C462.953 164.056 456.637 164.634 449.582 163.866C437.448 162.546 427.153 157.616 427.05 157.565C426.671 157.382 426.486 156.911 426.639 156.515C426.793 156.118 427.225 155.946 427.605 156.13C427.705 156.177 437.801 161.008 449.693 162.296C465.496 164.007 476.806 158.986 483.306 147.371C483.511 147.005 483.964 146.902 484.319 147.139C484.673 147.377 484.794 147.866 484.59 148.233C480.844 154.927 475.463 159.581 468.601 162.064L468.362 162.148L468.361 162.149Z" fill="#3D402F"/>
<path d="M463.114 155.08C455.136 154.938 445.974 147.91 445.471 147.519C445.14 147.262 445.065 146.764 445.302 146.406C445.539 146.047 445.997 145.964 446.327 146.22C446.479 146.34 461.788 158.083 469.129 151.452C469.441 151.171 469.905 151.217 470.163 151.555C470.422 151.892 470.378 152.396 470.066 152.678C468.081 154.469 465.659 155.126 463.115 155.081L463.114 155.08Z" fill="#3D402F"/>
<path d="M457.924 249.385C455 250.02 451.954 250.405 448.799 250.537C441.023 250.862 432.561 249.659 423.65 246.961C408.504 242.376 397.128 234.941 397.015 234.866C396.662 234.634 396.539 234.143 396.745 233.772C396.948 233.401 397.4 233.286 397.751 233.517C397.863 233.592 409.089 240.923 424.038 245.441C437.767 249.594 457.547 252.155 473.816 240.795C474.152 240.559 474.611 240.669 474.841 241.04C475.072 241.41 474.984 241.902 474.647 242.136C469.644 245.631 464.043 248.054 457.924 249.384V249.385Z" fill="#3D402F"/>
<path d="M409.639 398.589C409.639 398.589 407.101 399.651 402.995 401.451C401.824 401.963 400.528 402.533 399.129 403.157C397.272 403.985 395.23 404.904 393.059 405.899C391.82 406.463 390.539 407.056 389.221 407.667C372.843 415.278 351.321 426.125 343.391 433.922C342.835 434.472 342.297 435.009 341.782 435.546C329.807 447.948 328.684 456.681 325.739 455.591C322.661 454.457 320.548 447.541 323.973 441.964C326.347 438.099 327.488 432.962 330.51 427.022C331.328 425.417 332.282 423.753 333.438 422.036C338.536 414.468 347.45 405.866 352.139 399.716C352.441 399.322 352.726 398.933 352.993 398.558C356.784 393.188 356.708 383.82 364.75 379.247C368.679 377.014 373.842 376.451 378.99 376.692C379.905 376.736 380.82 376.804 381.725 376.893C383.081 377.028 384.415 377.206 385.71 377.412C387.5 377.704 389.211 378.049 390.782 378.411C392.287 378.756 393.668 379.112 394.862 379.447C397.744 380.249 399.564 380.913 399.564 380.913L409.641 398.589H409.639Z" fill="#F2E5DC"/>
<path d="M378.988 376.691C375.319 384.455 366.309 399.723 352.138 399.716C352.44 399.322 352.725 398.933 352.992 398.558C356.783 393.188 356.707 383.82 364.748 379.247C368.678 377.014 373.84 376.451 378.989 376.692L378.988 376.691Z" fill="#65371F"/>
<path d="M341.782 435.545C329.807 447.947 328.684 456.68 325.739 455.591C322.661 454.456 320.548 447.54 323.973 441.963C326.347 438.098 327.488 432.961 330.51 427.021C334.499 428.735 338.925 431.431 341.783 435.544L341.782 435.545Z" fill="#65371F"/>
<path d="M402.994 401.451C401.822 401.964 400.526 402.534 399.127 403.157C395.583 399.052 393.09 393.652 391.783 387.165C391.121 383.886 390.862 380.836 390.78 378.41C392.285 378.755 393.665 379.111 394.859 379.446C394.976 381.476 395.233 383.869 395.745 386.398C396.78 391.508 398.869 397.168 402.994 401.451Z" fill="#65371F"/>
<path d="M385.709 377.411C384.414 377.206 383.078 377.027 381.723 376.892C381.412 379.459 381.096 383.736 381.577 388.582C382.356 396.438 384.97 402.924 389.22 407.666C390.538 407.056 391.821 406.463 393.059 405.898C384.369 397.274 385.058 382.919 385.709 377.41V377.411Z" fill="#65371F"/>
<path d="M399.33 373.029C398.057 400.003 414.851 401.688 414.851 401.688C414.851 401.688 418.306 401.606 426.285 399.487C427.031 399.287 427.818 399.072 428.644 398.838C433.817 397.361 440.582 395.128 449.146 391.738C450.158 391.335 451.203 390.918 452.268 390.479C457.882 388.188 464.209 385.425 471.305 382.097C482.029 377.07 494.496 370.76 508.891 362.821C550.369 339.958 586.886 308.051 600.5 281.586C609.698 263.731 608.452 248.352 591.243 239.913C588.213 238.43 585.026 237.564 581.774 237.185C559.978 234.656 537.978 255.425 537.978 255.425C493.77 285.07 480.001 310.345 461.914 330.649C461.168 331.489 460.411 332.322 459.649 333.144C459.156 333.675 458.651 334.197 458.13 334.725C455.206 337.697 451.86 340.625 448.285 343.453C436.374 352.894 421.903 361.29 411.795 366.703C411.081 367.086 410.39 367.452 409.724 367.804C403.462 371.101 399.33 373.028 399.33 373.028V373.029Z" fill="#341510"/>
<path d="M409.723 367.805C410.131 369.745 410.695 371.689 411.363 373.611C411.617 374.337 411.887 375.055 412.169 375.77C416.366 386.42 423.535 396.019 426.284 399.488C427.03 399.288 427.817 399.074 428.643 398.839C426.657 396.374 418.576 385.972 414.161 374.65C413.878 373.931 413.61 373.208 413.362 372.484C412.701 370.558 412.164 368.619 411.795 366.705C411.08 367.088 410.389 367.454 409.723 367.806V367.805Z" fill="#65371F"/>
<path d="M600.502 281.587C580.907 264.393 580.262 246.621 581.774 237.188C585.026 237.565 588.209 238.429 591.242 239.917C608.45 248.351 609.697 263.727 600.502 281.587Z" fill="#65371F"/>
<path d="M411.364 373.611C411.618 374.337 411.888 375.055 412.169 375.77C412.82 375.41 413.484 375.036 414.162 374.65C430.299 365.441 454.289 348.473 481.323 327.026C506.665 306.923 535.568 281.819 539.141 274.213C541.072 270.103 541.203 266.985 539.536 264.952C537.039 261.907 531.441 262.501 528.921 262.956C528.272 263.072 527.854 263.711 528.012 264.348C528.134 264.84 528.558 265.188 529.047 265.217L529.315 265.202C531.792 264.763 536.184 264.452 537.776 266.397C539.101 268.016 538.127 271.014 537.08 273.245C534.198 279.383 510.155 301.251 479.912 325.244C458.536 342.197 431.813 361.882 413.364 372.487C412.688 372.876 412.017 373.254 411.365 373.614L411.364 373.611Z" fill="#65371F"/>
<path d="M404.531 368.593C408.598 381.964 414.254 393.783 423.594 401.998C423.594 401.998 417.795 407.883 411.176 405.494C406.119 403.67 393.596 383.836 395.046 371.863C398.547 369.101 401.75 367.799 404.531 368.594V368.593Z" fill="#65371F"/>
<path d="M517.195 396.757C517.195 396.757 519.783 397.691 523.976 399.286C525.17 399.739 526.491 400.244 527.92 400.798C529.816 401.532 531.9 402.345 534.118 403.231C535.384 403.735 536.695 404.261 538.039 404.806C554.777 411.592 576.811 421.353 585.123 428.746C585.705 429.266 586.27 429.777 586.81 430.287C599.388 442.077 600.944 450.746 603.833 449.506C606.848 448.222 608.615 441.208 604.916 435.811C602.354 432.069 600.96 426.993 597.643 421.212C596.749 419.65 595.711 418.033 594.473 416.378C589.003 409.074 579.672 400.928 574.682 395.019C574.361 394.64 574.057 394.266 573.772 393.904C569.717 388.728 569.327 379.371 561.068 375.202C557.033 373.168 551.847 372.863 546.718 373.362C545.806 373.449 544.895 373.565 543.996 373.697C542.649 373.901 541.325 374.145 540.042 374.414C538.269 374.795 536.577 375.226 535.026 375.665C533.54 376.083 532.178 376.509 531.001 376.901C528.161 377.846 526.38 378.602 526.38 378.602L517.195 396.758V396.757Z" fill="#F2E5DC"/>
<path d="M546.719 373.361C550.77 380.932 560.529 395.73 574.682 395.019C574.361 394.64 574.058 394.266 573.773 393.904C569.717 388.728 569.327 379.371 561.069 375.202C557.034 373.168 551.848 372.863 546.719 373.362V373.361Z" fill="#65371F"/>
<path d="M586.812 430.287C599.39 442.077 600.946 450.746 603.834 449.506C606.85 448.222 608.617 441.208 604.918 435.81C602.356 432.069 600.962 426.993 597.645 421.212C593.749 423.124 589.461 426.036 586.813 430.287H586.812Z" fill="#65371F"/>
<path d="M523.976 399.286C525.17 399.74 526.491 400.244 527.92 400.798C531.256 396.521 533.476 391.002 534.459 384.458C534.956 381.151 535.063 378.091 535.026 375.665C533.54 376.083 532.178 376.509 531.001 376.901C530.987 378.938 530.849 381.339 530.465 383.89C529.686 389.046 527.879 394.805 523.976 399.286Z" fill="#65371F"/>
<path d="M534.118 403.231C535.384 403.735 536.695 404.261 538.04 404.806C542.052 399.858 544.338 393.252 544.724 385.365C544.963 380.501 544.434 376.245 543.995 373.696C542.648 373.899 541.324 374.144 540.041 374.413C540.964 379.885 542.369 394.185 534.117 403.231H534.118Z" fill="#65371F"/>
<path d="M320.868 292.29C336.783 317.427 375.236 344.008 416.339 364.064C455.527 383.186 480.134 392.247 494.348 396.528C494.821 396.672 495.285 396.808 495.733 396.937C506.364 400.059 510.662 400.336 510.662 400.336C510.662 400.336 527.352 397.815 524.739 370.941C524.739 370.941 519.815 367.089 512.452 361.33C511.815 360.834 511.163 360.323 510.491 359.796C496.484 348.843 475.247 332.234 461.332 321.371C422.348 290.934 418.739 292.692 382.804 262.818C382.804 262.818 360.185 242.706 339.413 243.951C334.904 244.22 330.494 245.31 326.434 247.557C308.818 257.304 309.182 273.835 320.867 292.29H320.868Z" fill="#341510"/>
<path d="M494.347 396.527L494.509 396.723C494.672 396.875 494.866 396.972 495.068 397.011C495.291 397.055 495.521 397.031 495.731 396.937L496.099 396.681C503.965 388.422 508.679 375.16 510.961 367.147C511.191 366.338 511.399 365.585 511.58 364.896C511.987 363.347 512.272 362.117 512.451 361.329C511.814 360.833 511.162 360.321 510.49 359.795L510.457 359.916C510.447 359.972 510.142 361.448 509.523 363.813C509.344 364.493 509.142 365.253 508.909 366.073C506.707 373.842 502.071 387.151 494.473 395.134C494.102 395.52 494.064 396.097 494.347 396.527Z" fill="#65371F"/>
<path d="M339.415 243.95C339.352 252.947 337.845 282.902 320.868 292.289C309.18 273.836 308.819 257.303 326.435 247.555C330.495 245.309 334.907 244.222 339.416 243.95H339.415Z" fill="#65371F"/>
<path d="M382.567 273.793C386.514 281.212 416.63 304.845 442.944 323.66C469.111 342.374 492.44 357.328 508.91 366.074C509.606 366.443 510.292 366.803 510.962 367.148C511.192 366.339 511.4 365.587 511.581 364.898C510.908 364.546 510.222 364.183 509.524 363.813C490.776 353.778 465.104 336.707 444.265 321.807C412.862 299.35 387.761 278.706 384.574 272.722C383.418 270.547 382.299 267.599 383.537 265.918C385.035 263.894 389.437 263.985 391.933 264.299L392.074 264.307C392.612 264.307 393.081 263.926 393.186 263.387C393.312 262.74 392.867 262.124 392.212 262.039C389.674 261.709 384.054 261.394 381.711 264.563C380.144 266.679 380.432 269.783 382.567 273.792V273.793Z" fill="#65371F"/>
<path d="M519.324 366.769C515.928 380.327 510.867 392.413 501.948 401.082C501.948 401.082 508.034 406.671 514.527 403.955C519.486 401.883 531.005 381.448 528.959 369.562C525.325 366.976 522.062 365.837 519.324 366.769Z" fill="#65371F"/>
<path d="M570.106 251.936C564.299 265.584 550.889 265.027 536.566 244.148C528.27 232.05 521.013 219.462 515.345 208.836C511.537 201.7 508.448 195.445 506.239 190.821C506.462 187.109 506.64 183.397 506.776 179.681L534.535 162.114C534.535 162.114 543.363 176.059 552.352 193.273C563.469 214.552 574.834 240.824 570.105 251.936H570.106Z" fill="#F9C9A7"/>
<path d="M480.938 280.634C493.369 272.269 508.647 262.434 514.694 257.096C529.612 243.931 555.786 222.843 569.317 233.413C569.317 233.413 580.431 255.39 561.905 269.746C544.254 283.424 504.792 298.489 486.397 304.204C484.329 296.398 481.956 288.62 480.938 280.634Z" fill="#F9C9A7"/>
<path d="M534.658 242.187C534.855 242.178 535.051 242.105 535.215 241.968C542.151 236.044 551.951 232.4 552.049 232.365C552.525 232.189 552.77 231.661 552.595 231.183C552.419 230.706 551.891 230.461 551.413 230.637C551 230.789 541.204 234.431 534.02 240.569C533.632 240.899 533.587 241.48 533.917 241.867C534.109 242.091 534.384 242.2 534.658 242.188V242.187Z" fill="#FA9669"/>
<path d="M536.172 240.962C536.603 240.943 536.974 240.622 537.041 240.18C537.656 236.071 542.831 232.101 542.884 232.062C543.289 231.755 543.368 231.177 543.06 230.773C542.753 230.367 542.175 230.287 541.769 230.596C541.531 230.776 535.945 235.066 535.219 239.906C535.143 240.408 535.491 240.877 535.993 240.953L536.172 240.962Z" fill="#FA9669"/>
<path d="M554.749 191.642C554.749 191.642 553.907 192.262 552.353 193.273C546.877 196.853 532.574 205.341 515.346 208.835C513.953 209.119 512.535 209.373 511.105 209.583C511.105 209.583 508.706 207.229 505.282 203.397C505.671 199.21 505.987 195.015 506.24 190.819C506.463 187.108 506.641 183.396 506.777 179.68C507.342 164.589 507.272 149.466 507.221 134.361C518.813 141.356 537.002 157.046 554.748 191.642H554.749Z" fill="#60744F"/>
<path d="M366.625 162.116C366.625 162.116 322.501 231.834 331.06 251.937C336.866 265.581 350.277 265.031 364.596 244.151C384.751 214.762 398.781 182.461 398.781 182.461L366.625 162.116Z" fill="#F9C9A7"/>
<path d="M410.708 324.9L402.147 308.616C400.012 304.555 402.988 299.687 407.575 299.738L542.161 301.188L538.192 322.036L410.708 324.9Z" fill="#E0D2B7"/>
<path d="M420.225 280.634C407.796 272.269 392.517 262.434 386.471 257.096C371.553 243.931 345.379 222.843 331.848 233.413C331.848 233.413 320.734 255.39 339.26 269.746C356.911 283.424 396.373 298.489 414.768 304.204C416.836 296.398 419.209 288.62 420.225 280.634Z" fill="#F9C9A7"/>
<path d="M366.506 242.187C366.308 242.178 366.112 242.105 365.949 241.968C359.013 236.044 349.214 232.4 349.116 232.365C348.639 232.189 348.395 231.661 348.57 231.183C348.745 230.706 349.273 230.461 349.752 230.637C350.165 230.789 359.962 234.431 367.146 240.569C367.532 240.899 367.579 241.48 367.248 241.867C367.055 242.091 366.78 242.2 366.506 242.188V242.187Z" fill="#FA9669"/>
<path d="M364.994 240.962C364.563 240.943 364.192 240.622 364.125 240.18C363.509 236.071 358.334 232.101 358.281 232.062C357.876 231.755 357.797 231.177 358.104 230.773C358.411 230.367 358.989 230.287 359.395 230.596C359.632 230.776 365.218 235.066 365.945 239.906C366.02 240.408 365.674 240.877 365.172 240.953L364.993 240.962H364.994Z" fill="#FA9669"/>
<path d="M406.252 128.935C406.252 128.935 375.725 134.502 346.417 191.641C346.417 191.641 365.957 206.006 390.061 209.581C390.061 209.581 412.153 187.897 418.01 168.926C423.867 149.957 417.48 136.015 406.252 128.935Z" fill="#60744F"/>
<path d="M391.056 209.321C391.222 209.321 391.392 209.265 391.533 209.149C406.782 196.33 415.557 176.94 415.646 176.747C415.812 176.373 415.646 175.934 415.272 175.768C414.898 175.599 414.46 175.768 414.294 176.142C414.207 176.332 405.562 195.417 390.578 208.014C390.265 208.277 390.224 208.745 390.488 209.059C390.635 209.233 390.845 209.322 391.057 209.322L391.056 209.321Z" fill="#3D402F"/>
<path d="M408.521 188.789L408.644 188.779C414.102 187.851 419.038 184.144 419.243 183.988C419.57 183.74 419.634 183.275 419.388 182.949C419.14 182.623 418.677 182.56 418.35 182.807C418.302 182.842 413.49 186.454 408.397 187.317C407.993 187.385 407.722 187.768 407.79 188.172C407.853 188.533 408.165 188.789 408.521 188.789Z" fill="#3D402F"/>
<path d="M502.628 181.042C502.244 181.04 501.918 181.176 501.889 181.356C504.079 181.931 507.604 201.237 508.757 206.552C508.892 206.733 509.313 206.831 509.7 206.77C510.086 206.71 510.292 206.514 510.158 206.333C510.017 201.035 506.341 181.496 503.366 181.418C503.399 181.228 503.094 181.059 502.686 181.042L502.63 181.041L502.628 181.042Z" fill="#3D402F"/>
<path d="M535.478 322.706H415.034C412.127 322.706 410.031 320.352 410.352 317.445L418.564 243.03C418.884 240.124 421.501 237.768 424.407 237.768H544.85C547.757 237.768 549.853 240.123 549.533 243.03L541.322 317.445C541.001 320.351 538.384 322.706 535.477 322.706H535.478Z" fill="#F2E5DC"/>
<path d="M413.629 323.525L413.502 323.515C412.943 323.446 412.55 322.937 412.62 322.381L422.618 242.675C422.687 242.12 423.193 241.725 423.752 241.794C424.307 241.865 424.703 242.373 424.633 242.928L414.635 322.635C414.572 323.147 414.133 323.525 413.629 323.525Z" fill="#E0D2B7"/>
<path d="M472.224 279.169C471.764 285.147 476.168 290.298 482.058 290.673C487.949 291.048 493.1 286.508 493.558 280.529C494.019 274.552 489.617 269.401 483.724 269.026C477.833 268.651 472.684 273.191 472.224 279.168V279.169Z" fill="#E0D2B7"/>
<path d="M536.447 326.798H414.342C411.656 326.798 409.589 324.428 409.953 321.767L411.115 313.259H542.16L540.836 322.966C540.535 325.164 538.661 326.799 536.448 326.799L536.447 326.798Z" fill="#E0D2B7"/>
<path d="M493.959 81.5643C493.959 81.5643 500.323 76.4678 502.05 83.1465C503.776 89.8252 499.111 101.747 491.64 98.1843L493.959 81.5643Z" fill="#FA9669"/>
<path d="M475.243 110.947L474.025 118.896C467.134 115.881 454.945 109.416 449.407 99.2552C450.007 99.6788 450.652 100.122 451.34 100.585C457.42 104.661 466.73 109.957 475.243 110.946V110.947Z" fill="#341510"/>
<path d="M499.699 82.6676C499.359 84.4091 499.023 86.0491 498.696 87.5944C496.192 99.5115 494.13 105.876 490.719 108.255C473.701 120.127 445.713 96.5086 444.818 95.7457L444.792 95.7203C444.76 94.355 444.753 93.0047 444.773 91.6741C444.903 80.3952 446.754 70.2577 449.743 60.8622C451.195 50.6266 459.075 42.3749 469.283 40.7649C479.863 39.0973 487.872 45.1759 492.875 47.8557C500.42 51.9054 503.443 63.2789 500.597 78.0789C500.29 79.6797 499.99 81.2065 499.7 82.6687L499.699 82.6676Z" fill="#F9C9A7"/>
<path d="M491.252 45.9652C491.252 45.9652 485.578 62.5783 467.405 62.0902C449.233 61.5997 449.667 50.48 449.667 50.48C449.667 50.48 470.64 24.7646 491.252 45.9652Z" fill="#341510"/>
<path d="M493.888 62.7977C493.888 62.7977 490.895 62.5138 491.399 65.4059C491.905 68.2992 498.377 66.4861 501.622 72.2693C501.622 72.2693 504.678 66.1642 493.888 62.7977Z" fill="#341510"/>
<path d="M480.58 60.1939C480.58 60.1939 483.459 61.0572 481.902 63.5489C480.343 66.0382 475.033 61.9193 469.848 66.0544C469.848 66.0544 469.317 59.2453 480.581 60.1939H480.58Z" fill="#341510"/>
<path d="M501.868 71.2525C497.405 69.084 492.012 70.949 489.842 75.4096C487.672 79.8736 489.538 85.2678 494 87.4375C498.46 89.606 503.856 87.741 506.026 83.2793C508.196 78.8176 506.33 73.4234 501.868 71.2525ZM493.328 88.8201C488.104 86.2799 485.919 79.9624 488.459 74.7379C490.999 69.5133 497.315 67.331 502.541 69.8699C507.766 72.4101 509.949 78.7276 507.409 83.951C504.87 89.1755 498.553 91.3614 493.328 88.8201Z" fill="#FFAA00"/>
<path d="M486.98 82.8638C487.881 83.0393 488.521 83.0092 488.576 83.0058C488.796 82.9919 489.002 82.8881 489.14 82.7184C489.281 82.5465 489.341 82.3249 489.31 82.1056L488.051 73.3391C487.988 72.9075 487.591 72.6098 487.16 72.6709C486.727 72.7332 486.429 73.1337 486.489 73.5653L487.61 81.3693C486.826 81.2562 485.636 80.94 484.574 80.0663C484.235 79.7905 483.739 79.839 483.462 80.1771C483.186 80.5141 483.235 81.0104 483.573 81.2862C484.744 82.2464 486.011 82.6746 486.978 82.8638H486.98Z" fill="#341510"/>
<path d="M475.623 80.5176C475.355 81.8886 472.316 82.4472 468.835 81.7651C465.354 81.0842 462.75 79.4212 463.017 78.0524C463.286 76.6814 466.326 76.1228 469.806 76.8049C473.288 77.4869 475.891 79.1488 475.623 80.5176Z" fill="#FA9669"/>
<path d="M478.878 66.5865C474.418 64.418 469.02 66.283 466.853 70.7447C464.683 75.2064 466.548 80.6006 471.011 82.7714C475.472 84.94 480.866 83.075 483.038 78.6144C485.206 74.1504 483.341 68.7562 478.88 66.5865H478.878ZM470.337 84.1529C465.112 81.6127 462.929 75.2953 465.471 70.0707C468.01 64.8473 474.328 62.6638 479.551 65.2028C484.776 67.7429 486.961 74.0604 484.42 79.2838C481.88 84.5083 475.563 86.693 470.338 84.1529H470.337Z" fill="#FFAA00"/>
<path d="M484.315 74.7955L484.047 74.5C483.856 74.1215 484.005 73.6575 484.383 73.4637C484.496 73.406 487.185 72.073 489.66 74.3419C489.972 74.6304 489.994 75.1163 489.707 75.4291C489.42 75.7407 488.933 75.7638 488.62 75.4741C486.927 73.9184 485.102 74.8243 485.084 74.8347C484.83 74.9651 484.539 74.9386 484.316 74.7955H484.315Z" fill="#FFAA00"/>
<path d="M465.675 71.5019L465.404 71.4096C459.952 68.3074 454.447 69.8239 454.393 69.8389C453.985 69.9555 453.559 69.72 453.443 69.3115C453.326 68.9041 453.563 68.4759 453.973 68.3617C454.222 68.2889 460.16 66.6548 466.163 70.0732C466.532 70.2832 466.663 70.7529 466.451 71.1234C466.29 71.405 465.977 71.5469 465.674 71.5031L465.675 71.5019Z" fill="#FFAA00"/>
<path d="M499.699 82.6675C499.359 84.409 499.023 86.049 498.696 87.5943C495.52 86.8534 493.229 85.3023 493.48 84.012C493.732 82.7229 496.465 82.147 499.699 82.6686V82.6675Z" fill="#FA9669"/>
<path d="M478.079 74.2289C477.709 76.1112 476.559 77.4707 475.505 77.263C474.453 77.0576 473.896 75.3657 474.266 73.4834C474.634 71.6022 475.784 70.2438 476.838 70.4493C477.892 70.657 478.447 72.3477 478.079 74.2289Z" fill="#341510"/>
<path d="M496.693 77.8713C496.325 79.7547 495.174 81.112 494.121 80.9065C493.069 80.7011 492.513 79.0069 492.881 77.1257C493.249 75.2446 494.402 73.8874 495.454 74.0916C496.506 74.2994 497.06 75.9913 496.693 77.8713Z" fill="#341510"/>
<path d="M484.189 93.5043C486.358 93.9313 488.789 93.6786 491.264 92.0536C491.629 91.8148 491.731 91.3254 491.492 90.9607C491.253 90.5972 490.762 90.4945 490.399 90.7334C483.657 95.1593 477.303 87.6093 477.034 87.2838C476.757 86.9491 476.26 86.9006 475.924 87.1776C475.588 87.4546 475.54 87.952 475.816 88.2867C475.869 88.349 479.406 92.5695 484.19 93.5043H484.189Z" fill="#341510"/>
<path d="M452.431 89.3081C452.3 89.502 448.704 94.7554 444.815 95.7433L444.81 95.7445L444.793 95.7225C444.76 94.3561 444.754 93.0035 444.77 91.6751C444.908 91.6786 448.623 91.7548 452.431 89.3081Z" fill="#341510"/>
<path d="M451.543 75.5663C451.543 75.5663 445.996 63.9896 438.931 70.8507C433.109 76.5057 438.359 95.2412 448.493 91.1569L451.543 75.5663Z" fill="#F9C9A7"/>
<path d="M462.782 53.041C462.782 53.041 452.961 63.0689 456.025 74.7517C459.092 86.4346 455.101 96.1485 455.101 96.1485C455.101 96.1485 455.242 84.1275 451.195 78.4517C446.759 72.2312 444.051 65.8595 448.34 57.6228C452.627 49.3826 460.312 47.7091 462.782 53.0422V53.041Z" fill="#341510"/>
<path d="M441.365 86.2038C441.157 87.2598 441.844 88.28 442.901 88.4877C443.956 88.6931 444.977 88.0065 445.183 86.9516C445.388 85.8968 444.702 84.8754 443.649 84.67C442.593 84.4623 441.573 85.1489 441.365 86.2038Z" fill="#FFAA00"/>
<path d="M448.059 87.9139L448.144 87.9255C448.578 87.9601 448.959 87.6393 448.997 87.2053C449.739 78.4262 443.088 74.0337 442.805 73.8525C442.437 73.6171 441.95 73.721 441.715 74.0868C441.479 74.455 441.583 74.942 441.949 75.1774C442.2 75.3413 448.084 79.2594 447.425 87.0715C447.391 87.4777 447.669 87.8355 448.059 87.9128V87.9139Z" fill="#341510"/>
<path d="M441.752 81.8067C441.923 81.8401 442.108 81.8171 442.273 81.7282C443.053 81.315 445.359 80.3744 446.625 80.9769C447.02 81.1627 447.49 80.9965 447.677 80.603C447.863 80.2094 447.696 79.7397 447.304 79.5527C445.091 78.5014 441.891 80.1459 441.531 80.3364C441.146 80.5406 441.003 81.0196 441.206 81.4027C441.323 81.6209 441.526 81.7628 441.751 81.8067H441.752Z" fill="#341510"/>
<path d="M454.029 133.632C453.761 147.567 448.664 161.614 409.664 150.738C407.217 150.056 387.24 139.729 379.326 148.009C370.917 156.805 371.034 162.383 362.434 152.181C362.434 152.181 342.374 113.677 379.821 97.8289C381.722 97.0257 383.841 96.5398 386.043 96.0101C387.234 95.7227 388.406 95.4584 389.564 95.2184C392.516 94.5998 395.344 94.1289 398.058 93.7931C400.952 93.4319 403.71 93.2241 406.342 93.1595H406.347C409.053 93.0902 411.62 93.1676 414.059 93.3776C416.38 93.5726 418.581 93.8923 420.674 94.3205C445.454 99.3685 454.302 119.454 454.03 133.635L454.029 133.632Z" fill="#341510"/>
<path d="M356.959 65.9205C360.737 63.655 364.602 61.071 368.357 57.4102C381.547 44.5583 392.482 61.4945 384.719 70.7526C379.938 76.4515 372.292 79.2236 364.792 81.2929C352.506 84.694 340.622 86.2289 342.427 95.7386C345.327 111.046 383.318 96.6861 383.318 96.6861C383.879 109.109 379.557 120.684 356.943 129.095C356.943 129.095 326.272 106.21 333.658 88.0432C338.912 75.1278 347.67 71.4901 356.959 65.9205Z" fill="#341510"/>
<path d="M356.958 65.9205C360.737 63.655 364.602 61.071 368.356 57.4102C381.546 44.5583 392.481 61.4945 384.719 70.7526C379.937 76.4515 372.292 79.2236 364.791 81.2929C362.796 80.5716 360.891 79.2363 359.377 76.9501C356.896 73.1958 356.901 69.2892 356.958 65.9193V65.9205Z" fill="#C37338"/>
<path d="M389.562 95.2172C373.919 106.506 372.124 132.131 372.124 132.131C369.912 116.173 375.301 104.493 379.82 97.8277C381.767 97.1468 383.839 96.5386 386.041 96.0089C387.232 95.7215 388.405 95.4572 389.562 95.2172Z" fill="#C37338"/>
<path d="M420.672 94.3181C406.236 103.883 400.417 124.519 400.417 124.519C401.445 109.247 408.406 99.1515 414.058 93.3752C416.379 93.5703 418.579 93.89 420.672 94.3181Z" fill="#C37338"/>
<path d="M406.341 93.157C391.401 101.959 386.54 124.063 386.54 124.063C386.672 109.302 393.024 99.3625 398.057 93.7906C400.952 93.4293 403.709 93.2216 406.341 93.157Z" fill="#C37338"/>
<path d="M426.311 193.661C423.748 193.085 421.797 189.956 420.056 185.575C419.467 184.095 418.903 182.474 418.349 180.761C417.758 178.937 417.178 177.01 416.584 175.04C414.372 167.644 412.031 159.611 408.589 154.08C400.798 141.565 417.306 140.144 417.306 140.144C417.306 140.144 428.841 134.652 426.505 141.857C424.603 147.719 426.956 161.959 429.68 170.804C430.306 172.835 430.953 174.576 431.568 175.873L431.694 176.141C432.156 177.164 432.535 178.302 432.814 179.491C434.462 186.425 432.873 195.137 426.31 193.661H426.311Z" fill="#341510"/>
<path d="M431.38 192.061C431.184 192.304 430.987 192.516 430.761 192.712C430.352 193.076 429.883 193.348 429.369 193.529C429.141 193.635 428.885 193.695 428.628 193.742C428.189 193.833 427.705 193.848 427.206 193.802C426.919 193.787 426.631 193.727 426.313 193.665L426.238 193.635C423.711 193.031 421.789 189.913 420.064 185.571C423.257 183.422 428.357 180.381 432.819 179.487C433.909 184.043 433.592 189.369 431.381 192.061H431.38Z" fill="#C37338"/>
<path d="M427.205 193.802C426.918 193.787 426.63 193.727 426.312 193.665L426.237 193.635C424.83 191.244 424.028 188.688 423.983 188.537C423.907 188.339 424.028 188.128 424.225 188.067C424.423 188.007 424.634 188.112 424.695 188.309C424.71 188.339 425.633 191.32 427.206 193.802H427.205Z" fill="#341510"/>
<path d="M429.369 193.53C429.141 193.636 428.885 193.696 428.628 193.742C427.281 190.912 426.766 187.569 426.736 187.386C426.706 187.19 426.857 186.993 427.054 186.963C427.266 186.933 427.462 187.069 427.492 187.28C427.492 187.325 428.037 190.761 429.369 193.53Z" fill="#341510"/>
<path d="M431.381 192.061C431.185 192.304 430.987 192.516 430.761 192.712C430.004 189.837 430.004 186.766 430.004 186.599C430.004 186.402 430.185 186.22 430.397 186.235C430.61 186.235 430.761 186.402 430.761 186.614C430.761 186.644 430.761 189.383 431.381 192.061Z" fill="#341510"/>
<path d="M463.044 166.202C462.724 167.027 462.422 167.798 462.133 168.516C461.935 169.011 461.74 169.476 461.549 169.917C461.453 170.144 461.354 170.361 461.258 170.577C460.444 172.371 459.66 173.696 458.694 174.569C457.638 175.527 456.369 175.947 454.616 175.862C453.945 175.83 453.369 175.741 452.851 175.605C450.837 175.059 449.747 173.754 447.822 172.01L447.554 171.764C447.39 171.619 447.223 171.472 447.047 171.325C445.957 170.389 444.592 169.357 442.732 168.264C441.805 167.723 440.757 167.161 439.553 166.592C427.616 160.945 437.539 153.025 433.387 148.007C432.453 146.879 431.132 146.126 429.653 145.644C424.574 143.973 417.594 145.438 417.594 145.438C417.594 145.438 435.157 102.164 448.661 113.537C459.419 122.598 462.512 137.312 466.753 154.705C468.452 161.665 463.7 164.52 463.044 166.203V166.202Z" fill="#341510"/>
<path d="M461.258 170.576C460.445 172.37 459.661 173.695 458.695 174.567C457.639 175.525 456.369 175.945 454.616 175.861C453.946 175.829 453.37 175.74 452.852 175.604C450.838 175.058 449.747 173.753 447.822 172.009C448.465 171.373 449.256 170.786 450.167 170.292C454.453 167.953 453.961 164.947 453.961 164.947C456.225 168.455 459.087 169.641 461.257 170.576H461.258Z" fill="#F2E5DC"/>
<path d="M476.869 171.194C476.807 172.07 476.725 172.918 476.616 173.725C476.116 177.53 475.117 180.502 473.558 181.999C469.42 185.963 467.755 179.931 466.866 173.375C466.75 172.513 466.644 171.641 466.55 170.785C466.364 169.078 466.214 167.419 466.075 165.98C465.323 158.327 454.847 141.264 449.121 136.3C443.399 131.339 452.416 119.263 452.416 119.263C452.416 119.263 462.597 124.678 469.086 137.376C473.596 146.202 477.595 160.914 476.868 171.193L476.869 171.194Z" fill="#341510"/>
<path d="M476.623 173.723C476.139 177.37 475.201 180.244 473.763 181.788L473.567 182C473.174 182.362 472.81 182.65 472.478 182.847C472.069 183.104 471.691 183.226 471.343 183.256C471.071 183.286 470.814 183.256 470.571 183.164C470.223 183.043 469.89 182.817 469.603 182.483C469.361 182.226 469.133 181.894 468.937 181.515C467.923 179.669 467.303 176.583 466.864 173.374C470.118 172.164 473.355 171.68 475.655 172.981C475.972 173.162 476.291 173.419 476.623 173.723Z" fill="#C37338"/>
<path d="M474.837 178.429C474.807 178.535 474.458 180.018 473.762 181.789L473.566 182.001C473.172 182.364 472.809 182.651 472.477 182.848C473.536 180.563 474.081 178.278 474.096 178.248C474.141 178.051 474.353 177.931 474.549 177.976C474.762 178.021 474.882 178.218 474.837 178.429Z" fill="#341510"/>
<path d="M472.446 177.778C472.431 177.93 472.204 180.623 471.341 183.256C471.069 183.286 470.812 183.256 470.569 183.165C471.446 180.532 471.689 177.747 471.689 177.717C471.704 177.505 471.886 177.354 472.097 177.37C472.31 177.385 472.461 177.566 472.445 177.778H472.446Z" fill="#341510"/>
<path d="M469.6 182.483C469.358 182.226 469.131 181.894 468.935 181.515C469.131 179.381 468.995 177.566 468.995 177.536C468.98 177.323 469.131 177.142 469.342 177.127C469.554 177.112 469.735 177.263 469.75 177.475C469.765 177.611 469.932 179.956 469.599 182.483H469.6Z" fill="#341510"/>
<path d="M421.421 168.721L421.11 168.561C420.991 168.39 421.032 168.153 421.202 168.034C429.896 161.92 438.433 162.765 438.517 162.775C438.725 162.796 438.876 162.984 438.853 163.191C438.83 163.398 438.638 163.546 438.438 163.526C438.356 163.517 430.089 162.71 421.639 168.653L421.421 168.721Z" fill="#65371F"/>
<path d="M424.462 174.341L424.217 174.251C424.058 174.115 424.038 173.876 424.175 173.717C431.081 165.638 439.56 164.34 439.645 164.328C439.851 164.296 440.045 164.442 440.073 164.649C440.103 164.855 439.96 165.047 439.753 165.077C439.671 165.089 431.462 166.357 424.751 174.209L424.463 174.341H424.462Z" fill="#65371F"/>
<path d="M429.019 179.268L428.858 179.231C428.67 179.141 428.589 178.915 428.678 178.726C433.244 169.128 441.092 165.67 441.173 165.635C441.365 165.553 441.586 165.642 441.669 165.834C441.751 166.025 441.664 166.248 441.471 166.331C441.396 166.363 433.8 169.725 429.363 179.051C429.296 179.187 429.162 179.268 429.019 179.268Z" fill="#65371F"/>
<path d="M463.574 163.788L463.246 163.599C463.142 163.418 463.204 163.186 463.385 163.082C463.459 163.039 470.935 158.811 481.473 160.055C481.681 160.08 481.828 160.268 481.804 160.475C481.779 160.683 481.596 160.833 481.383 160.806C471.106 159.593 463.834 163.696 463.761 163.736L463.574 163.788Z" fill="#65371F"/>
<path d="M481.424 167.52L481.284 167.494C471.67 163.643 463.237 166.061 463.152 166.085C462.953 166.145 462.742 166.031 462.682 165.829C462.622 165.629 462.736 165.419 462.936 165.36C463.024 165.335 471.707 162.846 481.564 166.792C481.758 166.869 481.851 167.088 481.774 167.283C481.715 167.43 481.572 167.52 481.423 167.52H481.424Z" fill="#65371F"/>
<path d="M458.695 174.568C457.639 175.526 456.37 175.946 454.617 175.862C453.946 175.829 453.37 175.74 452.852 175.604C452.152 173.995 451.905 171.932 455.232 171.849C457.938 171.782 458.659 173.158 458.694 174.568H458.695Z" fill="#341510"/>
<path d="M465.608 160.509C465.608 160.509 471.201 142.713 470.228 140.083C469.757 138.813 458.641 145.556 452.603 151.789C459.402 159.756 461.718 161.29 465.608 160.51V160.509Z" fill="#341510"/>
<path d="M447.54 162.345C447.89 163.582 447.647 164.737 446.994 164.923C446.34 165.109 445.526 164.256 445.174 163.019C444.822 161.78 445.066 160.626 445.72 160.44C446.373 160.255 447.188 161.107 447.54 162.346V162.345Z" fill="#FFCE39"/>
<path d="M461.179 161.585C461.208 162.871 460.683 163.928 460.003 163.943C459.324 163.958 458.749 162.929 458.72 161.642C458.69 160.356 459.216 159.299 459.896 159.284C460.573 159.268 461.149 160.3 461.179 161.585Z" fill="#FFCE39"/>
<path d="M464.054 156.805C464.054 156.805 467.153 146.908 467.989 144.584C468.824 142.26 458.057 152.861 458.057 152.861C458.057 152.861 459.798 155.916 464.054 156.806V156.805Z" fill="#65371F"/>
<path d="M436.309 158.695C436.309 158.695 428.209 145.93 428.52 143.143C428.671 141.796 438.631 144.639 445.991 149.233C443.971 156.805 440.274 158.517 436.311 158.695H436.309Z" fill="#341510"/>
<path d="M438.294 156.199C438.294 156.199 433.172 147.78 431.869 145.828C430.566 143.876 442.924 151.188 442.924 151.188C442.924 151.188 442.015 154.404 438.294 156.199Z" fill="#65371F"/>
<path d="M463.797 161.991L463.539 161.89C463.387 161.748 463.378 161.509 463.52 161.354C463.752 161.107 469.271 155.271 479.799 153.862C480.008 153.835 480.197 153.981 480.224 154.186C480.252 154.395 480.106 154.584 479.899 154.613C469.638 155.986 464.129 161.811 464.075 161.87L463.797 161.991Z" fill="#65371F"/>
<path d="M201.421 514.863H191.626C191.626 514.863 143.094 415.024 156.267 399.612C173.248 379.744 195.302 436.472 201.421 514.863Z" fill="#60744F"/>
<path d="M198.338 514.863H196.737L165.889 413.788C165.766 413.382 165.993 412.956 166.396 412.831C166.803 412.709 167.23 412.935 167.352 413.341L198.338 514.863Z" fill="#3D402F"/>
<path d="M207.191 514.863H216.986C216.986 514.863 265.518 415.024 252.344 399.612C235.363 379.744 213.309 436.472 207.191 514.863Z" fill="#60744F"/>
<path d="M210.273 514.863H211.874L242.724 413.788C242.845 413.382 242.617 412.956 242.216 412.831C241.81 412.709 241.383 412.935 241.259 413.341L210.274 514.863H210.273Z" fill="#3D402F"/>
<path d="M210.088 514.863H201.42C182.259 423.07 189.916 346.189 209.323 360.613C228.726 375.035 210.088 514.863 210.088 514.863Z" fill="#60744F"/>
<path d="M205.008 379.292L203.973 514.862H202.442L203.478 379.282C203.483 378.858 203.83 378.531 204.251 378.523C204.671 378.526 205.013 378.872 205.008 379.292Z" fill="#3D402F"/>
<path d="M248.561 513.819L247.295 517.182L246.492 519.313L244.194 525.417L243.388 527.548L241.027 533.818L240.228 535.945C236.851 544.911 233.474 553.876 230.097 562.842C221.249 568.35 184.434 567.596 174.757 562.842L164.626 535.945L163.826 533.818L161.464 527.548L160.661 525.417L158.361 519.313L157.561 517.182L156.292 513.819C155.423 511.514 157.126 509.052 159.591 509.052H245.263C247.725 509.052 249.427 511.514 248.561 513.819Z" fill="#341510"/>
<path d="M247.295 517.182L246.493 519.314H158.362L157.562 517.182H247.295Z" fill="#65371F"/>
<path d="M244.193 525.418L243.389 527.549H161.465L160.662 525.418H244.193Z" fill="#65371F"/>
<path d="M241.027 533.819L240.228 535.946H164.627L163.828 533.819H241.027Z" fill="#65371F"/>
</svg>
